<?xml version="1.0" standalone="no"?>
<!DOCTYPE svg PUBLIC "-//W3C//DTD SVG 1.1//EN" "http://www.w3.org/Graphics/SVG/1.1/DTD/svg11.dtd" >
<svg xmlns="http://www.w3.org/2000/svg" xmlns:xlink="http://www.w3.org/1999/xlink" version="1.1">
<metadata>
Created by FontForge 20170910 at Thu Dec 26 13:50:14 2013
 By Jimmy Wärting
Copyright (c) 2011-2013, Sol Matas (www.huertatipografica.com.ar), with Reserved Font Name "Bitter".
</metadata>
<defs>
<font id="Bitter-Italic" horiz-adv-x="1282" >
  <font-face 
    font-family="Bitter"
    font-weight="400"
    font-style="italic"
    font-stretch="normal"
    units-per-em="2048"
    panose-1="0 0 5 0 0 0 0 0 0 0"
    ascent="1577"
    descent="-471"
    x-height="1085"
    cap-height="1434"
    bbox="-283 -502 2152 1886"
    underline-thickness="102"
    underline-position="-204"
    slope="-9"
    unicode-range="U+000D-25FC"
  />
<missing-glyph horiz-adv-x="748" 
d="M68 0v1365h544v-1365h-544zM136 68h408v1229h-408v-1229z" />
    <glyph glyph-name=".notdef" horiz-adv-x="748" 
d="M68 0v1365h544v-1365h-544zM136 68h408v1229h-408v-1229z" />
    <glyph glyph-name="glyph1" horiz-adv-x="2048" 
 />
    <glyph glyph-name="glyph1" horiz-adv-x="2048" 
 />
    <glyph glyph-name="glyph2" horiz-adv-x="682" 
 />
    <glyph glyph-name="uni000D" unicode="&#xd;" horiz-adv-x="614" 
 />
    <glyph glyph-name="space" unicode=" " horiz-adv-x="512" 
 />
    <glyph glyph-name="exclam" unicode="!" horiz-adv-x="675" 
d="M113 92q0 72 41.5 123t115.5 51q54 0 83.5 -28t29.5 -84q0 -71 -41.5 -122.5t-118.5 -51.5q-110 0 -110 112zM227 502l135 1034h232l-197 -1024z" />
    <glyph glyph-name="quotedbl" unicode="&#x22;" horiz-adv-x="821" 
d="M184 1065l80 512h191l-121 -512h-150zM528 1065l80 512h193l-121 -512h-152z" />
    <glyph glyph-name="numbersign" unicode="#" horiz-adv-x="1411" 
d="M102 348l21 133h231l86 297h-219l21 133h237l92 318h162l-92 -318h289l94 318h160l-90 -318h225l-21 -133h-243l-88 -297h229l-20 -133h-248l-99 -348h-161l100 348h-291l-100 -348h-160l98 348h-213zM516 481h291l84 297h-289z" />
    <glyph glyph-name="dollar" unicode="$" horiz-adv-x="1112" 
d="M45 57l55 342h127l6 -209q88 -40 203 -40q71 0 139 24.5t116 76t48 118.5q0 49 -30 86t-77.5 61.5t-105.5 46.5t-116 49t-105.5 62t-77.5 92t-30 131q0 88 32 160t87.5 120t125 78.5t150.5 42.5l35 228l151 10l-37 -231q68 -5 146 -24t122 -35l44 -17l-62 -324h-110
l-27 207q-96 35 -188 35q-119 0 -191 -56.5t-72 -138.5q0 -48 30 -85.5t78 -62t105.5 -47.5t115.5 -49.5t106 -59.5t78 -87t30 -123q0 -94 -33 -172.5t-90.5 -132.5t-130.5 -89.5t-157 -51.5l-46 -279h-149l43 267q-80 3 -164.5 22t-128.5 37z" />
    <glyph glyph-name="percent" unicode="%" horiz-adv-x="1669" 
d="M156 997q0 197 113.5 327t289.5 130q123 0 190.5 -68.5t67.5 -191.5q0 -192 -106.5 -324.5t-284.5 -132.5q-132 0 -201 65.5t-69 194.5zM213 0l1040 1434h181l-1041 -1434h-180zM309 1022q0 -76 39.5 -115t106.5 -39q93 0 151 79.5t58 209.5q0 166 -144 166
q-93 0 -152 -82.5t-59 -218.5zM827 240q0 197 114 326.5t290 129.5q123 0 190.5 -68.5t67.5 -191.5q0 -192 -106.5 -324t-284.5 -132q-132 0 -201.5 65.5t-69.5 194.5zM981 264q0 -76 39 -114.5t106 -38.5q93 0 151 79t58 209q0 166 -143 166q-93 0 -152 -82.5t-59 -218.5z
" />
    <glyph glyph-name="ampersand" unicode="&#x26;" horiz-adv-x="1372" 
d="M96 317q0 155 94.5 271.5t243.5 189.5q-8 2 -21 7.5t-46 25.5t-58 45.5t-46 69.5t-21 96q0 206 143.5 319t382.5 113q81 0 173 -20t144 -40l52 -20l-52 -289h-129l-14 164q-78 31 -217 31q-127 0 -201.5 -66.5t-74.5 -173.5q0 -91 66 -145.5t171 -54.5h610l-20 -123
l-166 -41l-41 -246q-35 -214 -184 -332t-377 -118q-211 0 -311.5 89.5t-100.5 247.5zM311 348q0 -95 63 -144.5t173 -49.5q129 0 213.5 68.5t105.5 197.5l41 256h-268q-134 0 -231 -92.5t-97 -235.5z" />
    <glyph glyph-name="quotesingle" unicode="'" horiz-adv-x="385" 
d="M176 1065l80 512h190l-120 -512h-150z" />
    <glyph glyph-name="parenleft" unicode="(" horiz-adv-x="675" 
d="M133 264q0 365 123.5 682.5t394.5 630.5h180q-113 -148 -197 -287t-153.5 -300.5t-105 -341.5t-35.5 -374q0 -206 41.5 -400.5t122.5 -344.5h-178q-98 183 -145.5 360.5t-47.5 374.5z" />
    <glyph glyph-name="parenright" unicode=")" horiz-adv-x="675" 
d="M-158 -471q113 148 197.5 287t153.5 300.5t105 341t36 373.5q0 206 -41.5 401t-122.5 345h178q98 -183 145.5 -360.5t47.5 -374.5q0 -365 -123.5 -682.5t-394.5 -630.5h-181z" />
    <glyph glyph-name="asterisk" unicode="*" horiz-adv-x="884" 
d="M164 1198l72 143l227 -94l16 -65l-65 -35zM213 936l201 211l69 4l4 -70l-168 -231zM463 1247l16 254l146 4l-56 -260l-61 -45zM487 1081l29 70l68 -8l135 -203l-129 -90zM532 1182l37 63l246 101l29 -144l-260 -59z" />
    <glyph glyph-name="plus" unicode="+" horiz-adv-x="1263" 
d="M92 465l29 156h430l74 464h174l-76 -464h438l-26 -156h-439l-71 -465h-174l73 465h-432z" />
    <glyph glyph-name="comma" unicode="," horiz-adv-x="471" 
d="M-31 -238l78 -77q12 11 32.5 30.5t72.5 77.5t91.5 112.5t72 124t32.5 124.5q0 112 -110 112q-67 0 -110.5 -49t-43.5 -113q0 -27 14.5 -63t14.5 -55q0 -26 -36 -82t-72 -99z" />
    <glyph glyph-name="hyphen" unicode="-" horiz-adv-x="782" 
d="M100 471l29 174h520l-28 -174h-521z" />
    <glyph glyph-name="period" unicode="." horiz-adv-x="532" 
d="M66 92q0 72 41.5 123t115.5 51q54 0 83.5 -28t29.5 -84q0 -71 -41.5 -122.5t-118.5 -51.5q-110 0 -110 112z" />
    <glyph glyph-name="slash" unicode="/" horiz-adv-x="917" 
d="M-51 0l891 1434h211l-893 -1434h-209z" />
    <glyph glyph-name="zero" unicode="0" horiz-adv-x="1292" 
d="M113 430q0 96 10 192.5t34 198.5t59.5 193t90 172.5t122 140t159.5 93t198 34.5q215 0 319.5 -120.5t104.5 -329.5q0 -93 -9 -186.5t-31 -195.5t-55.5 -193t-86.5 -174.5t-119.5 -143.5t-159 -95.5t-200.5 -35.5q-221 0 -328.5 112.5t-107.5 337.5zM328 451
q0 -158 56 -227.5t198 -69.5q102 0 184.5 82.5t130.5 210.5t73 267t25 269q0 153 -53 225t-186 72q-88 0 -162 -55t-122 -142t-81.5 -198.5t-48 -221t-14.5 -212.5z" />
    <glyph glyph-name="one" unicode="1" horiz-adv-x="1011" 
d="M51 0l29 174h305l164 1024l-387 -231l-60 147l516 320h175l-203 -1260h309l-27 -174h-821z" />
    <glyph glyph-name="two" unicode="2" horiz-adv-x="1189" 
d="M0 0l29 174l260 211q319 258 444 413t125 298q0 83 -59.5 133.5t-171.5 50.5q-45 0 -101 -8t-90 -16l-33 -9l-49 -203h-161l40 336q28 8 74.5 20.5t159.5 33t190 20.5q100 0 175.5 -15t134.5 -49.5t89.5 -95.5t30.5 -147q0 -191 -143.5 -386.5t-435.5 -426.5l-201 -160
h672l-29 -174h-950z" />
    <glyph glyph-name="three" unicode="3" horiz-adv-x="1083" 
d="M-33 82l80 158q20 -10 53 -24t119.5 -38t153.5 -24q142 0 240 82.5t98 212.5q0 109 -68.5 163t-196.5 54h-155l26 163h144q88 0 155 24.5t105 66t56 89.5t18 101q0 78 -57.5 124t-166.5 46q-51 0 -105 -8t-82 -16l-28 -9l-45 -186h-164l39 319q26 8 69 20.5t155.5 33
t199.5 20.5q184 0 294 -78t110 -221q0 -145 -81 -251t-243 -150q113 -27 178.5 -106t65.5 -175q0 -141 -79 -254.5t-213 -176t-296 -62.5q-61 0 -123 10.5t-106 25.5t-79 30t-53 26z" />
    <glyph glyph-name="four" unicode="4" horiz-adv-x="1212" 
d="M0 348l10 144l797 972l207 -30l-148 -922h244l-29 -164h-239l-56 -348h-194l55 348h-647zM219 512h453l108 684z" />
    <glyph glyph-name="five" unicode="5" horiz-adv-x="1118" 
d="M10 82l80 156q21 -9 56.5 -23t125.5 -37.5t158 -23.5q140 0 240 89t100 218q0 246 -371 246h-202l129 727h751l-28 -174h-564l-67 -390h65q246 0 378 -100.5t132 -267.5q0 -145 -79 -265.5t-212 -188.5t-290 -68q-68 0 -134.5 10.5t-113 25.5t-83 30t-53.5 26z" />
    <glyph glyph-name="six" unicode="6" horiz-adv-x="1234" 
d="M135 432q0 81 13 170t44 189.5t76.5 194t116 179.5t157.5 149.5t206 101.5t256 38q33 0 72.5 -5t63.5 -10l23 -5l-28 -164q-72 10 -156 10q-76 0 -144.5 -17t-120 -46t-96.5 -67t-76.5 -79.5t-57.5 -83t-41.5 -79.5t-26.5 -67t-15 -46l-4 -17q6 4 18 11t49.5 25t77 31.5
t98 24.5t114.5 11q157 0 263.5 -91.5t106.5 -254.5q0 -149 -75 -277t-204.5 -203t-283.5 -75q-117 0 -203 38.5t-133 105t-68.5 143t-21.5 165.5zM342 430q0 -125 66.5 -200.5t181.5 -75.5q145 0 232 98.5t87 245.5q0 209 -241 209q-71 0 -147.5 -23.5t-117.5 -46.5l-41 -23
q-20 -122 -20 -184z" />
    <glyph glyph-name="seven" unicode="7" horiz-adv-x="1052" 
d="M82 1055l61 379h961l-27 -154l-735 -1280h-231l731 1249h-539l-72 -194h-149z" />
    <glyph glyph-name="eight" unicode="8" horiz-adv-x="1290" 
d="M102 299q0 303 340 453q-90 49 -140 110.5t-50 155.5q0 193 146.5 314.5t402.5 121.5q189 0 288 -81t99 -218q0 -145 -86.5 -244.5t-229.5 -150.5q51 -23 87.5 -46.5t71 -58t52 -81.5t17.5 -105q0 -140 -79.5 -253t-212 -174.5t-290.5 -61.5q-108 0 -190 26t-130 71
t-72 101t-24 121zM328 348q0 -92 61 -142t174 -50q144 0 227.5 79.5t83.5 198.5q0 27 -8.5 51.5t-20 43t-34.5 37.5t-41.5 31.5t-52 29t-54 25.5t-59.5 26q-60 -28 -104 -56t-86 -67.5t-64 -92t-22 -114.5zM465 1047q0 -32 8.5 -58.5t29 -48.5t39 -37.5t53.5 -32.5t56.5 -26
t63.5 -25q103 37 180.5 115t77.5 178q0 78 -57.5 123t-163.5 45q-118 0 -202.5 -61.5t-84.5 -171.5z" />
    <glyph glyph-name="nine" unicode="9" horiz-adv-x="1273" 
d="M102 0l27 164q74 -10 158 -10q79 0 149.5 17.5t123 47t97.5 68t76 81t56 85t39.5 81t24.5 68t13 46.5l4 18q-6 -4 -18 -11t-49.5 -25t-76.5 -31.5t-97.5 -24.5t-114.5 -11q-164 0 -268.5 90t-104.5 254q0 110 44 210.5t119 174.5t180 118t221 44q66 0 125.5 -14
t115 -47.5t96 -84.5t64.5 -131t24 -180q0 -91 -14.5 -185.5t-46.5 -195t-80 -192t-119 -173t-158.5 -141.5t-204 -95t-249.5 -35q-36 0 -75 5t-60 10zM356 934q0 -197 244 -197q71 0 147.5 23t116.5 46l41 23q19 100 19 168q0 143 -68.5 213t-179.5 70q-144 0 -232 -98
t-88 -248z" />
    <glyph glyph-name="colon" unicode=":" horiz-adv-x="589" 
d="M82 92q0 72 42 123t116 51q112 0 112 -112q0 -71 -41 -122.5t-118 -51.5q-111 0 -111 112zM186 758q0 72 42 123t116 51q54 0 83.5 -28.5t29.5 -84.5q0 -71 -41.5 -122.5t-118.5 -51.5q-111 0 -111 113z" />
    <glyph glyph-name="semicolon" unicode=";" horiz-adv-x="608" 
d="M-20 -238l77 -77q12 11 32.5 30.5t72.5 77.5t91.5 112.5t72 124t32.5 124.5q0 112 -110 112q-67 0 -110.5 -49t-43.5 -113q0 -27 14.5 -63t14.5 -55q0 -26 -35.5 -82t-71.5 -99zM195 758q0 72 41.5 123t115.5 51q54 0 83.5 -28.5t29.5 -84.5q0 -71 -41.5 -122.5
t-118.5 -51.5q-110 0 -110 113z" />
    <glyph glyph-name="less" unicode="&#x3c;" horiz-adv-x="1253" 
d="M102 471l25 143l1100 471l-29 -178l-860 -368l735 -379l-29 -170z" />
    <glyph glyph-name="equal" unicode="=" horiz-adv-x="1228" 
d="M76 276l26 164h983l-26 -164h-983zM141 676l27 164h983l-27 -164h-983z" />
    <glyph glyph-name="greater" unicode="&#x3e;" horiz-adv-x="1247" 
d="M20 -10l29 178l860 369l-735 378l29 170l942 -481l-25 -143z" />
    <glyph glyph-name="question" unicode="?" horiz-adv-x="937" 
d="M174 92q0 71 41.5 122.5t118.5 51.5q110 0 110 -112q0 -72 -41.5 -123t-115.5 -51q-54 0 -83.5 28t-29.5 84zM262 471v131q0 56 25 108t64.5 92.5t88 79t96.5 76.5t87.5 76.5t64.5 87t25 101.5q0 70 -52 101.5t-137 31.5q-45 0 -99 -6t-85 -12l-31 -7l-10 148
q148 47 281 47q73 0 132.5 -13t109.5 -42.5t78 -83t28 -127.5q0 -71 -27 -136t-70 -115.5t-95 -97.5t-104 -88.5t-95 -80.5t-70 -82t-27 -85v-92z" />
    <glyph glyph-name="at" unicode="@" horiz-adv-x="1679" 
d="M123 526q0 152 34 290t103.5 254.5t168 202t233.5 133.5t294 48q288 0 444 -148.5t156 -414.5q0 -106 -24.5 -204.5t-71.5 -180t-124 -131t-173 -49.5q-43 0 -75.5 15t-50 36t-28 50.5t-13.5 52.5t-3 48l2 39q-4 -10 -11 -26t-33.5 -57.5t-57.5 -73.5t-82.5 -58
t-108.5 -26q-96 0 -151 71t-55 176q0 129 35.5 234t95 171t134 101t154.5 35q44 0 85.5 -12t61.5 -24l19 -11l37 31h88l-73 -465q-9 -74 -9 -80q0 -51 17.5 -72.5t52.5 -21.5q51 0 91 39.5t62.5 101.5t34 128t11.5 128q0 210 -121 327t-350 117q-144 0 -263.5 -59t-198 -160
t-122 -235t-43.5 -285q0 -209 108.5 -318.5t311.5 -109.5q58 0 120.5 12.5t96.5 25.5l33 13l61 -123q-16 -9 -45.5 -22.5t-120 -36t-180.5 -22.5q-269 0 -413 141.5t-144 404.5zM655 614q0 -71 21 -111t61 -40q46 0 91 37.5t76 90.5t55.5 106t36.5 91l12 37l30 142
q-51 22 -125 22q-46 0 -91 -24.5t-82.5 -70t-61 -119t-23.5 -161.5z" />
    <glyph glyph-name="A" unicode="A" horiz-adv-x="1458" 
d="M-74 0l19 123l174 41l655 1259l203 11l246 -1276l139 -35l-21 -123h-542l18 123l176 41l-41 225h-522l-113 -227l172 -39l-20 -123h-543zM510 553h414l-105 616z" />
    <glyph glyph-name="B" unicode="B" horiz-adv-x="1288" 
d="M-4 0l20 123l183 41l174 1106l-166 41l18 112l379 11h213q172 0 286 -80.5t114 -233.5q0 -83 -29 -151t-78 -112.5t-102 -72.5t-111 -41q270 -61 270 -276q0 -112 -42.5 -201.5t-117 -147t-175 -88t-218.5 -30.5h-618zM403 164h191q167 0 260.5 81.5t93.5 200.5
q0 121 -76.5 170.5t-236.5 49.5h-154zM506 819h149q55 0 110 13t110 42.5t89.5 87.5t34.5 138q0 81 -55.5 125.5t-146.5 44.5h-219z" />
    <glyph glyph-name="C" unicode="C" horiz-adv-x="1306" 
d="M123 500q0 -239 136 -379.5t372 -140.5q96 0 191.5 24.5t172 64.5t121.5 69.5t84 60.5l-74 120q-32 -24 -72.5 -46.5t-100 -49t-133.5 -43t-148 -16.5q-146 0 -235 103t-89 272q0 142 38.5 275.5t106.5 237t170.5 166t221.5 62.5q147 0 274 -51l25 -225h119l55 348
q-8 4 -23.5 11t-63.5 24.5t-96.5 31t-117 24.5t-131.5 11q-171 0 -319.5 -70.5t-255 -195.5t-167.5 -303t-61 -385z" />
    <glyph glyph-name="D" unicode="D" horiz-adv-x="1441" 
d="M6 0l21 123l176 39l178 1108l-166 41l18 112l379 11h265q229 0 368 -129.5t139 -352.5q0 -227 -59 -407t-167.5 -299.5t-263 -182.5t-345.5 -63h-543zM412 164h168q186 0 320 97t201.5 267.5t67.5 397.5q0 164 -82 254t-241 90h-258z" />
    <glyph glyph-name="E" unicode="E" horiz-adv-x="1236" 
d="M16 0l21 123l180 41l176 1106l-168 41l19 112l381 11h616l-55 -349h-115l-20 185h-453l-72 -441h467l-24 -163h-467l-80 -502h465l76 209h135l-64 -373h-1018z" />
    <glyph glyph-name="F" unicode="F" horiz-adv-x="1120" 
d="M6 0l21 123l180 41l178 1106l-170 41l18 112l381 11h617l-55 -349h-115l-21 185h-452l-76 -461h469l-25 -164h-467l-77 -481l200 -41l-20 -123h-586z" />
    <glyph glyph-name="G" unicode="G" horiz-adv-x="1486" 
d="M123 500q0 -236 144 -378t395 -142q285 0 550 122l72 451l158 31l20 123l-532 -11l-19 -112l174 -31l-55 -342q-145 -55 -317 -55q-182 0 -273.5 101.5t-91.5 281.5q0 142 39.5 275.5t108.5 237t172.5 166t222.5 62.5q152 0 268 -45l25 -213h119l55 330q-8 4 -23.5 11
t-63.5 24.5t-96.5 31t-117 24.5t-131.5 11q-171 0 -319.5 -70.5t-255 -195t-167.5 -302.5t-61 -386z" />
    <glyph glyph-name="H" unicode="H" horiz-adv-x="1587" 
d="M-4 0l20 123l177 39l178 1108l-168 41l18 112l563 11l-20 -123l-189 -41l-73 -451h667l72 451l-186 41l18 112l572 11l-21 -123l-178 -41l-178 -1106l172 -41l-21 -123h-569l20 123l193 39l80 493h-668l-78 -491l178 -41l-20 -123h-559z" />
    <glyph glyph-name="I" unicode="I" horiz-adv-x="743" 
d="M6 0l21 123l184 41l176 1106l-172 41l18 112l560 11l-21 -123l-180 -41l-178 -1106l172 -41l-21 -123h-559z" />
    <glyph glyph-name="J" unicode="J" horiz-adv-x="710" 
d="M-174 -297l43 154h100q181 0 213 194l195 1219l-174 41l18 112l559 11l-20 -123l-178 -41l-189 -1178q-29 -186 -145 -292.5t-295 -106.5q-22 0 -53.5 2.5t-52.5 4.5z" />
    <glyph glyph-name="K" unicode="K" horiz-adv-x="1329" 
d="M6 0l21 123l180 41l178 1106l-172 41l18 112l562 11l-21 -123l-182 -41l-74 -451h189l442 604l303 11l-20 -123l-175 -41l-387 -518l322 -588l145 -41l-20 -123h-533l21 123l162 39l-267 493h-209l-77 -491l174 -41l-21 -123h-559z" />
    <glyph glyph-name="L" unicode="L" horiz-adv-x="1067" 
d="M-14 0l20 123l182 41l177 1106l-170 41l16 112l571 11l-20 -123l-193 -41l-176 -1106h422l80 235h139l-67 -399h-981z" />
    <glyph glyph-name="M" unicode="M" horiz-adv-x="1781" 
d="M-4 0h551l20 123l-180 41l158 983l231 -789l168 11l479 770l-155 -975l-172 -41l-21 -123h539l20 123l-164 41l175 1106l174 41l20 123l-428 -11l-500 -811l-243 822l-445 -11l-18 -112l170 -41l-178 -1106l-181 -41z" />
    <glyph glyph-name="N" unicode="N" horiz-adv-x="1597" 
d="M-4 0h532l23 123l-168 41l158 989l499 -1153h232l201 1270l174 41l20 123l-522 -11l-19 -112l164 -41l-155 -981l-480 1145l-430 -11l-18 -112l170 -41l-176 -1106l-183 -41z" />
    <glyph glyph-name="O" unicode="O" horiz-adv-x="1505" 
d="M119 479q0 -232 132 -365.5t361 -133.5q175 0 327 68.5t263 192.5t174.5 307.5t63.5 403.5q0 226 -137 364t-381 138q-170 0 -318 -71.5t-255 -198.5t-168.5 -309.5t-61.5 -395.5zM344 500q0 210 66 387t191.5 285t285.5 108q153 0 240 -86.5t87 -267.5q0 -217 -70 -393
t-198 -277.5t-289 -101.5q-147 0 -230 88.5t-83 257.5z" />
    <glyph glyph-name="P" unicode="P" horiz-adv-x="1169" 
d="M-4 0l20 123l179 41l176 1106l-166 41l18 112l379 11h215q75 0 141.5 -16t127.5 -51.5t97 -102t36 -158.5q0 -130 -38.5 -232.5t-100 -165t-145.5 -103.5t-167.5 -57t-173.5 -16h-135l-60 -370l176 -39l-20 -123h-559zM483 696h138q106 0 183.5 30.5t119.5 84t61 116
t19 136.5q0 61 -23 104.5t-60 64t-71.5 29.5t-69.5 9h-205z" />
    <glyph glyph-name="Q" unicode="Q" horiz-adv-x="1517" 
d="M119 479q0 -218 117 -350t321 -147l361 -246q160 -109 245 -109q49 0 131.5 29t140.5 58l58 30l-59 123q-133 -72 -203 -72q-92 0 -193 78l-184 141q265 84 425.5 336.5t160.5 622.5q0 216 -137 348.5t-381 132.5q-170 0 -318 -71.5t-255 -198.5t-168.5 -309.5
t-61.5 -395.5zM344 500q0 210 66 387t191.5 285t285.5 108q327 0 327 -334q0 -227 -70.5 -407.5t-197.5 -282.5t-289 -102q-147 0 -230 88.5t-83 257.5z" />
    <glyph glyph-name="R" unicode="R" horiz-adv-x="1290" 
d="M-4 0l20 123l181 41l176 1106l-166 41l16 112l381 11h221q107 0 195 -32t146.5 -104.5t58.5 -175.5q0 -176 -98.5 -294.5t-260.5 -168.5q28 -23 61.5 -86.5t59.5 -142.5l90 -266l148 -41l-21 -123h-295l-114 379q-44 149 -98.5 197.5t-161.5 48.5h-60l-72 -461l177 -41
l-21 -123h-563zM500 778h151q159 0 259 80.5t100 226.5q0 94 -59 139.5t-163 45.5h-210z" />
    <glyph glyph-name="S" unicode="S" horiz-adv-x="1183" 
d="M68 61q20 -9 55.5 -22.5t136.5 -36t191 -22.5q110 0 211 32.5t182.5 94t130.5 160.5t49 222q0 78 -32 138.5t-83 98t-112.5 67t-123 55t-112.5 53t-83 69t-32 95.5q0 91 77 153t204 62q43 0 93 -9t79 -19l29 -9l28 -219h115l66 348q-23 9 -61 22.5t-138 36.5t-178 23
q-102 0 -194.5 -27.5t-169.5 -81.5t-123 -145t-46 -207q0 -84 32 -148t83 -102.5t112.5 -69t123 -55.5t112.5 -52t83 -68.5t32 -96.5q0 -77 -51 -135t-123.5 -85t-149.5 -27q-54 0 -107.5 11t-80.5 21l-27 11l-6 223h-135z" />
    <glyph glyph-name="T" unicode="T" horiz-adv-x="1124" 
d="M92 1065l62 369h1101l-59 -369h-131l-21 205h-264l-176 -1106l197 -41l-21 -123h-612l20 123l211 41l176 1106h-266l-84 -205h-133z" />
    <glyph glyph-name="U" unicode="U" horiz-adv-x="1566" 
d="M193 1311l18 112l561 11l-20 -123l-179 -41l-114 -717q-13 -80 -13 -141q0 -124 62.5 -191t218.5 -67q183 0 272.5 98.5t126.5 331.5l111 686l-184 41l18 112l565 11l-20 -123l-172 -41l-107 -666q-18 -118 -49.5 -211t-83 -172t-122.5 -131t-170.5 -81t-223.5 -29
t-213 29.5t-140 85t-74 128t-23 166.5q0 64 14 164l115 717z" />
    <glyph glyph-name="V" unicode="V" horiz-adv-x="1376" 
d="M90 1311l19 112l362 11l197 -1137l444 973l-164 41l21 112l549 11l-21 -123l-168 -41l-622 -1270h-195l-248 1270z" />
    <glyph glyph-name="W" unicode="W" horiz-adv-x="1980" 
d="M90 1311l19 112l362 11v-2l2 2l154 -1055l454 1044l129 11l164 -1069l385 905l-176 41l21 112l548 11l-20 -123l-158 -39l-588 -1272h-129l-178 993l-86 -209l-372 -784h-134l-225 1270z" />
    <glyph glyph-name="X" unicode="X" 
d="M-113 0h543l21 123l-129 37l315 403l192 -413l-131 -27l-20 -123h547l20 123l-178 41l-283 577l422 525l219 45l21 123l-543 -11l-20 -112l108 -29l-305 -387l-178 383l129 33l20 123l-546 -11l-21 -112l172 -39l273 -553l-437 -557l-190 -39z" />
    <glyph glyph-name="Y" unicode="Y" horiz-adv-x="1241" 
d="M100 1311l19 112l317 11l205 -750l344 588l-184 39l20 112l551 11l-20 -123l-164 -41l-506 -797l-49 -309l170 -41l-21 -123h-559l21 123l184 41l57 373l-213 733z" />
    <glyph glyph-name="Z" unicode="Z" horiz-adv-x="1202" 
d="M59 0l11 143l852 1125h-541l-82 -183h-115l49 349h961l-10 -136l-858 -1134h548l74 209h135l-59 -373h-965z" />
    <glyph glyph-name="bracketleft" unicode="[" horiz-adv-x="706" 
d="M45 -471l326 2048l430 -10l-21 -133l-245 -23l-273 -1716l242 -23l-21 -133z" />
    <glyph glyph-name="backslash" unicode="\" horiz-adv-x="1036" 
d="M182 1434h183l438 -1434h-182z" />
    <glyph glyph-name="bracketright" unicode="]" horiz-adv-x="706" 
d="M-74 -461l19 133l248 23l272 1716l-242 23l23 133l436 10l-326 -2048z" />
    <glyph glyph-name="asciicircum" unicode="^" horiz-adv-x="1167" 
d="M68 655l507 779h140l256 -779h-170l-191 574l-366 -574h-176z" />
    <glyph glyph-name="underscore" unicode="_" horiz-adv-x="1019" 
d="M-135 -164h1024v-143h-1024v143z" />
    <glyph glyph-name="grave" unicode="`" horiz-adv-x="509" 
d="M0 1491l88 154l422 -302l-64 -108z" />
    <glyph glyph-name="a" unicode="a" horiz-adv-x="1214" 
d="M63 338q0 146 34 272t92.5 216t136.5 154t166.5 95t181.5 31q59 0 116.5 -15.5t85.5 -30.5l27 -16l62 41h112l-147 -921l178 -31l-18 -113l-381 -20l82 377q-7 -14 -15.5 -30.5t-34 -58.5t-52 -78.5t-68 -80.5t-83.5 -75t-96.5 -52.5t-109.5 -21.5q-116 0 -192.5 102
t-76.5 256zM268 369q0 -104 34.5 -159.5t90.5 -55.5q50 0 100.5 30.5t91 79.5t78 107.5t65 117.5t48 108t30.5 79l11 31l41 215q-78 30 -184 30q-60 0 -117 -21t-110 -67t-92.5 -112.5t-63 -165t-23.5 -217.5z" />
    <glyph glyph-name="b" unicode="b" horiz-adv-x="1191" 
d="M104 41l220 1372l-170 41l18 113l375 10l-80 -492l-82 -376q6 16 22.5 51t58 98t90.5 115.5t124 92.5t154 40q131 0 202.5 -106.5t71.5 -262.5q0 -170 -52.5 -314.5t-141 -240t-202.5 -149t-237 -53.5q-88 0 -180.5 15t-141.5 31zM324 164q80 -31 172 -31
q54 0 109.5 21.5t109 68t95.5 112t67.5 162.5t25.5 210q0 96 -35 160.5t-106 64.5q-51 0 -100.5 -30.5t-87.5 -79.5t-72 -107.5t-58 -117.5t-42 -108t-26 -79l-9 -31z" />
    <glyph glyph-name="c" unicode="c" horiz-adv-x="931" 
d="M68 358q0 -179 99.5 -278.5t258.5 -99.5q57 0 120.5 16t113 38t90.5 44.5t64 38.5l22 16l-62 103q-18 -10 -49.5 -25.5t-112.5 -41.5t-145 -26q-94 0 -144.5 56.5t-50.5 169.5q0 151 42.5 280t128.5 211t198 82q37 0 70.5 -5t48.5 -10l14 -5l6 -174h133l45 276
q-5 3 -14 8.5t-39 20t-61.5 25t-78.5 19.5t-93 9q-173 0 -310 -92t-215.5 -263t-78.5 -393z" />
    <glyph glyph-name="d" unicode="d" horiz-adv-x="1189" 
d="M74 338q0 145 33.5 270t91 215t134.5 155t165.5 96.5t181.5 31.5q110 0 197 -45l57 352l-174 41l18 113l379 10l-229 -1413l176 -31l-19 -113l-374 -20l90 377q-7 -17 -25 -52t-62 -98t-94.5 -115.5t-125 -92t-150.5 -39.5q-119 0 -194.5 101t-75.5 257zM279 379
q0 -109 34 -167t93 -58q50 0 100 30.5t90 79.5t76.5 107.5t63 117.5t46 108t29.5 79l10 31l33 215q-72 30 -174 30q-176 0 -288.5 -162t-112.5 -411z" />
    <glyph glyph-name="e" unicode="e" horiz-adv-x="1015" 
d="M61 348q0 156 47 297t126.5 241.5t189 160t229.5 59.5q155 0 246.5 -72t91.5 -194q0 -117 -91 -207t-254.5 -139.5t-373.5 -49.5q-6 -47 -6 -88q0 -109 55.5 -161t170.5 -52q67 0 150.5 23.5t133.5 46.5l51 23l62 -105q-9 -6 -25 -16.5t-66.5 -36.5t-102 -45.5
t-124.5 -36t-141 -16.5q-169 0 -269 99.5t-100 268.5zM291 588q219 0 362.5 65t143.5 166q0 133 -154 133q-113 0 -213 -102t-139 -262z" />
    <glyph glyph-name="f" unicode="f" horiz-adv-x="720" 
d="M-242 -465l35 131h146q167 0 208 252l158 1004h-192l20 133l197 20l20 123q63 399 408 399q64 0 135.5 -10.5t110.5 -20.5l40 -10l-53 -286h-133v164h-100q-100 0 -145 -50t-60 -145l-27 -164h289l-27 -153h-286l-154 -963q-72 -451 -420 -451q-32 0 -74.5 7t-69.5 13z
" />
    <glyph glyph-name="g" unicode="g" horiz-adv-x="1142" 
d="M43 -418l49 148q20 -7 53 -17.5t115 -28.5t139 -18q135 0 208.5 70.5t101.5 202.5l92 438q-7 -14 -15.5 -30.5t-34 -58.5t-52.5 -78.5t-68.5 -80.5t-84 -75t-97.5 -52.5t-111 -21.5q-114 0 -189 101t-75 257q0 146 33.5 272t92 216t135.5 154t165 95t180 31
q62 0 119.5 -15.5t84.5 -30.5l27 -16l62 41h112l-182 -1134q-35 -219 -159.5 -336t-323.5 -117q-79 0 -173.5 21t-148.5 42zM279 373q0 -108 34 -163.5t90 -55.5q69 0 138 57t118 138t88 162.5t59 138.5l19 57l39 215q-73 30 -184 30q-60 0 -116.5 -21t-108.5 -67
t-91 -112.5t-62 -164t-23 -214.5z" />
    <glyph glyph-name="h" unicode="h" 
d="M121 0l225 1413l-172 41l19 113l374 10l-157 -889q3 9 12.5 30.5t32.5 62t50.5 82t69.5 86t87.5 79t106 56.5t124.5 22q223 0 223 -248q0 -49 -10 -121l-92 -573l172 -31l-19 -113l-374 -20l116 707q9 70 9 90q0 135 -107 135q-54 0 -107 -31t-94.5 -80.5t-78.5 -109.5
t-63.5 -120.5t-46 -110t-29.5 -80.5l-9 -31l-68 -369h-194z" />
    <glyph glyph-name="i" unicode="i" horiz-adv-x="634" 
d="M106 963l175 -41l-148 -922l377 20l18 113l-174 31l148 921l-375 -10zM307 1382q0 -48 31 -75t82 -27q68 0 105.5 53.5t37.5 130.5q0 49 -30.5 76t-81.5 27q-68 0 -106 -54t-38 -131z" />
    <glyph glyph-name="j" unicode="j" horiz-adv-x="604" 
d="M-283 -461q82 -31 164 -31q176 0 282 105.5t138 294.5l193 1177l-379 -10l-21 -112l176 -41l-159 -994q-24 -144 -73.5 -205t-156.5 -61q-32 0 -63 2.5t-46 5.5l-14 2zM297 1382q0 -48 31 -75t82 -27q68 0 105.5 53.5t37.5 130.5q0 48 -31 75.5t-82 27.5
q-68 0 -105.5 -54t-37.5 -131z" />
    <glyph glyph-name="k" unicode="k" horiz-adv-x="1105" 
d="M111 0l227 1413l-174 41l18 113l375 10l-145 -903h172l198 264l-86 25l17 112l438 10l-21 -122l-149 -27l-264 -320l190 -452l162 -51l-20 -113h-279l-207 522h-176l-82 -522h-194z" />
    <glyph glyph-name="l" unicode="l" horiz-adv-x="595" 
d="M111 0l381 20l18 113l-174 31l225 1413l-379 -10l-18 -113l172 -41z" />
    <glyph glyph-name="m" unicode="m" horiz-adv-x="1929" 
d="M106 963l19 112l373 10l-88 -397q4 10 12.5 30.5t30.5 62t48.5 82t67.5 86t85.5 79t104.5 56t124 22.5q117 0 168 -64t51 -186q0 -52 -10 -127q19 46 41.5 88t64 97.5t87.5 95.5t112.5 68t140.5 28q225 0 225 -252q0 -49 -10 -117l-94 -573l174 -31l-18 -113l-377 -20
l116 707q9 70 9 88q0 137 -107 137q-53 0 -105.5 -32t-93 -83t-77.5 -112.5t-63 -123t-45 -112.5t-28 -83l-10 -32l-55 -354h-195l115 707q8 62 8 90q0 135 -106 135q-53 0 -104 -31t-91.5 -80.5t-76.5 -109.5t-61.5 -120.5t-44.5 -110t-29 -80.5l-9 -31l-59 -369h-195
l148 922z" />
    <glyph glyph-name="n" unicode="n" horiz-adv-x="1298" 
d="M106 963l19 112l375 10l-92 -397q6 13 14.5 31t34 61.5t53.5 82.5t72 85t90.5 79.5t107.5 56t125 22.5q228 0 228 -252q0 -42 -11 -117l-94 -573l174 -31l-18 -113l-377 -20l115 707q8 62 8 90q0 135 -107 135q-54 0 -107.5 -31t-96 -80.5t-80.5 -109.5t-65.5 -120.5
t-48 -110t-30.5 -80.5l-10 -31l-59 -369h-195l148 922z" />
    <glyph glyph-name="o" unicode="o" horiz-adv-x="1126" 
d="M70 385q0 -185 101 -295t275 -110q131 0 243.5 50.5t194 142.5t127.5 228.5t46 300.5q0 181 -100.5 292.5t-284.5 111.5q-266 0 -434 -200t-168 -521zM274 379q0 153 39 278t123 205t199 80q100 0 159.5 -56t59.5 -179q0 -165 -42.5 -291.5t-127.5 -199.5t-201 -73
q-97 0 -153 58.5t-56 177.5z" />
    <glyph glyph-name="p" unicode="p" horiz-adv-x="1208" 
d="M-125 -471l19 113l174 51l196 1229l-168 41l19 112l370 10l-82 -376q6 17 22 51t58 97.5t92 116t127.5 92.5t161.5 40q87 0 149.5 -52.5t92 -134.5t29.5 -182q0 -170 -51 -314.5t-137 -240t-197.5 -149t-233.5 -53.5q-113 0 -201 49l-53 -336l156 -51l-21 -113h-522z
M338 164q86 -31 188 -31q67 0 135.5 35.5t129.5 103t100 181.5t39 254q0 95 -34 160t-103 65q-52 0 -103 -30.5t-91 -79.5t-76 -107.5t-62 -117.5t-44.5 -108t-28.5 -79l-9 -31z" />
    <glyph glyph-name="q" unicode="q" horiz-adv-x="1142" 
d="M74 338q0 147 34 273t93 215.5t136.5 153.5t166 95t180.5 31q64 0 122.5 -15.5t85.5 -30.5l26 -16l63 41h106l-223 -1392l156 -51l-19 -113h-530l18 113l181 51l47 307l90 379q-4 -8 -11.5 -22.5t-32.5 -56t-52.5 -79t-70 -83.5t-86 -79.5t-99 -56t-111.5 -22.5
q-116 0 -193 101.5t-77 256.5zM279 369q0 -104 35 -159.5t92 -55.5q50 0 100.5 30.5t91.5 79.5t78.5 107.5t65 117.5t48 108t30.5 79l11 31l41 215q-86 30 -188 30q-76 0 -146 -34.5t-129 -102.5t-94.5 -183.5t-35.5 -262.5z" />
    <glyph glyph-name="r" unicode="r" horiz-adv-x="872" 
d="M106 963l19 112l377 10l-80 -356q5 13 12 30t27.5 56t43.5 74t60.5 76.5t77.5 71t95 49.5t114 20q23 0 48.5 -5t39.5 -11l14 -5l-61 -307h-133v144q-44 0 -88 -29.5t-79.5 -76.5t-68 -103.5t-56 -113.5t-41.5 -104t-27 -77l-9 -29l-65 -389h-195l150 922z" />
    <glyph glyph-name="s" unicode="s" horiz-adv-x="942" 
d="M43 31q16 -6 44.5 -14.5t109 -22.5t153.5 -14q209 0 335 94t126 254q0 58 -25.5 105.5t-66 79.5t-90 59.5t-98.5 52t-89.5 49.5t-66 59.5t-25.5 75.5q0 74 53 110.5t142 36.5q39 0 72.5 -4.5t46.5 -9.5l14 -4l12 -160h133l49 277q-153 51 -303 51q-86 0 -159.5 -20
t-131 -59t-90 -103t-32.5 -146q0 -62 25 -112.5t64.5 -83.5t87.5 -60.5t96 -50.5t87.5 -46.5t64.5 -56t25 -71.5q0 -82 -61 -125t-164 -43q-26 0 -51 2.5t-43 6.5t-32 7.5t-22 6.5l-8 2v174h-133z" />
    <glyph glyph-name="t" unicode="t" horiz-adv-x="749" 
d="M90 922l23 133l204 20l41 258l203 41l-49 -299h283l-25 -153h-283l-88 -547q-12 -79 -12 -129q0 -55 18.5 -79t61.5 -24q25 0 66.5 10.5t70.5 20.5l29 10l33 -110q-17 -11 -46 -26.5t-100.5 -41.5t-122.5 -26q-207 0 -207 243q0 55 13 131l90 568h-203z" />
    <glyph glyph-name="u" unicode="u" horiz-adv-x="1302" 
d="M96 963l19 112l374 10q-78 -471 -99 -612.5t-21 -183.5q0 -135 106 -135q56 0 110 31t96 80.5t79.5 109.5t64.5 120.5t47 110t30 80.5l9 31l62 368h194l-147 -921l176 -31l-18 -113l-377 -20l84 397q-4 -11 -14 -31.5t-34 -62t-52.5 -81.5t-71.5 -85t-89 -79t-107 -56
t-124 -22q-227 0 -227 249q0 61 17.5 177t86.5 516z" />
    <glyph glyph-name="v" unicode="v" horiz-adv-x="1075" 
d="M14 963l19 112l311 10l135 -737l21 -153l338 731l-164 37l18 112l459 10l-21 -122l-102 -33l-457 -930h-221l-192 924z" />
    <glyph glyph-name="w" unicode="w" horiz-adv-x="1589" 
d="M25 963l18 112l322 10l102 -890l334 880l145 10l105 -890l301 729l-174 39l18 112l469 10l-20 -122l-101 -25l-411 -938h-236l-94 696l-27 -102l-229 -594h-232l-147 932z" />
    <glyph glyph-name="x" unicode="x" horiz-adv-x="1116" 
d="M-51 0h289l297 406l190 -406l315 20l19 113l-178 31l-197 403l287 353l176 43l20 122l-290 -10l-291 -379l-174 389l-322 -10l-18 -112l174 -41l192 -385l-284 -367l-187 -57z" />
    <glyph glyph-name="y" unicode="y" horiz-adv-x="1079" 
d="M-53 -459l41 131q81 -10 153 -10q103 0 160 55t121 203l-266 1004l-142 39l23 112l309 10l172 -751l19 -139l303 731l-154 37l19 112l450 10l-20 -122l-115 -33l-365 -862q-48 -113 -81 -185t-71 -141.5t-70.5 -108.5t-72.5 -70t-83.5 -43t-98.5 -12q-52 0 -109.5 8
t-89.5 16z" />
    <glyph glyph-name="z" unicode="z" horiz-adv-x="946" 
d="M10 0l10 143l656 789h-357l-65 -154h-133l47 307h764l-10 -133l-654 -792h385l66 168h123l-43 -328h-789z" />
    <glyph glyph-name="braceleft" unicode="{" horiz-adv-x="757" 
d="M68 532l24 144q105 0 152.5 55t64.5 158l58 350q31 191 124.5 269.5t286.5 78.5h74l-18 -133q-145 0 -202 -45t-79 -170l-59 -350q-36 -217 -226 -285q140 -57 140 -215q0 -26 -7 -70l-69 -432q-6 -41 -6 -69q0 -81 50 -113.5t171 -32.5l-23 -133h-75q-163 0 -237.5 55.5
t-74.5 184.5q0 40 10 108l70 432q6 37 6 72q0 69 -34.5 105t-120.5 36z" />
    <glyph glyph-name="bar" unicode="|" horiz-adv-x="542" 
d="M31 -471l321 2017h160l-322 -2017h-159z" />
    <glyph glyph-name="braceright" unicode="}" horiz-adv-x="768" 
d="M-78 -461l23 133q141 0 202 46t80 169l68 432q31 215 229 285q-147 58 -147 219q0 31 6 66l59 350q7 44 7 68q0 83 -49.5 115t-172.5 32l23 133h86q155 0 228 -55.5t73 -183.5q0 -41 -10 -109l-60 -350q-6 -37 -6 -68q0 -69 37.5 -107t126.5 -38l-23 -144
q-107 0 -157.5 -55.5t-65.5 -157.5l-67 -432q-30 -189 -125.5 -268.5t-280.5 -79.5h-84z" />
    <glyph glyph-name="asciitilde" unicode="~" 
d="M123 500q5 8 14.5 22t42.5 50t69.5 63t93.5 49.5t116 22.5q51 0 97.5 -15t81.5 -36t69 -42t75.5 -36t85.5 -15q49 0 100.5 30.5t77.5 60.5l27 30l84 -72q-6 -9 -16.5 -23t-44.5 -51t-70 -65t-88.5 -51t-103.5 -23q-62 0 -123 22.5t-102.5 49.5t-97.5 49.5t-108 22.5
q-31 0 -63 -12t-55 -28.5t-42 -33.5t-29 -29l-9 -12z" />
    <glyph glyph-name="uni00A0" unicode="&#xa0;" horiz-adv-x="512" 
 />
    <glyph glyph-name="cent" unicode="&#xa2;" horiz-adv-x="978" 
d="M102 594q0 -136 84.5 -237t214.5 -124l-36 -233h149l37 233q78 14 163 51t131 67l46 30l-62 102q-5 -3 -26.5 -16t-32 -18t-33 -16.5t-41.5 -17t-45 -12t-56 -9.5t-63 -3q-98 0 -161.5 67t-63.5 171q0 199 99.5 328.5t269.5 129.5q37 0 70.5 -5t47.5 -10l15 -5v-174h133
l51 276q-13 9 -36.5 22t-95.5 35.5t-142 24.5l31 181l-152 -11l-31 -184q-212 -41 -338.5 -207.5t-126.5 -435.5z" />
    <glyph glyph-name="sterling" unicode="&#xa3;" horiz-adv-x="1232" 
d="M8 0l19 123l116 31q69 18 100.5 74.5t53.5 191.5q8 46 29 266h-209l20 129l203 23q9 102 25 206q31 192 146.5 301t319.5 109q108 0 208.5 -15t146.5 -31l47 -15l-55 -351h-115l-27 236q-111 12 -221 12q-108 0 -168 -54t-76 -151l-30 -247h333l-24 -152h-322
q-18 -181 -28 -246q-9 -57 -26 -106.5t-35 -79.5t-34.5 -51.5t-26.5 -30.5l-11 -8h505l76 209h135l-61 -373h-1014z" />
    <glyph glyph-name="yen" unicode="&#xa5;" horiz-adv-x="1288" 
d="M100 1311l19 112l338 11l205 -750l344 588l-154 39l20 112l527 11l-21 -123l-170 -41l-340 -533h244l-22 -143h-904l23 143h240l-156 533zM143 317l23 144h903l-22 -144h-369l-25 -153l170 -41l-20 -123h-559l20 123l185 41l24 153h-330z" />
    <glyph glyph-name="dieresis" unicode="&#xa8;" horiz-adv-x="1054" 
d="M209 1403q0 64 36.5 108.5t94.5 44.5q44 0 69 -25t25 -69q0 -62 -38.5 -106.5t-94.5 -44.5q-43 0 -67.5 24.5t-24.5 67.5zM621 1403q0 64 36.5 108.5t94.5 44.5q44 0 69 -25t25 -69q0 -62 -38.5 -106.5t-94.5 -44.5q-43 0 -67.5 24.5t-24.5 67.5z" />
    <glyph glyph-name="copyright" unicode="&#xa9;" horiz-adv-x="1679" 
d="M92 707q0 159 57 298t155.5 237.5t237.5 155t298 56.5q213 0 383.5 -91.5t267 -257.5t96.5 -378q0 -158 -60 -297.5t-162.5 -238t-244.5 -155t-301 -56.5t-294.5 53.5t-230.5 148.5t-148.5 230.5t-53.5 294.5zM256 717q0 -263 157 -426.5t416 -163.5q261 0 427.5 164.5
t166.5 425.5t-166.5 425.5t-427.5 164.5q-259 0 -416 -163.5t-157 -426.5zM471 702q0 194 102.5 310t280.5 116q57 0 122 -16t102 -32l36 -15l-4 -217h-115l-28 139q-57 17 -127 17q-98 0 -146.5 -75t-48.5 -216q0 -133 54.5 -197.5t150.5 -64.5q49 0 104 22.5t85 44.5
l30 23l55 -95l-14 -14t-38.5 -31t-61 -39t-78 -31t-92.5 -14q-173 0 -271 98.5t-98 286.5z" />
    <glyph glyph-name="guillemotleft" unicode="&#xab;" horiz-adv-x="1105" 
d="M123 498l18 123l328 297l104 -93l-260 -274l162 -305l-115 -82zM555 498l18 123l338 297l105 -93l-271 -274l173 -305l-115 -82z" />
    <glyph glyph-name="uni00AD" unicode="&#xad;" horiz-adv-x="782" 
d="M100 471l29 174h520l-28 -174h-521z" />
    <glyph glyph-name="registered" unicode="&#xae;" horiz-adv-x="1474" 
d="M154 922q0 268 178 446t446 178q178 0 320 -75.5t223.5 -214t81.5 -314.5t-86 -319.5t-234 -224.5t-325 -81q-268 0 -436 168t-168 437zM307 932q0 -218 124 -349.5t337 -131.5q215 0 348 133t133 348t-133 348t-348 133q-213 0 -337 -131.5t-124 -349.5zM481 604v82
l82 21v475l-82 16v76l307 6q104 0 172 -49.5t68 -138.5q0 -133 -127 -181l2 -1q2 -2 5 -4.5t6.5 -6.5t8.5 -9.5t10.5 -13t12 -18t12.5 -22.5l66 -129l82 -21v-82h-176l-82 174q-33 71 -52.5 89t-60.5 18h-39v-178l82 -21v-82h-297zM696 979h72q55 0 89 27t34 75q0 45 -30 71
t-83 26h-82v-199z" />
    <glyph glyph-name="acute" unicode="&#xb4;" horiz-adv-x="487" 
d="M127 1327l422 301l88 -153l-447 -256z" />
    <glyph glyph-name="cedilla" unicode="&#xb8;" horiz-adv-x="892" 
d="M221 -401q8 -5 24.5 -13t71.5 -21.5t117 -13.5q94 0 164 61.5t70 151.5q0 58 -39.5 97t-108.5 51l15 88h-121l-27 -162q72 0 111 -23.5t39 -64.5q0 -44 -35.5 -72t-83.5 -28q-32 0 -66 8t-52 16l-17 9z" />
    <glyph glyph-name="guillemotright" unicode="&#xbb;" horiz-adv-x="1107" 
d="M92 254l270 276l-172 306l115 82l248 -334l-18 -123l-338 -297zM535 254l260 276l-162 306l115 82l237 -334l-18 -123l-328 -297z" />
    <glyph glyph-name="circumflex" unicode="&#x2c6;" horiz-adv-x="702" 
d="M0 1356l332 266l121 10l249 -276l-94 -92l-235 200l-305 -200z" />
    <glyph glyph-name="ring" unicode="&#x2da;" horiz-adv-x="798" 
d="M164 1405q0 108 81.5 191t188.5 83q83 0 141 -49.5t58 -136.5q0 -108 -82 -191t-189 -83q-86 0 -142 51t-56 135zM285 1417q0 -46 24 -71t70 -25q59 0 96 47.5t37 112.5q0 96 -92 96q-59 0 -97 -48t-38 -112z" />
    <glyph glyph-name="tilde" unicode="&#x2dc;" horiz-adv-x="780" 
d="M0 1372q5 8 13 21t35 46t54.5 58.5t69 46.5t80.5 21q47 0 92.5 -15t76 -32.5t72.5 -32.5t82 -15q22 0 45.5 9t40.5 21.5t31 25t22 21.5l7 9l59 -71q-4 -8 -11.5 -20t-32.5 -44t-51.5 -56.5t-66.5 -44.5t-79 -20q-58 0 -115 23t-109.5 45.5t-101.5 22.5q-36 0 -75 -22.5
t-60 -45.5l-21 -23z" />
    <glyph glyph-name="uni0400" unicode="&#x400;" horiz-adv-x="1236" 
d="M16 0l21 123l180 41l176 1106l-168 41l19 112l381 11h616l-55 -349h-115l-20 185h-453l-72 -441h467l-24 -163h-467l-80 -502h465l76 209h135l-64 -373h-1018zM500 1724l75 162l447 -250l-55 -112z" />
    <glyph glyph-name="afii10023" unicode="&#x401;" horiz-adv-x="1236" 
d="M16 0l21 123l180 41l176 1106l-168 41l19 112l381 11h616l-55 -349h-115l-20 185h-453l-72 -441h467l-24 -163h-467l-80 -502h465l76 209h135l-64 -373h-1018zM492 1659q0 64 36.5 108.5t94.5 44.5q44 0 69 -25t25 -69q0 -62 -38.5 -106.5t-94.5 -44.5q-43 0 -67.5 24.5
t-24.5 67.5zM903 1659q0 64 36.5 108.5t94.5 44.5q44 0 69 -25t25 -69q0 -62 -38.5 -106.5t-94.5 -44.5q-43 0 -67.5 24.5t-24.5 67.5z" />
    <glyph glyph-name="afii10051" unicode="&#x402;" horiz-adv-x="1449" 
d="M92 1065l62 369h1116l-60 -369h-131l-16 205h-283l-82 -516q127 74 203 102q98 35 189 35q141 0 211.5 -83t70.5 -226q0 -126 -21.5 -229t-68 -186.5t-128.5 -130t-193 -46.5q-41 0 -87 7.5t-72 14.5l-26 8l43 144q78 -10 123 -10q53 0 92.5 22t62 56t36 85.5t18 101.5
t4.5 113q0 175 -168 175q-47 0 -101.5 -18t-101.5 -47t-71 -45.5t-43 -31.5l-90 -565h-412l22 123l209 41l176 1106h-268l-82 -205h-133z" />
    <glyph glyph-name="afii10052" unicode="&#x403;" horiz-adv-x="1062" 
d="M0 0l18 123l177 41l172 1106l-164 41l18 112l387 11h582l-55 -369h-131l-19 205h-412l-172 -1106l205 -41l-18 -123h-588zM596 1636l444 248l76 -162l-467 -194z" />
    <glyph glyph-name="afii10053" unicode="&#x404;" horiz-adv-x="1308" 
d="M123 494q0 213 60.5 394t165.5 304.5t248.5 192.5t307.5 69q91 0 196 -25.5t165 -50.5l59 -26l-61 -328h-150l-12 215q-2 1 -21.5 7t-29.5 9t-34.5 8.5t-45 8.5t-51.5 5.5t-64 2.5q-170 0 -289 -118.5t-178 -344.5h602l-28 -164h-605q-8 -78 -8 -110q0 -182 90 -280.5
t246 -98.5q69 0 134 13t120.5 37t90.5 43t77 46l66 -123q-33 -28 -81.5 -58.5t-117.5 -64.5t-155 -55.5t-169 -21.5q-248 0 -388 135t-140 379z" />
    <glyph glyph-name="afii10054" unicode="&#x405;" horiz-adv-x="1183" 
d="M68 61q20 -9 55.5 -22.5t136.5 -36t191 -22.5q110 0 211 32.5t182.5 94t130.5 160.5t49 222q0 78 -32 138.5t-83 98t-112.5 67t-123 55t-112.5 53t-83 69t-32 95.5q0 91 77 153t204 62q43 0 93 -9t79 -19l29 -9l28 -219h115l66 348q-23 9 -61 22.5t-138 36.5t-178 23
q-102 0 -194.5 -27.5t-169.5 -81.5t-123 -145t-46 -207q0 -84 32 -148t83 -102.5t112.5 -69t123 -55.5t112.5 -52t83 -68.5t32 -96.5q0 -77 -51 -135t-123.5 -85t-149.5 -27q-54 0 -107.5 11t-80.5 21l-27 11l-6 223h-135z" />
    <glyph glyph-name="afii10055" unicode="&#x406;" horiz-adv-x="743" 
d="M6 0l21 123l184 41l176 1106l-172 41l18 112l560 11l-21 -123l-180 -41l-178 -1106l172 -41l-21 -123h-559z" />
    <glyph glyph-name="afii10056" unicode="&#x407;" horiz-adv-x="743" 
d="M6 0l21 123l184 41l176 1106l-172 41l18 112l560 11l-21 -123l-180 -41l-178 -1106l172 -41l-21 -123h-559zM256 1659q0 64 36.5 108.5t94.5 44.5q44 0 69 -25t25 -69q0 -62 -38.5 -106.5t-94.5 -44.5q-43 0 -67.5 24.5t-24.5 67.5zM668 1659q0 64 36.5 108.5t94.5 44.5
q44 0 69 -25t25 -69q0 -62 -38.5 -106.5t-94.5 -44.5q-43 0 -67.5 24.5t-24.5 67.5z" />
    <glyph glyph-name="afii10057" unicode="&#x408;" horiz-adv-x="710" 
d="M-174 -297l43 154h100q181 0 213 194l195 1219l-174 41l18 112l559 11l-20 -123l-178 -41l-189 -1178q-29 -186 -145 -292.5t-295 -106.5q-22 0 -53.5 2.5t-52.5 4.5z" />
    <glyph glyph-name="afii10058" unicode="&#x409;" horiz-adv-x="1880" 
d="M-74 16l68 220q46 -11 86 -11q92 0 155 80.5t109 257.5q88 332 160 707l-246 41l18 123h1205l-21 -123l-207 -41l-67 -430h182q218 0 338.5 -73t120.5 -243q0 -130 -43.5 -231t-121.5 -164.5t-181.5 -96t-227.5 -32.5h-587l18 123l195 41l176 1106h-391
q-91 -468 -158 -725q-20 -76 -34 -124.5t-33.5 -108t-37.5 -96.5t-42.5 -78t-51.5 -65t-61 -44.5t-75.5 -29.5t-90.5 -9q-71 0 -154 26zM1075 164h213q143 0 233.5 84t90.5 231q0 60 -22 102t-62.5 64t-88.5 31.5t-110 9.5h-172z" />
    <glyph glyph-name="afii10059" unicode="&#x40a;" horiz-adv-x="2045" 
d="M-4 0l20 123l177 39l178 1108l-168 41l18 112l563 11l-20 -123l-189 -41l-71 -441h667l70 441l-186 41l18 112l594 11l-20 -123l-207 -41l-70 -441h182q105 0 186 -16t144 -50.5t96.5 -94.5t34.5 -144q1 -129 -42 -230.5t-121 -165t-182 -96t-228 -32.5h-570l19 123
l176 41l80 502h-668l-80 -502l178 -41l-20 -123h-559zM1262 164h213q144 0 234 84t89 231q-3 197 -285 197h-172z" />
    <glyph glyph-name="afii10060" unicode="&#x40b;" horiz-adv-x="1546" 
d="M92 1065l60 369h1128l-57 -369h-131l-17 205h-303l-86 -535q37 28 52.5 39.5t64 41t85.5 44t95.5 28t116.5 13.5q168 0 236 -98t38 -271l-63 -368l143 -51l-18 -113h-510l18 113l158 49l55 340q35 215 -149 215q-66 0 -130 -21t-110 -51.5t-71 -52t-38 -35.5l-63 -393
l154 -41l-19 -123h-567l20 123l207 41l176 1106h-260l-84 -205h-131z" />
    <glyph glyph-name="afii10061" unicode="&#x40c;" horiz-adv-x="1329" 
d="M6 0l21 123l180 41l178 1106l-172 41l18 112l562 11l-21 -123l-182 -41l-74 -451h189l442 604l303 11l-20 -123l-175 -41l-387 -518l322 -588l145 -41l-20 -123h-533l21 123l162 39l-267 493h-209l-77 -491l174 -41l-21 -123h-559zM721 1636l444 248l76 -162l-467 -194z
" />
    <glyph glyph-name="uni040D" unicode="&#x40d;" horiz-adv-x="1619" 
d="M-4 0l20 123l177 39l178 1108l-168 41l18 112l563 11l-20 -123l-189 -41l-131 -811l818 733l12 78l-187 41l19 112l571 11l-20 -123l-178 -41l-179 -1106l173 -41l-21 -123h-569l20 123l193 39l131 809l-817 -729l-13 -78l178 -41l-20 -123h-559zM680 1724l76 162
l446 -250l-55 -112z" />
    <glyph glyph-name="afii10062" unicode="&#x40e;" horiz-adv-x="1300" 
d="M80 33l65 153q94 -32 177 -32q127 0 219 139l-316 977l-133 41l17 112l530 11l-18 -123l-185 -41l234 -754l409 754l-178 41l21 112l503 11l-18 -123l-137 -41l-461 -840q-128 -230 -254.5 -340t-239.5 -110q-68 0 -132.5 17t-102.5 36zM469 1817l197 47
q15 -86 54.5 -127t108.5 -41q128 0 222 168l79 -54q-58 -111 -153 -182.5t-211 -71.5q-125 0 -202.5 66t-94.5 195z" />
    <glyph glyph-name="afii10145" unicode="&#x40f;" horiz-adv-x="1499" 
d="M-4 0l20 123l177 41l178 1106l-164 41l22 112l570 11l-23 -123l-196 -41l-177 -1106h570l176 1106l-182 41l20 112l572 11l-23 -123l-176 -41l-178 -1106l164 -41l-21 -123h-567l-101 -358h-120l10 358h-551z" />
    <glyph glyph-name="afii10017" unicode="&#x410;" horiz-adv-x="1458" 
d="M-74 0l19 123l174 41l655 1259l203 11l246 -1276l139 -35l-21 -123h-542l18 123l176 41l-41 225h-522l-113 -227l172 -39l-20 -123h-543zM510 553h414l-105 616z" />
    <glyph glyph-name="afii10018" unicode="&#x411;" horiz-adv-x="1239" 
d="M0 0l18 123l177 41l172 1106l-164 41l18 112l387 11h592l-55 -369h-131l-19 205h-422l-73 -471h184q227 0 347 -71t120 -236q0 -125 -43 -220.5t-121 -153.5t-178 -87t-221 -31h-588zM401 164h211q144 0 233 70.5t89 211.5q0 109 -74.5 152t-212.5 43h-172z" />
    <glyph glyph-name="afii10019" unicode="&#x412;" horiz-adv-x="1288" 
d="M-4 0l20 123l183 41l174 1106l-166 41l18 112l379 11h213q172 0 286 -80.5t114 -233.5q0 -83 -29 -151t-78 -112.5t-102 -72.5t-111 -41q270 -61 270 -276q0 -112 -42.5 -201.5t-117 -147t-175 -88t-218.5 -30.5h-618zM403 164h191q167 0 260.5 81.5t93.5 200.5
q0 121 -76.5 170.5t-236.5 49.5h-154zM506 819h149q55 0 110 13t110 42.5t89.5 87.5t34.5 138q0 81 -55.5 125.5t-146.5 44.5h-219z" />
    <glyph glyph-name="afii10020" unicode="&#x413;" horiz-adv-x="1062" 
d="M0 0l18 123l177 41l172 1106l-164 41l18 112l387 11h582l-55 -369h-131l-19 205h-412l-172 -1106l205 -41l-18 -123h-588z" />
    <glyph glyph-name="afii10021" unicode="&#x414;" horiz-adv-x="1423" 
d="M-133 -358l86 491q74 20 124.5 47t84 55t61.5 87.5t45 109.5t47 156q35 122 63.5 240t44.5 196.5t48 245.5l-205 41l23 123h1161l-16 -123l-174 -41l-173 -1106l226 -37l-74 -485h-121l-35 358h-944l-153 -358h-119zM299 164h578l172 1106h-400q-56 -286 -157 -686
q-41 -158 -85.5 -259t-107.5 -161z" />
    <glyph glyph-name="afii10022" unicode="&#x415;" horiz-adv-x="1236" 
d="M16 0l21 123l180 41l176 1106l-168 41l19 112l381 11h616l-55 -349h-115l-20 185h-453l-72 -441h467l-24 -163h-467l-80 -502h465l76 209h135l-64 -373h-1018z" />
    <glyph glyph-name="afii10024" unicode="&#x416;" horiz-adv-x="1914" 
d="M-158 0l19 123l180 41l483 588l-205 518l-196 41l18 123l330 -11l234 -604h198l72 451l-168 41l18 112l564 11l-19 -123l-201 -41l-71 -451h196l432 604l326 11l-18 -123l-209 -41l-375 -518l311 -588l158 -41l-18 -123h-562l19 123l180 41l-260 491h-207l-78 -491
l158 -41l-18 -123h-502l18 123l150 41l100 633l-22 -142h-203l-398 -491l168 -41l-18 -123h-584z" />
    <glyph glyph-name="afii10025" unicode="&#x417;" horiz-adv-x="1163" 
d="M16 74l74 166q2 -1 30 -11t33.5 -12t32.5 -11t36.5 -11.5t35 -10t39 -10.5t37 -8t40.5 -7t38 -3.5t41 -1.5q157 0 262.5 82.5t105.5 212.5q0 111 -74.5 164t-230.5 53h-192l26 163h180q99 0 173.5 24.5t115.5 66t60.5 89t19.5 101.5q0 79 -63 124.5t-195 45.5
q-64 0 -125.5 -8t-91.5 -16l-29 -9l-49 -203h-164l43 336q26 8 70.5 20.5t164.5 33t220 20.5q208 0 323 -77t115 -222q0 -318 -346 -401q139 -27 205.5 -101.5t66.5 -179.5q0 -216 -174 -354.5t-450 -138.5q-211 0 -404 94z" />
    <glyph glyph-name="afii10026" unicode="&#x418;" horiz-adv-x="1619" 
d="M-4 0l20 123l177 39l178 1108l-168 41l18 112l563 11l-20 -123l-189 -41l-131 -811l818 733l12 78l-187 41l19 112l571 11l-20 -123l-178 -41l-179 -1106l173 -41l-21 -123h-569l20 123l193 39l131 809l-817 -729l-13 -78l178 -41l-20 -123h-559z" />
    <glyph glyph-name="afii10027" unicode="&#x419;" horiz-adv-x="1619" 
d="M-4 0l20 123l177 39l178 1108l-168 41l18 112l563 11l-20 -123l-189 -41l-131 -811l818 733l12 78l-187 41l19 112l571 11l-20 -123l-178 -41l-179 -1106l173 -41l-21 -123h-569l20 123l193 39l131 809l-817 -729l-13 -78l178 -41l-20 -123h-559zM700 1827l197 47
q15 -86 55 -127t109 -41q127 0 221 168l80 -53q-58 -111 -153.5 -182.5t-211.5 -71.5q-125 0 -202.5 66t-94.5 194z" />
    <glyph glyph-name="afii10028" unicode="&#x41a;" horiz-adv-x="1329" 
d="M6 0l21 123l180 41l178 1106l-172 41l18 112l562 11l-21 -123l-182 -41l-74 -451h189l442 604l303 11l-20 -123l-175 -41l-387 -518l322 -588l145 -41l-20 -123h-533l21 123l162 39l-267 493h-209l-77 -491l174 -41l-21 -123h-559z" />
    <glyph glyph-name="afii10029" unicode="&#x41b;" horiz-adv-x="1388" 
d="M-94 16l67 220q46 -11 86 -11q92 0 155.5 80.5t109.5 257.5q84 318 159 707l-245 41l18 123h1190l-19 -123l-174 -41l-178 -1106l164 -41l-22 -123h-564l19 123l194 41l178 1106h-401q-91 -468 -158 -725q-20 -76 -34 -124.5t-33.5 -108t-37.5 -96.5t-42.5 -78t-51.5 -65
t-61 -44.5t-75.5 -29.5t-90.5 -9q-70 0 -153 26z" />
    <glyph glyph-name="afii10030" unicode="&#x41c;" horiz-adv-x="1781" 
d="M-4 0h551l20 123l-180 41l158 983l231 -789l168 11l479 770l-155 -975l-172 -41l-21 -123h539l20 123l-164 41l175 1106l174 41l20 123l-428 -11l-500 -811l-243 822l-445 -11l-18 -112l170 -41l-178 -1106l-181 -41z" />
    <glyph glyph-name="afii10031" unicode="&#x41d;" horiz-adv-x="1587" 
d="M-4 0l20 123l177 39l178 1108l-168 41l18 112l563 11l-20 -123l-189 -41l-73 -451h667l72 451l-186 41l18 112l572 11l-21 -123l-178 -41l-178 -1106l172 -41l-21 -123h-569l20 123l193 39l80 493h-668l-78 -491l178 -41l-20 -123h-559z" />
    <glyph glyph-name="afii10032" unicode="&#x41e;" horiz-adv-x="1505" 
d="M119 479q0 -232 132 -365.5t361 -133.5q175 0 327 68.5t263 192.5t174.5 307.5t63.5 403.5q0 226 -137 364t-381 138q-170 0 -318 -71.5t-255 -198.5t-168.5 -309.5t-61.5 -395.5zM344 500q0 210 66 387t191.5 285t285.5 108q153 0 240 -86.5t87 -267.5q0 -217 -70 -393
t-198 -277.5t-289 -101.5q-147 0 -230 88.5t-83 257.5z" />
    <glyph glyph-name="afii10033" unicode="&#x41f;" horiz-adv-x="1517" 
d="M-4 0l20 123l177 41l178 1106l-164 41l18 112l379 11h981l-16 -123l-174 -41l-178 -1106l163 -41l-22 -123h-570l23 123l195 41l178 1106h-602l-179 -1106l183 -41l-21 -123h-569z" />
    <glyph glyph-name="afii10034" unicode="&#x420;" horiz-adv-x="1169" 
d="M-4 0l20 123l179 41l176 1106l-166 41l18 112l379 11h215q75 0 141.5 -16t127.5 -51.5t97 -102t36 -158.5q0 -130 -38.5 -232.5t-100 -165t-145.5 -103.5t-167.5 -57t-173.5 -16h-135l-60 -370l176 -39l-20 -123h-559zM483 696h138q106 0 183.5 30.5t119.5 84t61 116
t19 136.5q0 61 -23 104.5t-60 64t-71.5 29.5t-69.5 9h-205z" />
    <glyph glyph-name="afii10035" unicode="&#x421;" horiz-adv-x="1306" 
d="M123 500q0 -239 136 -379.5t372 -140.5q96 0 191.5 24.5t172 64.5t121.5 69.5t84 60.5l-74 120q-32 -24 -72.5 -46.5t-100 -49t-133.5 -43t-148 -16.5q-146 0 -235 103t-89 272q0 142 38.5 275.5t106.5 237t170.5 166t221.5 62.5q147 0 274 -51l25 -225h119l55 348
q-8 4 -23.5 11t-63.5 24.5t-96.5 31t-117 24.5t-131.5 11q-171 0 -319.5 -70.5t-255 -195.5t-167.5 -303t-61 -385z" />
    <glyph glyph-name="afii10036" unicode="&#x422;" horiz-adv-x="1124" 
d="M92 1065l62 369h1101l-59 -369h-131l-21 205h-264l-176 -1106l197 -41l-21 -123h-612l20 123l211 41l176 1106h-266l-84 -205h-133z" />
    <glyph glyph-name="afii10037" unicode="&#x423;" horiz-adv-x="1300" 
d="M80 33l65 153q94 -32 177 -32q127 0 219 139l-316 977l-133 41l17 112l530 11l-18 -123l-185 -41l234 -754l409 754l-178 41l21 112l503 11l-18 -123l-137 -41l-461 -840q-128 -230 -254.5 -340t-239.5 -110q-68 0 -132.5 17t-102.5 36z" />
    <glyph glyph-name="afii10038" unicode="&#x424;" horiz-adv-x="1761" 
d="M125 637q0 277 202 446.5t572 192.5l10 72l-164 38l15 113l522 10l-18 -123l-177 -38l-10 -70q609 -18 609 -461q0 -273 -209.5 -440t-567.5 -189l-10 -67l164 -39l-16 -123h-521l19 123l176 39l10 65q-307 9 -456.5 115.5t-149.5 335.5zM346 682q0 -178 97 -255.5
t311 -86.5l120 784q-265 -15 -396.5 -121t-131.5 -321zM932 340q126 7 221 34t153 66t93.5 94t49 111.5t13.5 124.5q0 183 -95.5 264t-313.5 90z" />
    <glyph glyph-name="afii10039" unicode="&#x425;" 
d="M-113 0h543l21 123l-129 37l315 403l192 -413l-131 -27l-20 -123h547l20 123l-178 41l-283 577l422 525l219 45l21 123l-543 -11l-20 -112l108 -29l-305 -387l-178 383l129 33l20 123l-546 -11l-21 -112l172 -39l273 -553l-437 -557l-190 -39z" />
    <glyph glyph-name="afii10040" unicode="&#x426;" horiz-adv-x="1536" 
d="M4 0l12 123l177 41l178 1106l-164 41l18 112l570 11l-19 -123l-196 -41l-177 -1106h590l176 1106l-182 41l17 112l569 11l-17 -123l-176 -41l-178 -1106l225 -37l-75 -485h-121l-33 358h-1194z" />
    <glyph glyph-name="afii10041" unicode="&#x427;" horiz-adv-x="1366" 
d="M131 1311l19 112l518 11l-17 -123l-166 -39l-45 -279q-27 -162 20 -229.5t165 -67.5q89 0 176.5 18t134.5 34l84 522l-160 41l19 112l546 11l-20 -123l-180 -41l-178 -1106l172 -41l-21 -123h-604l20 123l230 41l65 407q-180 -59 -352 -59q-402 0 -330 461l47 297z" />
    <glyph glyph-name="afii10042" unicode="&#x428;" horiz-adv-x="2078" 
d="M-4 0l22 123l177 41l178 1106l-164 41l20 112l531 11l-23 -123l-155 -41l-179 -1106h469l179 1106l-144 41l23 112l510 11l-23 -123l-155 -41l-179 -1106h469l179 1106l-144 41l21 112l530 11l-22 -123l-177 -41l-178 -1106l164 -41l-20 -123h-1909z" />
    <glyph glyph-name="afii10043" unicode="&#x429;" horiz-adv-x="2119" 
d="M-4 0l20 123l177 41l178 1106l-164 41l20 112l531 11l-23 -123l-155 -41l-179 -1106h469l179 1106l-144 41l23 112l510 11l-23 -123l-155 -41l-179 -1106h469l179 1106l-144 41l21 112l530 11l-22 -123l-177 -41l-178 -1106l244 -41l-68 -481h-118l-48 358h-1773z" />
    <glyph glyph-name="afii10044" unicode="&#x42a;" horiz-adv-x="1382" 
d="M92 1065l62 369h815l-23 -123l-205 -41l-69 -430h186q106 0 187 -16t144 -52t96.5 -99t33.5 -151q0 -129 -44 -229.5t-122.5 -164t-182.5 -96t-227 -32.5h-602l21 123l194 41l179 1106h-226l-86 -205h-131zM563 164h213q146 0 236 84t90 233q0 59 -22 100.5t-62.5 63.5
t-88 31.5t-108.5 9.5h-174z" />
    <glyph glyph-name="afii10045" unicode="&#x42b;" horiz-adv-x="1832" 
d="M-2 0l18 123l177 41l176 1106l-164 41l20 123h570l-21 -123l-207 -41l-67 -430h182q218 0 338.5 -73t120.5 -243q0 -130 -43.5 -231t-121.5 -164.5t-181.5 -96t-227.5 -32.5h-569zM389 164h213q143 0 233.5 84t90.5 231q0 60 -22 102t-62.5 64t-88.5 31.5t-110 9.5h-172z
M1106 0l20 123l185 41l176 1106l-172 41l18 112l559 11l-20 -123l-180 -41l-179 -1106l173 -41l-21 -123h-559z" />
    <glyph glyph-name="afii10046" unicode="&#x42c;" horiz-adv-x="1173" 
d="M-2 0l18 123l177 41l176 1106l-164 41l20 123h570l-21 -123l-207 -41l-67 -430h182q218 0 338.5 -73t120.5 -243q0 -130 -43.5 -231t-121.5 -164.5t-181.5 -96t-227.5 -32.5h-569zM389 164h213q143 0 233.5 84t90.5 231q0 60 -22 102t-62.5 64t-88.5 31.5t-110 9.5h-172z
" />
    <glyph glyph-name="afii10047" unicode="&#x42d;" horiz-adv-x="1308" 
d="M18 180l111 121q3 -2 19 -15t24.5 -19t27.5 -19.5t34 -21t38.5 -18.5t46.5 -17.5t51.5 -13.5t60.5 -10t67 -3q96 0 179 39t143 107t102 155t65 188h-588l29 164h584q2 23 2 66q0 196 -91 297.5t-247 101.5q-125 0 -250 -41l-74 -217h-151l43 326q0 -1 69 23.5t189 52.5
t223 28q254 0 385 -131.5t131 -388.5q0 -211 -63 -392t-169.5 -303t-248.5 -190.5t-299 -68.5q-47 0 -92 7.5t-80 18t-70.5 27.5t-59 31t-50 35t-39.5 32t-31 29t-21 20z" />
    <glyph glyph-name="afii10048" unicode="&#x42e;" horiz-adv-x="2105" 
d="M-4 0l20 123l177 39l178 1108l-168 41l18 112l563 11l-20 -123l-189 -41l-73 -451h252q80 291 284 463t473 172q244 0 381.5 -138t137.5 -364q0 -220 -63.5 -403.5t-174.5 -307.5t-263 -192.5t-327 -68.5q-229 0 -361 133.5t-132 365.5q0 81 10 176h-244l-78 -491
l178 -41l-20 -123h-559zM934 500q0 -169 83 -257.5t230 -88.5q161 0 289 101.5t198 277.5t70 393q0 181 -87 267.5t-240 86.5q-160 0 -285.5 -108t-191.5 -285t-66 -387z" />
    <glyph glyph-name="afii10049" unicode="&#x42f;" horiz-adv-x="1292" 
d="M-96 0l18 123l164 33l203 284q107 148 200 189q-52 15 -95.5 39t-83.5 62.5t-62.5 97.5t-22.5 133q0 233 146 353t383 120h596l-21 -123l-178 -41l-176 -1106l168 -41l-19 -123h-555l19 123l180 41l68 430h-113q-72 0 -133 -50.5t-156 -195.5l-225 -348h-305zM436 967
q0 -219 312 -219h112l82 522h-213q-130 0 -211.5 -78.5t-81.5 -224.5z" />
    <glyph glyph-name="afii10065" unicode="&#x430;" horiz-adv-x="1214" 
d="M63 338q0 146 34 272t92.5 216t136.5 154t166.5 95t181.5 31q59 0 116.5 -15.5t85.5 -30.5l27 -16l62 41h112l-147 -921l178 -31l-18 -113l-381 -20l82 377q-7 -14 -15.5 -30.5t-34 -58.5t-52 -78.5t-68 -80.5t-83.5 -75t-96.5 -52.5t-109.5 -21.5q-116 0 -192.5 102
t-76.5 256zM268 369q0 -104 34.5 -159.5t90.5 -55.5q50 0 100.5 30.5t91 79.5t78 107.5t65 117.5t48 108t30.5 79l11 31l41 215q-78 30 -184 30q-60 0 -117 -21t-110 -67t-92.5 -112.5t-63 -165t-23.5 -217.5z" />
    <glyph glyph-name="afii10066" unicode="&#x431;" horiz-adv-x="1198" 
d="M143 381q0 121 16 243t57.5 257t104.5 247t165.5 204.5t232.5 137.5q60 21 144.5 43.5t184.5 46.5t142 35l43 -159q-34 -9 -128.5 -31.5t-175 -45t-163.5 -50.5q-132 -45 -235.5 -151.5t-161.5 -262.5q72 82 167 131t205 49q184 0 284.5 -107.5t100.5 -291.5
q0 -147 -47.5 -277.5t-128.5 -221.5t-191.5 -144t-232.5 -53q-185 0 -284 104t-99 297zM336 420q0 -129 54.5 -203t170.5 -74q161 0 257.5 136.5t96.5 377.5q0 118 -52.5 186t-166.5 68q-183 0 -271.5 -127t-88.5 -364z" />
    <glyph glyph-name="afii10067" unicode="&#x432;" horiz-adv-x="1032" 
d="M68 399q0 128 43 253.5t120 226.5t194.5 164t254.5 63q145 0 220 -65.5t75 -163.5q0 -90 -62 -170.5t-168 -141.5q83 -22 122.5 -71.5t39.5 -133.5q0 -107 -66.5 -196t-169.5 -136.5t-214 -47.5q-187 0 -288 114.5t-101 304.5zM272 356q0 -109 57.5 -171t166.5 -62
q93 0 157 62.5t64 154.5q0 78 -60 113q-20 11 -57 12t-78 -5t-112 -12t-136 -6q-2 -29 -2 -86zM291 571q241 3 365 76t124 172q0 63 -38.5 99t-112.5 36q-125 0 -213.5 -102t-124.5 -281z" />
    <glyph glyph-name="afii10068" unicode="&#x433;" horiz-adv-x="976" 
d="M74 264q0 64 26 119t69 94t98 74.5t112 61.5t112 54.5t98 54t69 60t26 72.5q0 45 -32 73.5t-79 28.5q-64 0 -149.5 -26.5t-139.5 -53.5l-53 -26l-61 102q237 154 424 154q131 0 210 -74.5t79 -197.5q0 -73 -33.5 -133.5t-87.5 -102t-118.5 -77t-129.5 -65.5t-119 -60
t-87.5 -67.5t-33.5 -80.5q0 -57 48.5 -86t117.5 -29q68 0 149 23.5t128 47.5l47 23l61 -100q-236 -147 -415 -147q-149 0 -242.5 69.5t-93.5 214.5z" />
    <glyph glyph-name="afii10069" unicode="&#x434;" horiz-adv-x="1120" 
d="M66 408q0 92 20.5 187t64.5 185t105.5 160.5t150 113t191.5 42.5q199 0 295 -168q-5 260 -80 385t-244 125q-51 0 -188 -19l-8 144q143 26 231 26q217 0 340 -163.5t123 -503.5q0 -91 -9.5 -181.5t-32.5 -184.5t-57 -177t-85.5 -157t-116 -127t-152 -84t-188.5 -31
q-160 0 -260 111.5t-100 316.5zM270 418q0 -275 205 -275q69 0 128.5 29.5t102.5 79t74.5 114.5t46.5 136.5t15 144.5q0 150 -63 220.5t-167 70.5q-88 0 -157 -49.5t-107.5 -128.5t-58 -166.5t-19.5 -175.5z" />
    <glyph glyph-name="afii10070" unicode="&#x435;" horiz-adv-x="1015" 
d="M61 348q0 156 47 297t126.5 241.5t189 160t229.5 59.5q155 0 246.5 -72t91.5 -194q0 -117 -91 -207t-254.5 -139.5t-373.5 -49.5q-6 -47 -6 -88q0 -109 55.5 -161t170.5 -52q67 0 150.5 23.5t133.5 46.5l51 23l62 -105q-9 -6 -25 -16.5t-66.5 -36.5t-102 -45.5
t-124.5 -36t-141 -16.5q-169 0 -269 99.5t-100 268.5zM291 588q219 0 362.5 65t143.5 166q0 133 -154 133q-113 0 -213 -102t-139 -262z" />
    <glyph glyph-name="afii10072" unicode="&#x436;" horiz-adv-x="1757" 
d="M-63 23l47 264h116l4 -133q42 -11 86 -11q74 0 139.5 83.5t102.5 213.5t37 267q0 141 -20.5 193t-92.5 52q-80 0 -219 -71l-53 96q43 28 63.5 40t71 38.5t100 38.5t99.5 12q57 0 98.5 -19.5t66.5 -51t39.5 -81t19.5 -100t5 -117.5q0 -48 -2 -71h160l67 409l179 10
l-68 -419h160q64 198 191.5 319t256.5 121q71 0 137 -15.5t93 -27.5l-47 -264h-117l-4 133q-38 10 -86 10q-75 0 -144 -83t-110 -213.5t-41 -266.5q0 -135 27.5 -190.5t101.5 -55.5q38 0 85 14.5t69 25t65 32.5l53 -96q-43 -28 -63.5 -40t-71 -38.5t-100 -38.5t-99.5 -12
q-71 0 -120.5 28t-75.5 80t-37.5 115t-11.5 145q0 88 12 164h-148l-84 -512h-180l84 512h-153q-25 -118 -74.5 -219t-111.5 -169t-133 -106t-140 -38q-71 0 -136.5 15.5t-92.5 27.5z" />
    <glyph glyph-name="afii10073" unicode="&#x437;" horiz-adv-x="948" 
d="M-10 70l69 139q123 -66 273 -66q122 0 202 51t80 150q0 77 -63.5 117.5t-181.5 40.5h-136l23 143h141q271 0 271 193q0 57 -55 85.5t-138 28.5q-98 0 -186 -32l-33 -142h-117l17 248q200 78 372 78q157 0 249.5 -64.5t92.5 -167.5q0 -117 -69.5 -194t-198.5 -105
q107 -22 164 -76t57 -132q0 -96 -44 -170.5t-117.5 -118.5t-161 -66t-183.5 -22q-203 0 -327 82z" />
    <glyph glyph-name="afii10074" unicode="&#x438;" horiz-adv-x="1302" 
d="M96 963l19 112l374 10l-112 -706q-8 -66 -8 -90q0 -135 106 -135q56 0 110 31t96 80.5t79.5 109.5t64.5 120.5t47 110t30 80.5l9 31l62 368h194l-147 -921l176 -31l-18 -113l-377 -20l84 397q-4 -11 -14 -31.5t-34 -62t-52.5 -81.5t-71.5 -85t-89 -79t-107 -56t-124 -22
q-227 0 -227 249q0 47 10 119l94 574z" />
    <glyph glyph-name="afii10075" unicode="&#x439;" horiz-adv-x="1302" 
d="M96 963l19 112l374 10l-112 -706q-8 -66 -8 -90q0 -135 106 -135q56 0 110 31t96 80.5t79.5 109.5t64.5 120.5t47 110t30 80.5l9 31l62 368h194l-147 -921l176 -31l-18 -113l-377 -20l84 397q-4 -11 -14 -31.5t-34 -62t-52.5 -81.5t-71.5 -85t-89 -79t-107 -56t-124 -22
q-227 0 -227 249q0 47 10 119l94 574zM461 1530l196 47q15 -86 55 -127t109 -41q127 0 221 168l80 -53q-58 -111 -153 -182.5t-211 -71.5q-125 0 -202.5 66t-94.5 194z" />
    <glyph glyph-name="afii10076" unicode="&#x43a;" horiz-adv-x="1128" 
d="M106 963l19 112l375 10l-68 -411h172l201 266l-88 23l16 112l441 10l-21 -122l-154 -27l-262 -322l189 -450l166 -51l-21 -113h-283l-204 522h-174l-82 -522h-195l148 922z" />
    <glyph glyph-name="afii10077" unicode="&#x43b;" horiz-adv-x="1132" 
d="M-96 -4l49 190q27 -6 55 -6q99 0 165 83.5t118 279.5q43 171 86 379l-195 41l23 122h825l-151 -921l145 -51l-23 -113h-348l150 922h-275q-34 -169 -88 -394q-67 -278 -160 -413t-247 -135q-55 0 -129 16z" />
    <glyph glyph-name="afii10078" unicode="&#x43c;" horiz-adv-x="1660" 
d="M-76 -4l49 190q27 -6 64 -6q105 0 165 112q50 95 101 354q9 46 28 147q16 84 25 129l-194 41l20 112l430 10l185 -780l442 770l285 10l-154 -921l162 -51l-19 -113h-358l145 874l-522 -874l-102 -10l-193 813q-60 -310 -73 -363q-63 -270 -158 -373q-80 -87 -199 -87
q-55 0 -129 16z" />
    <glyph glyph-name="afii10079" unicode="&#x43d;" horiz-adv-x="1288" 
d="M106 963l19 112l373 10l-70 -440h469l64 430l204 10l-147 -921l164 -31l-19 -113l-368 -20l75 492h-469l-75 -492h-201l145 922z" />
    <glyph glyph-name="afii10080" unicode="&#x43e;" horiz-adv-x="1126" 
d="M70 385q0 -185 101 -295t275 -110q131 0 243.5 50.5t194 142.5t127.5 228.5t46 300.5q0 181 -100.5 292.5t-284.5 111.5q-266 0 -434 -200t-168 -521zM274 379q0 153 39 278t123 205t199 80q100 0 159.5 -56t59.5 -179q0 -165 -42.5 -291.5t-127.5 -199.5t-201 -73
q-97 0 -153 58.5t-56 177.5z" />
    <glyph glyph-name="afii10081" unicode="&#x43f;" horiz-adv-x="1298" 
d="M106 963l19 112l375 10l-92 -397q6 13 14.5 31t34 61.5t53.5 82.5t72 85t90.5 79.5t107.5 56t125 22.5q228 0 228 -252q0 -42 -11 -117l-94 -573l174 -31l-18 -113l-377 -20l115 707q8 62 8 90q0 135 -107 135q-54 0 -107.5 -31t-96 -80.5t-80.5 -109.5t-65.5 -120.5
t-48 -110t-30.5 -80.5l-10 -31l-59 -369h-195l148 922z" />
    <glyph glyph-name="afii10082" unicode="&#x440;" horiz-adv-x="1208" 
d="M41 -471l223 1393l-168 41l19 112l370 10l-82 -376q6 17 22 51t58 97.5t92 116t127.5 92.5t161.5 40q87 0 149.5 -52.5t92 -134.5t29.5 -182q0 -170 -51 -314.5t-137 -240t-197.5 -149t-233.5 -53.5q-113 0 -201 49l-53 -336l156 -51l-21 -113h-356zM338 164
q86 -31 188 -31q67 0 135.5 35.5t129.5 103t100 181.5t39 254q0 95 -34 160t-103 65q-52 0 -103 -30.5t-91 -79.5t-76 -107.5t-62 -117.5t-44.5 -108t-28.5 -79l-9 -31z" />
    <glyph glyph-name="afii10083" unicode="&#x441;" horiz-adv-x="931" 
d="M68 358q0 -179 99.5 -278.5t258.5 -99.5q57 0 120.5 16t113 38t90.5 44.5t64 38.5l22 16l-62 103q-18 -10 -49.5 -25.5t-112.5 -41.5t-145 -26q-94 0 -144.5 56.5t-50.5 169.5q0 151 42.5 280t128.5 211t198 82q37 0 70.5 -5t48.5 -10l14 -5l6 -174h133l45 276
q-5 3 -14 8.5t-39 20t-61.5 25t-78.5 19.5t-93 9q-173 0 -310 -92t-215.5 -263t-78.5 -393z" />
    <glyph glyph-name="afii10084" unicode="&#x442;" horiz-adv-x="1929" 
d="M106 963l19 112l373 10l-88 -397q4 10 12.5 30.5t30.5 62t48.5 82t67.5 86t85.5 79t104.5 56t124 22.5q117 0 168 -64t51 -186q0 -52 -10 -127q19 46 41.5 88t64 97.5t87.5 95.5t112.5 68t140.5 28q225 0 225 -252q0 -49 -10 -117l-94 -573l174 -31l-18 -113l-377 -20
l116 707q9 70 9 88q0 137 -107 137q-53 0 -105.5 -32t-93 -83t-77.5 -112.5t-63 -123t-45 -112.5t-28 -83l-10 -32l-55 -354h-195l115 707q8 62 8 90q0 135 -106 135q-53 0 -104 -31t-91.5 -80.5t-76.5 -109.5t-61.5 -120.5t-44.5 -110t-29 -80.5l-9 -31l-59 -369h-195
l148 922z" />
    <glyph glyph-name="afii10085" unicode="&#x443;" horiz-adv-x="1079" 
d="M-53 -459l41 131q81 -10 153 -10q103 0 160 55t121 203l-266 1004l-142 39l23 112l309 10l172 -751l19 -139l303 731l-154 37l19 112l450 10l-20 -122l-115 -33l-365 -862q-48 -113 -81 -185t-71 -141.5t-70.5 -108.5t-72.5 -70t-83.5 -43t-98.5 -12q-52 0 -109.5 8
t-89.5 16z" />
    <glyph glyph-name="afii10086" unicode="&#x444;" horiz-adv-x="1400" 
d="M39 438q0 149 50 270t139 201.5t207 129t259 61.5l51 317l-167 37l16 123h360l-75 -473q229 -15 357 -128.5t128 -305.5q0 -140 -49.5 -259t-138 -203t-209 -136.5t-262.5 -67.5l-50 -315l168 -47l-18 -113h-533l19 113l180 47l49 313q-227 18 -354 129t-127 307z
M258 471q0 -268 289 -301l123 770q-90 -11 -161.5 -41t-129.5 -84t-89.5 -141.5t-31.5 -202.5zM731 170q187 23 300.5 142t113.5 339q0 142 -76 210t-215 81z" />
    <glyph glyph-name="afii10087" unicode="&#x445;" horiz-adv-x="1116" 
d="M-51 0h289l297 406l190 -406l315 20l19 113l-178 31l-197 403l287 353l176 43l20 122l-290 -10l-291 -379l-174 389l-322 -10l-18 -112l174 -41l192 -385l-284 -367l-187 -57z" />
    <glyph glyph-name="afii10088" unicode="&#x446;" horiz-adv-x="1378" 
d="M96 963l19 112l374 10q-78 -471 -99 -612.5t-21 -183.5q0 -135 106 -135q56 0 110 31t96 80.5t79.5 109.5t64.5 120.5t47 110t30 80.5l9 31l62 368h194l-153 -960l256 59l24 -37l-125 -475h-215l205 387l-8 9q-112 -74 -178 -74q-83 0 -105.5 103t17.5 300
q-38 -77 -85 -145.5t-108.5 -132.5t-139 -101.5t-159.5 -37.5q-227 0 -227 249q0 61 17.5 177t86.5 516z" />
    <glyph glyph-name="afii10089" unicode="&#x447;" horiz-adv-x="1124" 
d="M6 963l17 112l339 10l-55 -327q-19 -109 9.5 -162t111.5 -53q84 0 179.5 64t131.5 124l62 344l188 10l-143 -921l162 -31l-17 -113l-368 -20l96 559q-24 -25 -54.5 -50.5t-82.5 -60.5t-119 -57t-135 -22q-285 0 -224 368l31 187z" />
    <glyph glyph-name="afii10090" unicode="&#x448;" horiz-adv-x="1894" 
d="M96 963l19 112l374 10q-78 -471 -99 -612.5t-21 -183.5q0 -135 106 -135q42 0 84 24.5t76 63t67 91.5t57.5 102.5t47 104t34.5 89t21 63.5l68 383l192 10q-80 -484 -100.5 -619.5t-20.5 -176.5q0 -135 107 -135q47 0 94.5 31t85 80.5t72.5 109.5t60.5 120.5t44.5 110
t29 80.5l9 31l62 368h194l-147 -921l176 -31l-19 -113l-376 -20l84 397q-8 -19 -25 -54t-61 -102.5t-93.5 -122t-123 -96.5t-148.5 -42q-113 0 -170 78t-57 212l2 39q-32 -56 -67.5 -105t-88 -104t-118 -87.5t-134.5 -32.5q-227 0 -227 249q0 61 17.5 177t86.5 516z" />
    <glyph glyph-name="afii10091" unicode="&#x449;" horiz-adv-x="1964" 
d="M96 963l174 -41q-69 -400 -86.5 -516t-17.5 -177q0 -249 227 -249q69 0 134.5 32.5t118 87.5t88 104t67.5 105l-2 -39q0 -134 57 -212t170 -78q75 0 148.5 42t123 96.5t93.5 122t61 102.5t25 54q-84 -403 79 -403q66 0 181 74l8 -9l-205 -387h215l125 473l-25 39
l-256 -59l160 960h-194l-62 -368q-3 -12 -9.5 -32t-28 -78.5t-45 -112t-60 -118.5t-73.5 -111.5t-84.5 -78.5t-94.5 -32q-107 0 -107 135q0 41 20.5 176.5t100.5 619.5l-192 -10l-68 -383q-9 -29 -21 -63.5t-34.5 -89t-47 -104t-57.5 -102.5t-67 -91.5t-76 -63t-84 -24.5
q-106 0 -106 135q0 42 21 183.5t99 612.5l-374 -10z" />
    <glyph glyph-name="afii10092" unicode="&#x44a;" horiz-adv-x="1083" 
d="M76 748l30 337h631l-30 -133q-155 -240 -232 -407q64 67 152 114.5t186 47.5q96 0 155.5 -55.5t59.5 -159.5q0 -111 -45.5 -209t-118.5 -163t-164.5 -102.5t-183.5 -37.5q-142 0 -219.5 79.5t-77.5 206.5q0 223 281 656h-230l-51 -174h-143zM424 266q0 -66 33 -99.5
t90 -33.5q111 0 193.5 85.5t82.5 219.5q0 45 -33 75t-79 30q-83 0 -167.5 -61.5t-99.5 -106.5q-20 -62 -20 -109z" />
    <glyph glyph-name="afii10093" unicode="&#x44b;" horiz-adv-x="1548" 
d="M121 963l16 122h371l-70 -415l-35 -113q51 55 134.5 100t179.5 45q109 0 178.5 -72.5t69.5 -193.5q0 -106 -41 -193.5t-109 -144t-154.5 -87.5t-179.5 -31q-172 0 -246.5 102.5t-39.5 306.5l90 533zM389 393q-23 -127 15.5 -193.5t125.5 -66.5q97 0 159.5 86t62.5 205
q0 57 -30 91t-89 34q-130 0 -244 -156zM1047 0l376 20l19 113l-174 31l147 921h-194z" />
    <glyph glyph-name="afii10094" unicode="&#x44c;" horiz-adv-x="1028" 
d="M121 963l16 122h371l-70 -415l-35 -113q51 55 134.5 100t179.5 45q109 0 178.5 -72.5t69.5 -193.5q0 -106 -41 -193.5t-109 -144t-154.5 -87.5t-179.5 -31q-172 0 -246.5 102.5t-39.5 306.5l90 533zM389 393q-23 -127 15.5 -193.5t125.5 -66.5q97 0 159.5 86t62.5 205
q0 57 -30 91t-89 34q-130 0 -244 -156z" />
    <glyph glyph-name="afii10095" unicode="&#x44d;" horiz-adv-x="1036" 
d="M-14 135l94 127q75 -57 144 -88t161 -31q133 0 227 86t125 252h-436l31 154h420v10q0 146 -65 221.5t-185 75.5q-49 0 -93.5 -5t-64.5 -10l-20 -5l-54 -154h-131l31 256q7 3 20.5 8.5t55 20t83.5 25t102 19.5t116 9q207 0 313.5 -110t106.5 -310q0 -198 -77.5 -359
t-219.5 -254t-322 -93q-56 0 -114 16t-100.5 38.5t-77 45.5t-52.5 39z" />
    <glyph glyph-name="afii10096" unicode="&#x44e;" horiz-adv-x="1658" 
d="M106 963l21 112l375 10l-72 -450h203q59 218 210.5 344.5t360.5 126.5q184 0 284.5 -111.5t100.5 -292.5q0 -329 -171 -525.5t-439 -196.5q-174 0 -275.5 110t-101.5 295q0 34 4 96h-200l-78 -481h-195l148 922zM807 379q0 -119 56 -177.5t153 -58.5q174 0 272 156
t98 408q0 123 -59.5 179t-159.5 56q-87 0 -157 -46t-113.5 -124.5t-66.5 -179t-23 -213.5z" />
    <glyph glyph-name="afii10097" unicode="&#x44f;" horiz-adv-x="1142" 
d="M-76 0l19 113l149 49q101 67 159 125.5t114 152.5q-162 71 -162 244q0 181 142 300.5t368 119.5q150 0 311 -53l-152 -889l175 -29l-19 -113l-379 -20l70 424q-86 -21 -160 -21h-27q-65 -122 -152 -232.5t-179 -170.5h-277zM395 702q0 -153 183 -153q86 0 163 18l60 363
q-47 17 -102.5 18t-109 -14.5t-97 -44.5t-70.5 -78t-27 -109z" />
    <glyph glyph-name="uni0450" unicode="&#x450;" horiz-adv-x="1015" 
d="M61 348q0 156 47 297t126.5 241.5t189 160t229.5 59.5q155 0 246.5 -72t91.5 -194q0 -117 -91 -207t-254.5 -139.5t-373.5 -49.5q-6 -47 -6 -88q0 -109 55.5 -161t170.5 -52q67 0 150.5 23.5t133.5 46.5l51 23l62 -105q-9 -6 -25 -16.5t-66.5 -36.5t-102 -45.5
t-124.5 -36t-141 -16.5q-169 0 -269 99.5t-100 268.5zM291 588q219 0 362.5 65t143.5 166q0 133 -154 133q-113 0 -213 -102t-139 -262zM373 1491l88 154l422 -302l-64 -108z" />
    <glyph glyph-name="afii10071" unicode="&#x451;" horiz-adv-x="1015" 
d="M61 348q0 156 47 297t126.5 241.5t189 160t229.5 59.5q155 0 246.5 -72t91.5 -194q0 -117 -91 -207t-254.5 -139.5t-373.5 -49.5q-6 -47 -6 -88q0 -109 55.5 -161t170.5 -52q67 0 150.5 23.5t133.5 46.5l51 23l62 -105q-9 -6 -25 -16.5t-66.5 -36.5t-102 -45.5
t-124.5 -36t-141 -16.5q-169 0 -269 99.5t-100 268.5zM291 588q219 0 362.5 65t143.5 166q0 133 -154 133q-113 0 -213 -102t-139 -262zM383 1403q0 64 36.5 108.5t94.5 44.5q44 0 69 -25t25 -69q0 -62 -38.5 -106.5t-94.5 -44.5q-43 0 -67.5 24.5t-24.5 67.5zM795 1403
q0 64 36.5 108.5t94.5 44.5q44 0 69 -25t25 -69q0 -62 -38.5 -106.5t-94.5 -44.5q-43 0 -67.5 24.5t-24.5 67.5z" />
    <glyph glyph-name="afii10099" unicode="&#x452;" horiz-adv-x="1228" 
d="M121 0l186 1167h-174l19 123h174l20 123l-172 41l19 113l374 10l-51 -287h375l-19 -123h-376l-93 -520q3 9 13 30.5t32.5 62t50.5 82t69.5 86t87.5 79t106.5 56.5t124.5 22q223 0 223 -248q0 -178 -70 -538q-29 -148 -60.5 -263.5t-62 -194t-67 -133.5t-68 -86t-73 -47.5
t-74 -21t-78.5 -4.5q-36 0 -77 7.5t-64 15.5l-23 8l41 133q51 -10 123 -10q36 0 57 4.5t47.5 23.5t45.5 57.5t43 107t47.5 172t52.5 251.5q61 316 61 457q0 135 -106 135q-74 0 -145.5 -58t-120.5 -140.5t-87 -165.5t-56 -141l-19 -58l-62 -328h-194z" />
    <glyph glyph-name="afii10100" unicode="&#x453;" horiz-adv-x="976" 
d="M74 264q0 64 26 119t69 94t98 74.5t112 61.5t112 54.5t98 54t69 60t26 72.5q0 45 -32 73.5t-79 28.5q-64 0 -149.5 -26.5t-139.5 -53.5l-53 -26l-61 102q237 154 424 154q131 0 210 -74.5t79 -197.5q0 -73 -33.5 -133.5t-87.5 -102t-118.5 -77t-129.5 -65.5t-119 -60
t-87.5 -67.5t-33.5 -80.5q0 -57 48.5 -86t117.5 -29q68 0 149 23.5t128 47.5l47 23l61 -100q-236 -147 -415 -147q-149 0 -242.5 69.5t-93.5 214.5zM432 1327l422 301l88 -153l-446 -256z" />
    <glyph glyph-name="afii10101" unicode="&#x454;" horiz-adv-x="1030" 
d="M72 401q0 147 46 277t127 224.5t197.5 149t251.5 54.5q80 0 161.5 -20.5t122.5 -41.5l42 -20l-39 -256h-131l-14 154q-79 20 -177 20q-127 0 -221 -78t-131 -229h434l-24 -154h-430v-39q0 -148 64.5 -223.5t185.5 -75.5q53 0 106.5 12.5t92 30.5t69 36.5t45.5 31.5l16 12
l49 -123q-8 -7 -23 -18t-62 -39t-94.5 -49.5t-115 -39t-128.5 -17.5q-209 0 -314.5 109.5t-105.5 311.5z" />
    <glyph glyph-name="afii10102" unicode="&#x455;" horiz-adv-x="942" 
d="M43 31q16 -6 44.5 -14.5t109 -22.5t153.5 -14q209 0 335 94t126 254q0 58 -25.5 105.5t-66 79.5t-90 59.5t-98.5 52t-89.5 49.5t-66 59.5t-25.5 75.5q0 74 53 110.5t142 36.5q39 0 72.5 -4.5t46.5 -9.5l14 -4l12 -160h133l49 277q-153 51 -303 51q-86 0 -159.5 -20
t-131 -59t-90 -103t-32.5 -146q0 -62 25 -112.5t64.5 -83.5t87.5 -60.5t96 -50.5t87.5 -46.5t64.5 -56t25 -71.5q0 -82 -61 -125t-164 -43q-26 0 -51 2.5t-43 6.5t-32 7.5t-22 6.5l-8 2v174h-133z" />
    <glyph glyph-name="afii10103" unicode="&#x456;" horiz-adv-x="634" 
d="M106 963l175 -41l-148 -922l377 20l18 113l-174 31l148 921l-375 -10zM307 1382q0 -48 31 -75t82 -27q68 0 105.5 53.5t37.5 130.5q0 49 -30.5 76t-81.5 27q-68 0 -106 -54t-38 -131z" />
    <glyph glyph-name="afii10104" unicode="&#x457;" horiz-adv-x="641" 
d="M113 963l174 -41l-148 -922l377 20l19 113l-175 31l148 921l-375 -10zM127 1403q0 64 36.5 108.5t94.5 44.5q44 0 69 -25t25 -69q0 -62 -38.5 -106.5t-94.5 -44.5q-43 0 -67.5 24.5t-24.5 67.5zM518 1403q0 64 36.5 108.5t94.5 44.5q44 0 69 -25t25 -69
q0 -62 -38.5 -106.5t-94.5 -44.5q-43 0 -67.5 24.5t-24.5 67.5z" />
    <glyph glyph-name="afii10105" unicode="&#x458;" horiz-adv-x="604" 
d="M-283 -461q82 -31 164 -31q176 0 282 105.5t138 294.5l193 1177l-379 -10l-21 -112l176 -41l-159 -994q-24 -144 -73.5 -205t-156.5 -61q-32 0 -63 2.5t-46 5.5l-14 2zM297 1382q0 -48 31 -75t82 -27q68 0 105.5 53.5t37.5 130.5q0 48 -31 75.5t-82 27.5
q-68 0 -105.5 -54t-37.5 -131z" />
    <glyph glyph-name="afii10106" unicode="&#x459;" horiz-adv-x="1556" 
d="M-96 -4l49 190q27 -6 55 -6q99 0 165 83.5t118 279.5q43 171 86 379l-195 41l23 122h803l-70 -415l-35 -113q51 55 134.5 100t179.5 45q109 0 178 -72.5t69 -193.5q0 -106 -40.5 -193.5t-108.5 -144t-154.5 -87.5t-179.5 -31q-171 0 -245 103t-42 306l84 533h-250
q-34 -169 -88 -394q-67 -278 -160 -413t-247 -135q-55 0 -129 16zM889 393q-23 -127 15.5 -193.5t125.5 -66.5q97 0 159 86t62 205q0 57 -29.5 91t-88.5 34q-130 0 -244 -156z" />
    <glyph glyph-name="afii10107" unicode="&#x45a;" horiz-adv-x="1642" 
d="M106 963l19 112l373 10l-70 -440h422l70 440h202l-69 -415l-35 -113q51 55 134 100t179 45q109 0 178.5 -72.5t69.5 -193.5q0 -106 -40.5 -193.5t-108.5 -144t-154.5 -87.5t-179.5 -31q-171 0 -245 103t-42 306l16 103h-424l-75 -492h-201l145 922zM1004 393
q-23 -127 15.5 -193.5t125.5 -66.5q97 0 159 86t62 205q0 57 -30 91t-89 34q-129 0 -243 -156z" />
    <glyph glyph-name="afii10108" unicode="&#x45b;" 
d="M121 0l186 1167h-174l19 123h174l20 123l-172 41l19 113l374 10l-51 -287h375l-19 -123h-376l-93 -520q3 9 13 30.5t32.5 62t50.5 82t69.5 86t87.5 79t106.5 56.5t124.5 22q223 0 223 -248q0 -49 -10 -121l-86 -532l172 -31l-19 -113l-374 -20l110 666q8 41 8 90
q0 135 -106 135q-74 0 -145.5 -58t-120.5 -140.5t-87 -165.5t-56 -141l-19 -58l-62 -328h-194z" />
    <glyph glyph-name="afii10109" unicode="&#x45c;" horiz-adv-x="1128" 
d="M106 963l19 112l375 10l-68 -411h172l201 266l-88 23l16 112l441 10l-21 -122l-154 -27l-262 -322l189 -450l166 -51l-21 -113h-283l-204 522h-174l-82 -522h-195l148 922zM494 1327l421 301l89 -153l-447 -256z" />
    <glyph glyph-name="uni045D" unicode="&#x45d;" horiz-adv-x="1302" 
d="M96 963l19 112l374 10l-112 -706q-8 -66 -8 -90q0 -135 106 -135q56 0 110 31t96 80.5t79.5 109.5t64.5 120.5t47 110t30 80.5l9 31l62 368h194l-147 -921l176 -31l-18 -113l-377 -20l84 397q-4 -11 -14 -31.5t-34 -62t-52.5 -81.5t-71.5 -85t-89 -79t-107 -56t-124 -22
q-227 0 -227 249q0 47 10 119l94 574zM410 1491l88 154l422 -302l-64 -108z" />
    <glyph glyph-name="afii10110" unicode="&#x45e;" horiz-adv-x="1079" 
d="M-53 -459l41 131q81 -10 153 -10q103 0 160 55t121 203l-266 1004l-142 39l23 112l309 10l172 -751l19 -139l303 731l-154 37l19 112l450 10l-20 -122l-115 -33l-365 -862q-48 -113 -81 -185t-71 -141.5t-70.5 -108.5t-72.5 -70t-83.5 -43t-98.5 -12q-52 0 -109.5 8
t-89.5 16zM328 1530l196 47q15 -86 55 -127t109 -41q127 0 221 168l80 -53q-58 -111 -153 -182.5t-211 -71.5q-125 0 -202.5 66t-94.5 194z" />
    <glyph glyph-name="afii10193" unicode="&#x45f;" horiz-adv-x="1302" 
d="M96 963l19 112l374 10q-78 -471 -99 -612.5t-21 -183.5q0 -135 106 -135q56 0 110 31t96 80.5t79.5 109.5t64.5 120.5t47 110t30 80.5l9 31l62 368h194l-147 -921l176 -31l-18 -113l-377 -20l84 397q-4 -11 -14 -31.5t-34 -62t-52.5 -81.5t-71.5 -85t-89 -79t-107 -56
t-124 -22q-227 0 -227 249q0 61 17.5 177t86.5 516zM383 -420l152 328h131l-80 -328h-203z" />
    <glyph glyph-name="afii10050" unicode="&#x490;" horiz-adv-x="1028" 
d="M0 0l18 123l177 41l172 1106l-164 41l18 112l387 11h359l147 358h121l-82 -522h-580l-172 -1106l226 -41l-19 -123h-608z" />
    <glyph glyph-name="afii10098" unicode="&#x491;" horiz-adv-x="921" 
d="M-25 0l21 113l178 51l125 758l-164 41l19 112l370 10h289l88 277h139l-73 -440h-469l-123 -758l192 -51l-22 -113h-570z" />
    <glyph glyph-name="uni04B0" unicode="&#x4b0;" horiz-adv-x="1251" 
d="M100 1311l19 112l317 11l205 -750l344 588l-184 39l20 112l551 11l-20 -123l-164 -41l-461 -727h281l-29 -154h-311l-35 -225l170 -41l-21 -123h-559l21 123l184 41l35 225h-273l29 154h264l-211 727z" />
    <glyph glyph-name="uni04B1" unicode="&#x4b1;" horiz-adv-x="1132" 
d="M66 963l20 112l258 10l162 -886l356 733l-133 31l21 112l448 10l-22 -122l-111 -21l-430 -799h213l-23 -143h-262l-51 -307l160 -51l-19 -113h-538l18 113l180 51l49 307h-260l23 143h213l-162 789z" />
    <glyph glyph-name="uni2000" unicode="&#x2000;" horiz-adv-x="943" 
 />
    <glyph glyph-name="uni2001" unicode="&#x2001;" horiz-adv-x="1886" 
 />
    <glyph glyph-name="uni2002" unicode="&#x2002;" horiz-adv-x="943" 
 />
    <glyph glyph-name="uni2003" unicode="&#x2003;" horiz-adv-x="1886" 
 />
    <glyph glyph-name="uni2004" unicode="&#x2004;" horiz-adv-x="628" 
 />
    <glyph glyph-name="uni2005" unicode="&#x2005;" horiz-adv-x="471" 
 />
    <glyph glyph-name="uni2006" unicode="&#x2006;" horiz-adv-x="314" 
 />
    <glyph glyph-name="uni2007" unicode="&#x2007;" horiz-adv-x="314" 
 />
    <glyph glyph-name="uni2008" unicode="&#x2008;" horiz-adv-x="235" 
 />
    <glyph glyph-name="uni2009" unicode="&#x2009;" horiz-adv-x="377" 
 />
    <glyph glyph-name="uni200A" unicode="&#x200a;" horiz-adv-x="104" 
 />
    <glyph glyph-name="uni2010" unicode="&#x2010;" horiz-adv-x="782" 
d="M100 471l29 174h520l-28 -174h-521z" />
    <glyph glyph-name="uni2011" unicode="&#x2011;" horiz-adv-x="782" 
d="M100 471l29 174h520l-28 -174h-521z" />
    <glyph glyph-name="figuredash" unicode="&#x2012;" horiz-adv-x="782" 
d="M100 471l29 174h520l-28 -174h-521z" />
    <glyph glyph-name="endash" unicode="&#x2013;" horiz-adv-x="1028" 
d="M0 584l25 164h1003l-27 -164h-1001z" />
    <glyph glyph-name="emdash" unicode="&#x2014;" horiz-adv-x="1939" 
d="M0 584l27 164h1945l-26 -164h-1946z" />
    <glyph glyph-name="quoteleft" unicode="&#x2018;" horiz-adv-x="419" 
d="M102 1128q0 -112 111 -112q67 0 110.5 49t43.5 113q0 27 -14.5 63t-14.5 55q0 26 36 82t72 99l35 43l-78 77q-12 -11 -32.5 -30.5t-72.5 -77.5t-91.5 -112.5t-72 -124t-32.5 -124.5z" />
    <glyph glyph-name="quoteright" unicode="&#x2019;" horiz-adv-x="497" 
d="M154 1094l77 -78q12 11 32.5 30.5t72.5 77.5t91.5 112.5t72 124t32.5 124.5q0 112 -110 112q-67 0 -110.5 -48.5t-43.5 -112.5q0 -27 14.5 -63.5t14.5 -55.5q0 -26 -35.5 -82t-71.5 -99z" />
    <glyph glyph-name="quotesinglbase" unicode="&#x201a;" horiz-adv-x="532" 
d="M0 -279l78 -77q12 11 32.5 30.5t72.5 77.5t91.5 112.5t72 124t32.5 124.5q0 112 -111 112q-67 0 -110 -49t-43 -113q0 -27 14 -63t14 -55q0 -26 -35.5 -82t-71.5 -99z" />
    <glyph glyph-name="quotedblleft" unicode="&#x201c;" horiz-adv-x="811" 
d="M102 1128q0 -112 111 -112q67 0 110.5 49t43.5 113q0 27 -14.5 63t-14.5 55q0 26 36 82t72 99l35 43l-78 77q-12 -11 -32.5 -30.5t-72.5 -77.5t-91.5 -112.5t-72 -124t-32.5 -124.5zM494 1128q0 -112 110 -112q67 0 110.5 49t43.5 113q0 27 -14.5 63t-14.5 55
q0 26 35.5 82t71.5 99l36 43l-77 77q-12 -11 -32.5 -30.5t-72.5 -77.5t-91.5 -112.5t-72 -124t-32.5 -124.5z" />
    <glyph glyph-name="quotedblright" unicode="&#x201d;" horiz-adv-x="1005" 
d="M154 1094l77 -78q12 11 32.5 30.5t72.5 77.5t91.5 112.5t72 124t32.5 124.5q0 112 -110 112q-67 0 -110.5 -48.5t-43.5 -112.5q0 -27 14.5 -63.5t14.5 -55.5q0 -26 -35.5 -82t-71.5 -99zM545 1094l78 -78q12 11 32.5 30.5t72.5 77.5t91.5 112.5t72 124t32.5 124.5
q0 112 -111 112q-67 0 -110.5 -48.5t-43.5 -112.5q0 -27 14.5 -63.5t14.5 -55.5q0 -26 -36 -82t-72 -99z" />
    <glyph glyph-name="quotedblbase" unicode="&#x201e;" horiz-adv-x="913" 
d="M0 -279l78 -77q12 11 32.5 30.5t72.5 77.5t91.5 112.5t72 124t32.5 124.5q0 112 -111 112q-67 0 -110 -49t-43 -113q0 -27 14 -63t14 -55q0 -26 -35.5 -82t-71.5 -99zM391 -279l78 -77q12 11 32.5 30.5t72.5 77.5t91.5 112.5t72 124t32.5 124.5q0 112 -111 112
q-67 0 -110 -49t-43 -113q0 -27 14.5 -63t14.5 -55q0 -26 -36 -82t-72 -99z" />
    <glyph glyph-name="bullet" unicode="&#x2022;" horiz-adv-x="1034" 
d="M154 635q0 113 54 199t134 128t170 42q67 0 126.5 -22t107.5 -63.5t76 -109.5t28 -154q0 -89 -31 -161t-83 -116t-114.5 -67.5t-129.5 -23.5t-126.5 20.5t-107.5 61t-76 109t-28 157.5z" />
    <glyph glyph-name="ellipsis" unicode="&#x2026;" horiz-adv-x="1474" 
d="M119 92q0 72 41.5 123t115.5 51q54 0 83.5 -28t29.5 -84q0 -71 -41.5 -122.5t-118.5 -51.5q-110 0 -110 112zM602 92q0 72 42 123t116 51q112 0 112 -112q0 -71 -41 -122.5t-118 -51.5q-111 0 -111 112zM1083 92q0 72 42 123t116 51q54 0 83.5 -28t29.5 -84
q0 -71 -41.5 -122.5t-118.5 -51.5q-111 0 -111 112z" />
    <glyph glyph-name="uni202F" unicode="&#x202f;" horiz-adv-x="377" 
 />
    <glyph glyph-name="guilsinglleft" unicode="&#x2039;" horiz-adv-x="686" 
d="M123 498l18 123l338 297l105 -93l-271 -274l172 -305l-114 -82z" />
    <glyph glyph-name="guilsinglright" unicode="&#x203a;" horiz-adv-x="665" 
d="M113 254l260 276l-162 306l115 82l237 -334l-18 -123l-328 -297z" />
    <glyph glyph-name="uni205F" unicode="&#x205f;" horiz-adv-x="471" 
 />
    <glyph glyph-name="Euro" unicode="&#x20ac;" horiz-adv-x="1333" 
d="M84 489h137q0 -230 117 -369.5t334 -139.5q79 0 159.5 22.5t140 55t107.5 64.5t73 54l24 23l-64 110q-8 -6 -22 -16t-58.5 -36t-88.5 -45.5t-106 -35.5t-118 -16q-93 0 -154.5 45t-88 116.5t-30.5 170.5h500l23 143h-863zM129 778h862l23 144h-502q59 163 160.5 260.5
t230.5 97.5q108 0 230 -33l24 -205h105l61 324q-20 10 -54.5 24.5t-134.5 39t-190 24.5q-225 0 -398.5 -141.5t-258.5 -390.5h-135z" />
    <glyph glyph-name="trademark" unicode="&#x2122;" horiz-adv-x="1949" 
d="M178 1178l43 256h692l-43 -256h-96v139h-149l-90 -543l127 -26l-17 -93h-416l17 93l135 26l90 543h-149l-48 -139h-96zM866 655l15 93l110 26l90 547l-102 14l14 92l281 7l129 -392l260 385l268 7l-14 -93l-107 -20l-90 -547l97 -26l-17 -93h-350l16 93l119 26l74 447
l-240 -344l-104 -13l-127 348l-72 -438l121 -26l-16 -93h-355z" />
    <glyph glyph-name="uni25FC" unicode="&#x25fc;" horiz-adv-x="1085" 
d="M0 0v1085h1085v-1085h-1085z" />
    </font>
</defs>
</svg>
