<?xml version="1.0" standalone="no"?>
<!DOCTYPE svg PUBLIC "-//W3C//DTD SVG 1.1//EN" "http://www.w3.org/Graphics/SVG/1.1/DTD/svg11.dtd" >
<svg xmlns="http://www.w3.org/2000/svg" xmlns:xlink="http://www.w3.org/1999/xlink" version="1.1">
<metadata>
Created by FontForge 20170910 at Thu Apr  6 00:05:59 2017
 By Jimmy Wärting
Copyright (c) 2017 by Boris Garic. All rights reserved.
</metadata>
<defs>
<font id="GeometricaSans-Regular" horiz-adv-x="525" >
  <font-face 
    font-family="Geometrica Sans"
    font-weight="400"
    font-stretch="normal"
    units-per-em="1000"
    panose-1="0 0 0 0 0 0 0 0 0 0"
    ascent="750"
    descent="-250"
    x-height="464"
    cap-height="675"
    bbox="29.998 -323 1403 931"
    underline-thickness="50"
    underline-position="-100"
    unicode-range="U+000D-FB02"
  />
<missing-glyph horiz-adv-x="150" 
 />
    <glyph glyph-name=".notdef" horiz-adv-x="150" 
 />
    <glyph glyph-name="NULL" horiz-adv-x="0" 
 />
    <glyph glyph-name="NULL" horiz-adv-x="0" 
 />
    <glyph glyph-name="nonmarkingreturn" unicode="&#xd;" horiz-adv-x="150" 
 />
    <glyph glyph-name="space" unicode=" " horiz-adv-x="150" 
 />
    <glyph glyph-name="c" unicode="c" horiz-adv-x="457" 
d="M427 68q-32 -32 -75.5 -50t-89.5 -18q-48 0 -90.5 18t-74 49.5t-49.5 74t-18 90.5t18 90.5t49.5 74t74 50t90.5 18.5q46 0 89.5 -18t75.5 -50l-48 -48q-23 23 -53.5 36t-63.5 13q-35 0 -65 -13t-52 -35.5t-35 -53t-13 -64.5t13 -64t35 -52.5t52 -35.5t65 -13
q32 0 63 12.5t54 35.5z" />
    <glyph glyph-name="C" unicode="C" horiz-adv-x="636" 
d="M606 98q-46 -46 -107.5 -72t-131.5 -26t-131.5 26.5t-107 72t-72 107t-26.5 131.5t26.5 131.5t72 107.5t107 72.5t131.5 26.5t131.5 -26.5t107.5 -72.5l-48 -47q-37 36 -86.5 57.5t-104.5 21.5q-54 0 -102.5 -21.5t-86 -58t-59.5 -86t-22 -105.5q0 -54 21 -102.5
t57.5 -86t85.5 -59.5t106 -22q54 0 104 20.5t87 58.5z" />
    <glyph glyph-name="D" unicode="D" horiz-adv-x="620" 
d="M252 675q68 -1 129.5 -27t108 -71.5t73.5 -107t27 -132.5q0 -70 -26.5 -131.5t-72.5 -107t-107.5 -72t-131.5 -26.5h-222v675h222zM252 67q55 1 104 22t86 57.5t59 85.5t22 105t-21.5 105.5t-58 86t-86 58t-105.5 21.5h-155v-541h155z" />
    <glyph glyph-name="d" unicode="d" 
d="M30 232q0 48 18 90t49.5 73.5t74 50t90.5 18.5q50 0 93.5 -22t72.5 -60v292h67v-674h-67v82q-29 -38 -72.5 -60t-93.5 -22q-48 0 -90.5 18t-74 49.5t-49.5 74t-18 90.5zM97 232q0 -34 13 -64t35.5 -52.5t52.5 -35.5t64 -13t64.5 13t53 35.5t35.5 52.5t13 64t-13 64.5
t-35.5 52.5t-53 35t-64.5 13t-64 -13t-52.5 -35t-35.5 -52.5t-13 -64.5z" />
    <glyph glyph-name="E" unicode="E" horiz-adv-x="546" 
d="M97 608v-211h315v-67h-315v-262h419v-68h-486v675h486v-67h-419z" />
    <glyph glyph-name="e" unicode="e" horiz-adv-x="524" 
d="M262 465q48 0 90 -18.5t73.5 -50.5t50 -74t18.5 -90q0 -17 -4 -32h-385q5 -29 19 -53t35 -41.5t47 -27.5t56 -10q33 0 63.5 12.5t53.5 35.5l48 -48q-33 -32 -75 -50t-90 -18t-90.5 18t-74 49.5t-49.5 74t-18 90.5t18 90.5t49.5 74t74 50t90.5 18.5zM262 398
q-29 0 -55.5 -10t-47.5 -28t-35.5 -42t-18.5 -52h314q-5 28 -19 52t-35 42t-47.5 28t-55.5 10z" />
    <glyph glyph-name="F" unicode="F" horiz-adv-x="547" 
d="M97 0h-67v675h487v-67h-420v-212h316v-67h-316v-329z" />
    <glyph glyph-name="f" unicode="f" horiz-adv-x="401" 
d="M371 608q-32 0 -60.5 -12t-50.5 -33t-35.5 -50t-15.5 -62q-3 -30 -3 -62h165v-67h-165v-322h-67v322h-109v67h109q0 17 0.5 32t1.5 31q3 48 22 88.5t50 70.5t71.5 47t86.5 17v-67z" />
    <glyph glyph-name="G" unicode="G" horiz-adv-x="644" 
d="M614 371v-370h-67v53q-40 -26 -85.5 -39.5t-94.5 -13.5q-70 0 -131.5 26.5t-107 72t-72 107t-26.5 131.5t26.5 131t72 107t107 72.5t131.5 26.5q69 0 130 -26t108 -73l-47 -47q-38 37 -87.5 58t-103.5 21q-56 0 -105 -21t-86 -58t-58 -86t-21 -105t21 -105t58 -86t86 -58
t105 -21q51 0 97 18t83 50v169h-192v66h259z" />
    <glyph glyph-name="g" unicode="g" horiz-adv-x="524" 
d="M494 465v-551q0 -48 -18.5 -90.5t-50 -74t-73.5 -49.5t-90 -18t-90.5 18t-74 49.5t-49.5 74t-18 90.5h67q0 -34 13 -64t35.5 -52.5t52.5 -35.5t64 -13t64 13t52.5 35.5t35.5 52.5t13 64v168q-29 -38 -72 -60t-93 -22q-48 0 -90.5 18t-74 49.5t-49.5 74t-18 90.5t18 90.5
t49.5 74t74 50t90.5 18.5q50 0 93 -22t72 -60v82h67zM262 68q34 0 64 13t52.5 35.5t35.5 52t13 63.5t-13 64.5t-35.5 53t-52.5 35.5t-64 13t-64 -13t-52.5 -35.5t-35.5 -53t-13 -64.5t13 -63.5t35.5 -52t52.5 -35.5t64 -13z" />
    <glyph glyph-name="h" unicode="h" 
d="M262 465q48 0 90.5 -18.5t74 -50t50 -74t18.5 -90.5v-232h-67v232q0 33 -13 63.5t-35.5 53t-53 36t-64.5 13.5q-33 0 -63 -13t-52.5 -35.5t-36 -53t-13.5 -64.5v-232h-67v675h67v-292q29 38 72.5 60t92.5 22z" />
    <glyph glyph-name="H" unicode="H" horiz-adv-x="519" 
d="M489 675v-675h-67v304h-325v-304h-67v675h67v-305h325v305h67z" />
    <glyph glyph-name="i" unicode="i" horiz-adv-x="128" 
d="M63 525q-14 0 -23.5 10t-9.5 24t9.5 23.5t23.5 9.5t24 -9.5t10 -23.5t-10 -24t-24 -10zM98 0h-68v465h68v-465z" />
    <glyph glyph-name="I" unicode="I" horiz-adv-x="127" 
d="M97 0h-67v675h67v-675z" />
    <glyph glyph-name="j" unicode="j" horiz-adv-x="524" 
d="M262 -251q41 0 72 16t51.5 43.5t31 63t10.5 74.5v520h67v-552q0 -48 -18.5 -90.5t-50 -74t-73.5 -49.5t-90 -18t-90.5 18t-74 49.5t-49.5 74t-18 90.5h67q0 -34 13 -64t35.5 -52.5t52.5 -35.5t64 -13zM461 525q-14 0 -24 9.5t-10 23.5t10 24t24 10t23.5 -10t9.5 -24
t-9.5 -23.5t-23.5 -9.5z" />
    <glyph glyph-name="J" unicode="J" horiz-adv-x="575" 
d="M289 675h256v-421q0 -53 -20.5 -99.5t-55.5 -81t-82 -54t-99 -19.5q-53 0 -100 20t-82 54.5t-55.5 81.5t-20.5 102h67q0 -40 15 -75t40.5 -60.5t60.5 -40.5t75 -15q39 0 73.5 14.5t60.5 39.5t41 59.5t15 73.5v354h-189v67z" />
    <glyph glyph-name="k" unicode="k" horiz-adv-x="453" 
d="M165 241l-68 -68v-173h-67v675h67v-407l198 198h95l-177 -177l210 -289h-83z" />
    <glyph glyph-name="K" unicode="K" horiz-adv-x="549" 
d="M253 403l266 -403h-79l-231 348l-112 -141v-207h-67v674h67v-360l285 360h87z" />
    <glyph glyph-name="l" unicode="l" horiz-adv-x="127" 
d="M97 0h-67v675h67v-675z" />
    <glyph glyph-name="L" unicode="L" horiz-adv-x="549" 
d="M519 67v-67h-489v675h67v-608h422z" />
    <glyph glyph-name="M" unicode="M" horiz-adv-x="682" 
d="M652 675v-675h-67v555l-209 -334h-70l-209 334v-555h-67v675h69l242 -386l242 386h69z" />
    <glyph glyph-name="m" unicode="m" horiz-adv-x="768" 
d="M544 454q40 0 75.5 -15.5t61.5 -41.5t41.5 -61.5t15.5 -75.5v-260h-67v260q0 26 -10 49t-27.5 40.5t-40.5 27.5t-49 10t-49 -10t-40 -27.5t-27 -40.5t-10 -49v-260h-68v260q0 26 -10 49t-27 40.5t-40 27.5t-49 10t-49.5 -10t-40.5 -27.5t-27 -40.5t-10 -49v-260h-67v465
h67v-68q23 26 56 41.5t71 15.5q51 0 93.5 -25t66.5 -66q24 41 66.5 66t93.5 25z" />
    <glyph glyph-name="N" unicode="N" horiz-adv-x="517" 
d="M418 0l-321 547v-547h-67v675h69l321 -547v547h67v-675h-69z" />
    <glyph glyph-name="n" unicode="n" 
d="M262 465q48 0 90.5 -18.5t74 -50t50 -74t18.5 -90.5v-232h-68v232q0 33 -13 63t-35 52.5t-52.5 36t-64.5 13.5q-33 0 -63 -13t-52.5 -35.5t-36 -52.5t-13.5 -64v-232h-67v463h67v-80q29 38 72.5 60t92.5 22z" />
    <glyph glyph-name="O" unicode="O" horiz-adv-x="734" 
d="M367 675q70 0 131 -26.5t107 -72.5t72.5 -107t26.5 -131t-26.5 -131.5t-72.5 -107t-107 -72t-131 -26.5t-131.5 26.5t-107 72t-72 107t-26.5 131.5t26.5 131t72 107t107 72.5t131.5 26.5zM367 68q56 0 105 21t86 57.5t58 86t21 105.5q0 55 -21 104.5t-58 86t-86 58
t-105 21.5t-105 -21.5t-86 -58t-58 -86t-21 -104.5q0 -56 21 -105.5t58 -86t86 -57.5t105 -21z" />
    <glyph glyph-name="o" unicode="o" 
d="M262 465q48 0 90.5 -18.5t74 -50t50 -74t18.5 -90.5t-18.5 -90.5t-50 -74t-74 -49.5t-90.5 -18t-90.5 18t-74 49.5t-49.5 74t-18 90.5t18 90.5t49.5 74t74 50t90.5 18.5zM262 67q34 0 64.5 13t53 35.5t35.5 52.5t13 64t-13 64.5t-35.5 53t-53 35.5t-64.5 13t-64 -13
t-52.5 -35.5t-35.5 -53t-13 -64.5t13 -64t35.5 -52.5t52.5 -35.5t64 -13z" />
    <glyph glyph-name="P" unicode="P" horiz-adv-x="580" 
d="M292 675q53 0 100 -20t82 -54t55.5 -80t20.5 -98t-20.5 -98t-55.5 -80t-82 -53.5t-100 -19.5h-192v-172h-70v675h262zM292 239q39 0 73 14.5t59.5 39.5t40.5 58.5t15 71.5t-15 72t-40.5 59t-59.5 39.5t-73 14.5h-192v-369h192z" />
    <glyph glyph-name="p" unicode="p" horiz-adv-x="534" 
d="M267 465q49 0 92 -18.5t75.5 -50t51 -73.5t18.5 -90t-18.5 -90.5t-51 -74t-75.5 -49.5t-92 -18q-51 0 -94.5 22t-72.5 59v-292h-70v675h70v-82q29 37 72.5 59.5t94.5 22.5zM267 68q34 0 64 13t53 35t36.5 52t13.5 65q0 33 -13 63t-35.5 52.5t-53 36t-65.5 13.5
q-34 0 -64 -13t-53 -35.5t-36.5 -52.5t-13.5 -64t13 -63.5t35.5 -51.5t53 -35.5t65.5 -14.5z" />
    <glyph glyph-name="Q" unicode="Q" horiz-adv-x="743" 
d="M705 337q0 -62 -22 -119t-62 -102l92 -92l-48 -48l-93 94q-44 -34 -96 -52t-109 -18q-70 0 -131.5 26.5t-107 72t-72 107t-26.5 131.5t26.5 131.5t72 107.5t107 72.5t131.5 26.5t131.5 -26.5t107.5 -72.5t72.5 -107.5t26.5 -131.5zM367 67q43 0 83 13t72 39l-127 128
l47 47l130 -130q31 35 48.5 80t17.5 93q0 56 -21.5 105.5t-58 86t-86 58t-105.5 21.5t-105 -21.5t-85.5 -58t-58 -86t-21.5 -105.5t21.5 -105t58 -86t85.5 -58t105 -21z" />
    <glyph glyph-name="q" unicode="q" horiz-adv-x="523" 
d="M30 233q0 48 18 90t49.5 73.5t73.5 50t90 18.5q51 0 94 -22.5t71 -59.5v82h67v-675h-67v292q-28 -37 -71 -59t-94 -22q-48 0 -90 18t-73.5 49.5t-49.5 74t-18 90.5zM97 233q0 -33 13 -63t35 -52.5t52 -36t64 -13.5q33 0 63 13t52.5 35t36 52t13.5 65q0 33 -12.5 63
t-35 52.5t-52.5 36t-65 13.5q-34 0 -63.5 -13t-51.5 -35.5t-35 -52.5t-14 -64z" />
    <glyph glyph-name="r" unicode="r" horiz-adv-x="457" 
d="M262 465q49 0 91 -18.5t74 -50.5q-11 -12 -25 -25.5t-23 -21.5q-23 23 -53 35.5t-64 12.5t-64 -13t-52.5 -35.5t-35.5 -52.5t-13 -64v-232h-67v465h67v-82q28 37 71 59.5t94 22.5z" />
    <glyph glyph-name="R" unicode="R" horiz-adv-x="568" 
d="M538 423q0 -39 -12 -75.5t-33 -67.5t-51 -54.5t-66 -36.5l128 -189h-81l-117 174q-13 -1 -25.5 -1.5t-25.5 -0.5h-158v-172h-67v675h257q52 0 98 -20t80 -54t53.5 -80t19.5 -98zM97 239h190q38 0 71.5 14.5t58.5 39.5t39.5 58.5t14.5 71.5t-14.5 72t-39.5 59t-58.5 39.5
t-71.5 14.5h-190v-369z" />
    <glyph glyph-name="S" unicode="S" horiz-adv-x="535" 
d="M98 495q0 -27 18.5 -48.5t45.5 -37.5t56.5 -26t51.5 -14q35 -6 75.5 -20.5t74.5 -38.5t56.5 -56.5t22.5 -73.5q0 -44 -21 -77.5t-54 -56t-73.5 -33.5t-79.5 -11q-35 0 -69 7.5t-65.5 22t-58.5 36t-48 49.5l65 24q33 -35 79.5 -55t94.5 -20q23 0 51.5 7t54 21t43 34.5
t17.5 48.5t-18.5 50t-45 38t-56.5 26t-53 14q-35 6 -75.5 21t-75 39t-57 56.5t-22.5 73.5q0 44 21.5 77.5t55.5 56t74.5 34t79.5 11.5q70 0 134.5 -32.5t107.5 -88.5l-64 -23q-14 18 -35 32.5t-44.5 25t-48.5 16t-47 5.5q-24 0 -53.5 -7t-55 -21t-42.5 -35.5t-17 -50.5z" />
    <glyph glyph-name="s" unicode="s" horiz-adv-x="424" 
d="M216 266q27 -2 58 -11t58 -25.5t44.5 -41.5t17.5 -59q0 -33 -17.5 -57t-44 -40t-58.5 -23.5t-60 -7.5q-52 0 -101 21t-82 63l54 41q22 -30 59 -44t75 -14q13 0 31.5 3t35.5 10.5t29 19.5t12 30t-13 31t-31.5 21.5t-39 12.5t-35.5 4q-27 2 -58 11t-58 25.5t-44.5 41.5
t-17.5 59q0 33 17.5 57t44 40t58 23.5t60.5 7.5q52 0 100.5 -21t82.5 -63l-54 -42q-22 31 -59 45t-75 14q-13 0 -31.5 -3t-35.5 -10.5t-29 -19.5t-12 -30t13 -31t31.5 -21.5t39 -12.5t35.5 -4z" />
    <glyph glyph-name="T" unicode="T" horiz-adv-x="573" 
d="M543 675v-67h-223v-608h-67v608h-223v67h513z" />
    <glyph glyph-name="t" unicode="t" horiz-adv-x="401" 
d="M206 232q0 -34 13 -63.5t35 -51.5t52 -35.5t65 -14.5v-67q-48 0 -90.5 18t-74 49.5t-49.5 74t-18 90.5v189h-109v66h109v188h67v-188h165v-66h-165v-189z" />
    <glyph glyph-name="U" unicode="U" horiz-adv-x="575" 
d="M545 675v-417q0 -53 -20.5 -100t-55.5 -82t-82 -55.5t-100 -20.5t-100 20.5t-82 55.5t-55 82t-20 100v417h67v-417q0 -39 15 -74t40.5 -61t60.5 -41t74 -15q40 0 74.5 15t60.5 41t41 61t15 74v417h67z" />
    <glyph glyph-name="u" unicode="u" 
d="M262 0q-48 0 -90.5 18.5t-74 50t-49.5 74t-18 90.5v232h67v-232q0 -33 13 -63t35 -53t52 -36.5t65 -13.5q33 0 63.5 13t53 35.5t36 52.5t13.5 65v232h67v-465h-67v82q-29 -38 -72.5 -60t-93.5 -22z" />
    <glyph glyph-name="V" unicode="V" horiz-adv-x="625" 
d="M348 0h-71l-247 675h72l211 -577l210 577h72z" />
    <glyph glyph-name="v" unicode="v" horiz-adv-x="470" 
d="M201 0l-171 465h68l137 -372l137 372h68l-171 -465h-68z" />
    <glyph glyph-name="W" unicode="W" horiz-adv-x="937" 
d="M277 0l-247 675h72l211 -577l119 328h72l120 -328l211 577h72l-247 -675h-72l-120 328l-120 -328h-71z" />
    <glyph glyph-name="w" unicode="w" horiz-adv-x="812" 
d="M201 0l-171 465h68l137 -372l137 372h68l137 -372l137 372h68l-171 -465h-68l-137 371l-137 -371h-68z" />
    <glyph glyph-name="x" unicode="x" horiz-adv-x="447" 
d="M183 232l-153 233h80l113 -171l114 171h80l-154 -233l154 -232h-80l-114 171l-113 -171h-80z" />
    <glyph glyph-name="X" unicode="X" horiz-adv-x="564" 
d="M241 339l-211 336h79l172 -273l170 273h79l-210 -336l214 -339h-79l-174 276l-172 -276h-79z" />
    <glyph glyph-name="Y" unicode="Y" horiz-adv-x="567" 
d="M318 329v-328h-67v328l-221 346h81l174 -273l171 273h81z" />
    <glyph glyph-name="y" unicode="y" 
d="M495 464v-549q0 -48 -18.5 -90.5t-50 -74t-74 -50t-90.5 -18.5t-90.5 18.5t-74 50t-49.5 74t-18 90.5h67q0 -34 13 -64t35.5 -52.5t52.5 -35.5t64 -13t64 13t52.5 35.5t35.5 52.5t13 64v168q-28 -38 -71.5 -60t-93.5 -22q-48 0 -90.5 18t-74 49.5t-49.5 74t-18 90.5v231
h67v-231q0 -33 13 -63t35 -52.5t52 -36t65 -13.5q33 0 63 13t52.5 35t36 52t13.5 65v231h68z" />
    <glyph glyph-name="Z" unicode="Z" horiz-adv-x="574" 
d="M544 68v-67h-514v67l428 540h-428v67h514v-67l-428 -540h428z" />
    <glyph glyph-name="z" unicode="z" horiz-adv-x="485" 
d="M455 398l-328 -330h325v-67h-422v67l328 330h-324v67h421v-67z" />
    <glyph glyph-name="question" unicode="?" horiz-adv-x="399" 
d="M167 674q40 0 76.5 -14.5t64.5 -40t44.5 -60.5t16.5 -76q0 -29 -7.5 -53t-21 -43.5t-31 -35.5t-37.5 -30q-71 -48 -74 -142h-63q0 50 12.5 83.5t31 56.5t40 39.5t40 33.5t31 38t12.5 53q0 27 -11 50.5t-29.5 40.5t-43 26.5t-51.5 9.5q-25 0 -49 -9t-43 -26l-45 47
q28 25 63.5 38.5t73.5 13.5zM128 39q0 15 11 26t28 11q15 0 26.5 -11t11.5 -26q0 -17 -11.5 -28t-26.5 -11q-17 0 -28 11t-11 28z" />
    <glyph glyph-name="exclam" unicode="!" horiz-adv-x="137" 
d="M100 179h-62v496h62v-496zM30 39q0 -17 11 -28t28 -11q15 0 26.5 11t11.5 28q0 15 -11.5 26t-26.5 11q-17 0 -28 -11t-11 -26z" />
    <glyph glyph-name="period" unicode="." horiz-adv-x="137" 
d="M30 39q0 15 11 26t28 11q15 0 26.5 -11t11.5 -26q0 -17 -11.5 -28t-26.5 -11q-17 0 -28 11t-11 28z" />
    <glyph glyph-name="comma" unicode="," horiz-adv-x="136" 
d="M106 39q-1 -9 -4 -21t-6 -24.5t-6.5 -25t-6.5 -21.5h-13v53q-17 0 -28.5 10.5t-11.5 28.5q0 15 10.5 26t26.5 11q17 0 28 -11t11 -26z" />
    <glyph glyph-name="colon" unicode=":" horiz-adv-x="136" 
d="M30 433q0 17 11 28t26 11q17 0 28 -11t11 -28q0 -15 -11 -26t-28 -11q-15 0 -26 11t-11 26zM30 243q0 16 11 27t26 11q17 0 28 -11t11 -27t-11 -27t-28 -11q-15 0 -26 11t-11 27z" />
    <glyph glyph-name="semicolon" unicode=";" horiz-adv-x="136" 
d="M30 433q0 17 11 28t27 11t27 -11t11 -28q0 -15 -11 -26t-27 -11t-27 11t-11 26zM106 243q-2 -20 -9.5 -46t-12.5 -46h-13v54q-17 0 -29 10t-12 28q0 16 11 27t27 11t27 -11t11 -27z" />
    <glyph glyph-name="quotedblright" unicode="&#x201d;" horiz-adv-x="246" 
d="M106 636q-2 -23 -9.5 -45.5t-12.5 -45.5h-13v53q-17 0 -29 10.5t-12 27.5q0 16 11 27.5t27 11.5t27 -11.5t11 -27.5zM216 636q-2 -23 -9.5 -45.5t-12.5 -45.5h-13v53q-17 0 -29 10.5t-12 27.5q0 16 11 27.5t27 11.5t27 -11.5t11 -27.5z" />
    <glyph glyph-name="quotedblleft" unicode="&#x201c;" horiz-adv-x="246" 
d="M140 584q2 23 9.5 45.5t12.5 45.5h13v-53q17 0 29 -10.5t12 -27.5q0 -16 -11 -27.5t-27 -11.5t-27 11.5t-11 27.5zM30 584q2 23 9.5 45.5t12.5 45.5h13v-53q17 0 29 -10.5t12 -27.5q0 -16 -11 -27.5t-27 -11.5t-27 11.5t-11 27.5z" />
    <glyph glyph-name="quoteright" unicode="&#x2019;" horiz-adv-x="136" 
d="M106 636q-1 -5 -2.5 -11.5t-3.5 -16t-6 -25t-10 -38.5h-13v53q-17 0 -29 10.5t-12 27.5q0 16 11 27.5t27 11.5t27 -11.5t11 -27.5z" />
    <glyph glyph-name="quoteleft" unicode="&#x2018;" horiz-adv-x="137" 
d="M30 560q1 6 2.5 12t3.5 16t6 25.5t10 38.5h14v-54l1 1q16 0 28 -11t12 -28q0 -15 -11.5 -26.5t-27.5 -11.5t-27 11.5t-11 26.5z" />
    <glyph glyph-name="quotedbl" unicode="&#x22;" horiz-adv-x="246" 
d="M106 636q-2 -23 -9.5 -45.5t-12.5 -45.5h-13v53q-17 0 -29 10.5t-12 27.5q0 16 11 27.5t27 11.5t27 -11.5t11 -27.5zM216 636q-2 -23 -9.5 -45.5t-12.5 -45.5h-13v53q-17 0 -29 10.5t-12 27.5q0 16 11 27.5t27 11.5t27 -11.5t11 -27.5z" />
    <glyph glyph-name="quotesingle" unicode="'" horiz-adv-x="136" 
d="M106 636q-2 -17 -9 -42.5t-12 -44.5q0 -1 -0.5 -2t-0.5 -2h-13v53q-17 0 -29 10.5t-12 27.5q0 16 11 27.5t27 11.5t27 -11.5t11 -27.5z" />
    <glyph glyph-name="quotesinglbase" unicode="&#x201a;" horiz-adv-x="136" 
d="M106 39q-1 -9 -4 -21t-6 -24.5t-6.5 -25t-6.5 -21.5h-13v53q-17 0 -28.5 10.5t-11.5 28.5q0 15 10.5 26t26.5 11q17 0 28 -11t11 -26z" />
    <glyph glyph-name="quotedblbase" unicode="&#x201e;" horiz-adv-x="247" 
d="M107 39q-2 -19 -9.5 -46t-12.5 -46h-14v53q-17 0 -29 10.5t-12 28.5q0 15 11 26.5t27 11.5t27.5 -11.5t11.5 -26.5zM217 39q-1 -9 -4 -21t-6 -24.5t-6.5 -25t-5.5 -21.5h-14v53q-16 0 -28 10.5t-12 28.5q0 15 10.5 26.5t27.5 11.5q16 0 27 -11.5t11 -26.5z" />
    <glyph glyph-name="zero" unicode="0" horiz-adv-x="540" 
d="M270 675q52 0 96 -19.5t76 -52.5t50 -76.5t18 -90.5v-197q0 -47 -18 -90.5t-50 -76.5t-76 -52.5t-96 -19.5t-96 19.5t-76 52.5t-50 76.5t-18 90.5v197q0 47 18 90t50 76t76 53t96 20zM270 67q44 0 76.5 16.5t54 43.5t32 62t10.5 71v154q0 37 -10.5 72t-32 62t-54 43.5
t-76.5 16.5t-76.5 -16.5t-53.5 -43.5t-31.5 -62t-10.5 -72v-154q0 -36 10.5 -71t31.5 -62t53.5 -43.5t76.5 -16.5z" />
    <glyph glyph-name="bar" unicode="|" horiz-adv-x="127" 
d="M97 730v-800h-67v800h67z" />
    <glyph glyph-name="backslash" unicode="\" horiz-adv-x="422" 
d="M320 -70l-290 798h71l291 -798h-72z" />
    <glyph glyph-name="braceleft" unicode="{" horiz-adv-x="399" 
d="M369 643q-39 0 -68 -14t-49.5 -38t-32 -55.5t-16.5 -66.5q-6 -50 -29.5 -90t-64.5 -68q40 -28 64.5 -68.5t30.5 -89.5q5 -36 16.5 -67.5t31 -55.5t48.5 -38t69 -14v-66q-47 0 -88 17t-71.5 47t-49 70t-21.5 87q-3 51 -32 88.5t-77 54.5v70q47 14 76.5 53t32.5 89
q3 46 21.5 86.5t49 70.5t71.5 47.5t88 17.5v-67v0z" />
    <glyph glyph-name="braceright" unicode="}" horiz-adv-x="399" 
d="M30 710q45 0 83.5 -15.5t68.5 -42.5t49.5 -63.5t25.5 -79.5q4 -27 10.5 -53t19 -48.5t32.5 -38.5t50 -23v-70q-48 -15 -77.5 -53.5t-32.5 -89.5q-2 -47 -20.5 -87t-49 -70t-71.5 -47t-88 -17v66q33 0 61.5 12t50.5 33t35.5 49.5t15.5 60.5q3 55 27.5 101t69.5 77
q-38 24 -60 60t-29 80q-8 34 -19.5 68.5t-31 62t-49 44.5t-71.5 17v67z" />
    <glyph glyph-name="parenright" unicode=")" horiz-adv-x="289" 
d="M30 710q47 0 89 -18.5t73 -50t49 -73.5t18 -90v-335q0 -48 -18 -90t-49 -73.5t-73 -49.5t-89 -18v66q34 0 63.5 13t51.5 35.5t35 52.5t13 64v335q0 34 -13 63.5t-35 52t-51.5 36t-63.5 13.5v67v0z" />
    <glyph glyph-name="parenleft" unicode="(" horiz-adv-x="290" 
d="M260 643q-34 0 -64 -13t-52 -35.5t-35 -52.5t-13 -64v-335q0 -35 12.5 -64.5t35 -52t52 -35.5t64.5 -13v-66q-48 0 -89.5 18t-73 49.5t-49.5 73.5t-18 90v335q0 48 18 90t49 73.5t73 50t90 18.5v-67z" />
    <glyph glyph-name="bracketleft" unicode="[" horiz-adv-x="290" 
d="M96 642v-666h164v-66h-230v798h230v-66h-164z" />
    <glyph glyph-name="bracketright" unicode="]" horiz-adv-x="290" 
d="M30 642v66h230v-798h-230v66h164v666h-164z" />
    <glyph glyph-name="dollar" unicode="$" horiz-adv-x="535" 
d="M307 360q31 -9 65.5 -24.5t62.5 -38t46.5 -52.5t18.5 -67q0 -38 -17.5 -68.5t-45 -53t-62 -37t-68.5 -18.5v-66h-67v66q-29 1 -58.5 10.5t-57.5 25.5t-52 36t-42 43l65 24q29 -29 66 -50t79 -23v241q-24 3 -52 14.5t-54.5 27.5t-49 36.5t-34.5 41.5q-17 31 -17 66
q0 40 19 72t49 54.5t66.5 35t72.5 15.5v62h67v-63q60 -9 111 -40t87 -78l-64 -23q-23 27 -61 47.5t-73 27.5v-244zM98 496q0 -25 14.5 -44.5t36.5 -34.5t46.5 -25.5t44.5 -16.5v230q-22 -1 -47 -8.5t-46 -21.5t-35 -34t-14 -45zM307 67q20 3 42.5 12t41.5 23t31.5 32.5
t12.5 41.5t-13 42t-32.5 33t-41.5 24.5t-41 16.5v-225z" />
    <glyph glyph-name="plus" unicode="+" horiz-adv-x="409" 
d="M379 307h-144v-143h-62v143h-143v62h143v144h62v-144h144v-62z" />
    <glyph glyph-name="hyphen" unicode="-" horiz-adv-x="409" 
d="M379 309h-349v61h349v-61z" />
    <glyph glyph-name="asterisk" unicode="*" horiz-adv-x="409" 
d="M379 467h-118l63 -100l-53 -33l-67 106l-67 -106l-52 33l63 100h-118v62h118l-63 100l52 33l67 -106l67 106l53 -33l-63 -100h118v-62z" />
    <glyph glyph-name="percent" unicode="%" horiz-adv-x="995" 
d="M227 0l460 674h81l-460 -674h-81zM216 674q39 0 72.5 -14.5t59 -40t40 -59t14.5 -72.5t-14.5 -72.5t-40 -59t-59 -40t-72.5 -14.5t-72.5 14.5t-59 40t-40 59t-14.5 72.5t14.5 72.5t40 59t59 40t72.5 14.5zM216 369q25 0 46.5 9.5t37.5 25.5t25.5 37.5t9.5 46.5t-9.5 46.5
t-25.5 37.5t-37.5 25.5t-46.5 9.5t-46.5 -9.5t-37.5 -25.5t-25.5 -37.5t-9.5 -46.5t9.5 -46.5t25.5 -37.5t37.5 -25.5t46.5 -9.5zM779 372q39 0 72.5 -14.5t59 -40t40 -59t14.5 -72.5t-14.5 -72.5t-40 -59t-59 -40t-72.5 -14.5t-72.5 14.5t-59 40t-40 59t-14.5 72.5
t14.5 72.5t40 59t59 40t72.5 14.5zM779 67q25 0 46.5 9.5t37.5 25.5t25.5 37.5t9.5 46.5t-9.5 46.5t-25.5 37.5t-37.5 25.5t-46.5 9.5t-46.5 -9.5t-37.5 -25.5t-25.5 -37.5t-9.5 -46.5t9.5 -46.5t25.5 -37.5t37.5 -25.5t46.5 -9.5z" />
    <glyph glyph-name="numbersign" unicode="#" horiz-adv-x="684" 
d="M459 381l41 127h62l-43 -127h135l-19 -58h-135l-48 -139h134l-19 -58h-135l-42 -126h-61l43 125h-145l-46 -125h-60l43 126h-134l19 58h134l48 139h-133l19 58h134l43 127h61l-44 -127h148zM391 184q13 37 23 70t23 69h-144q-13 -36 -24 -69t-25 -70h147z" />
    <glyph glyph-name="ampersand" unicode="&#x26;" horiz-adv-x="633" 
d="M491 236q0 33 -0.5 65t-0.5 61h113v-67h-46v-47.5t-2 -46.5q-2 -38 -22 -73t-63 -68l41 -60h-81l-19 26q-51 -23 -114 -23q-48 0 -95.5 14t-86 41t-62 66.5t-23.5 91.5q0 59 35.5 105.5t86.5 72.5q-19 27 -39 57.5t-20 65.5q0 38 18.5 67t47.5 49t64.5 30.5t69.5 10.5
q33 0 68.5 -10t65 -29.5t48.5 -49t19 -68.5q0 -33 -15.5 -59.5t-40.5 -46t-55.5 -31t-60.5 -14.5q-16 -2 -31.5 -4t-30.5 -6l171 -239q28 20 44 51.5t16 67.5zM217 419q16 5 34 7.5t38 2.5q21 0 45 5t44.5 15.5t34.5 27t14 40.5q0 23 -14 39.5t-34 27.5t-43.5 16t-42.5 5
t-40.5 -5t-40.5 -15.5t-32 -26t-15 -36.5q-2 -19 7 -40zM98 216q0 -35 16 -61t42.5 -43.5t59.5 -27.5t67 -11h24.5t23.5 2t21 4.5t19 5.5l-181 253q-41 -18 -66.5 -50.5t-25.5 -71.5z" />
    <glyph glyph-name="four" unicode="4" horiz-adv-x="608" 
d="M578 268v-67h-90v-201h-67v201h-391v72l388 402h70v-407h90zM421 581l-302 -313h302v313z" />
    <glyph glyph-name="three" unicode="3" horiz-adv-x="544" 
d="M304 420q44 -6 82 -24t66.5 -45.5t45 -62.5t16.5 -75q0 -44 -20 -82.5t-54 -67.5t-80 -46t-98 -17q-80 0 -142.5 37t-89.5 97l62 27q23 -44 69.5 -68.5t100.5 -24.5q33 0 65.5 10t59 29t43 46t16.5 60q0 29 -13.5 54t-35.5 43.5t-50.5 30t-58.5 14.5q-10 2 -20.5 2.5
t-20.5 -0.5l-42 42l168 208h-326v68h414v-68z" />
    <glyph glyph-name="two" unicode="2" horiz-adv-x="545" 
d="M514 67v-67h-483q-1 19 -1 37.5v36.5q0 59 18 97.5t47 64t66.5 40.5t77 26t77 22t66.5 28.5t47 44t18 69.5q0 31 -15 56.5t-40.5 44.5t-58 29.5t-68.5 10.5q-56 0 -103.5 -22.5t-74.5 -60.5l-53 42q19 26 45 46t56 33.5t63 20.5t66 7q43 0 87.5 -13.5t81 -40t59.5 -65
t23 -88.5q0 -52 -17.5 -86t-46.5 -57t-66 -38t-75.5 -28t-75.5 -27t-66 -34.5t-47.5 -51t-19.5 -77.5h413z" />
    <glyph glyph-name="one" unicode="1" horiz-adv-x="296" 
d="M266 0h-67v608h-169v67h236v-675z" />
    <glyph glyph-name="five" unicode="5" horiz-adv-x="554" 
d="M266 436q51 0 97 -16t81 -45t56.5 -69t23.5 -88q-1 -46 -22.5 -86t-56.5 -69t-81.5 -46t-97.5 -17q-40 0 -76 10t-67 27.5t-54.5 42t-38.5 53.5l62 26q24 -44 72 -68t102 -24q30 0 63.5 9.5t61.5 28.5t46.5 47.5t18.5 65.5q0 35 -17.5 63t-44.5 47.5t-61 30t-67 10.5
q-38 0 -74 -13t-65 -39h-65v358h412v-68h-345v-210q59 39 137 39z" />
    <glyph glyph-name="six" unicode="6" horiz-adv-x="561" 
d="M283 464q51 0 96 -18t78.5 -49t53.5 -73.5t20 -91.5q0 -50 -19.5 -92.5t-52.5 -73t-78 -48t-96 -17.5q-57 0 -103.5 20t-80.5 57t-52.5 89t-18.5 117q0 71 21.5 141t62 125.5t98.5 90t130 34.5q41 0 79 -12t71 -35l-45 -50q-49 29 -104 29q-43 0 -81 -17.5t-69 -48
t-52.5 -71.5t-30.5 -89q29 38 74 60.5t99 22.5zM283 67q33 0 66 11.5t59.5 33.5t42.5 52t16 68q0 36 -15.5 66t-41.5 51.5t-59 34t-68 12.5q-33 0 -66 -12t-58.5 -33.5t-41.5 -51.5t-16 -67q0 -36 15.5 -66t41 -51.5t58 -34t67.5 -13.5z" />
    <glyph glyph-name="seven" unicode="7" horiz-adv-x="576" 
d="M546 675v-76l-365 -599h-79l370 607h-442v68h516z" />
    <glyph glyph-name="eight" unicode="8" horiz-adv-x="562" 
d="M397 413q28 -12 53 -31.5t43 -44.5t28.5 -54t10.5 -62q0 -49 -21.5 -89.5t-56.5 -69.5t-80 -45t-93 -16t-93.5 16t-80.5 45t-56 69.5t-21 89.5q0 33 10 62t28 54t42.5 44.5t53.5 31.5q-29 17 -51 45.5t-22 65.5q0 35 17 63t44 47.5t61 29.5t68 10q33 0 66.5 -10.5
t60.5 -30t44 -47t17 -62.5q0 -37 -21.5 -65.5t-50.5 -45.5zM156 524q0 -19 12 -34.5t30 -26t40 -16t43 -5.5q20 0 42 5.5t40 16t30 26t12 34.5t-12 34.5t-30 26t-40 16t-42 5.5t-42 -5.5t-40.5 -16t-30.5 -26t-12 -34.5zM281 68q34 0 67.5 11t60 31t42.5 48t16 63
q0 34 -16 62.5t-42.5 49t-60 31.5t-67.5 11q-35 0 -68.5 -11t-60 -31t-42.5 -48.5t-16 -63.5t16.5 -63t42.5 -48t59.5 -31t68.5 -11z" />
    <glyph glyph-name="nine" unicode="9" horiz-adv-x="561" 
d="M278 211q-51 0 -96.5 18t-79 49.5t-53 74t-19.5 90.5t19.5 90t53 73.5t79 50t96.5 18.5q59 0 106 -21.5t79.5 -60t50 -90.5t17.5 -113q0 -84 -25.5 -155t-68.5 -123.5t-99.5 -82t-118.5 -29.5q-42 0 -79.5 12t-70.5 34l45 51q24 -14 50.5 -22t54.5 -8q42 0 80 17.5t69 48
t52.5 72t30.5 89.5q-28 -37 -73.5 -60t-99.5 -23zM278 607q-35 0 -68 -12t-59 -34t-41.5 -52t-15.5 -66q0 -34 15 -64t40.5 -52.5t58.5 -35.5t70 -13q35 0 68 12.5t58.5 34.5t40.5 52.5t15 65.5t-14.5 64.5t-39.5 51t-58 34.5t-70 14z" />
    <glyph glyph-name="equal" unicode="=" horiz-adv-x="409" 
d="M379 240h-349v62h349v-62zM379 375h-349v62h349v-62z" />
    <glyph glyph-name="at" unicode="@" horiz-adv-x="735" 
d="M367 675q70 0 131.5 -26.5t107.5 -72.5t72.5 -107.5t26.5 -131.5q0 -25 -7.5 -52t-22.5 -49.5t-37 -37t-50 -14.5q-32 0 -56 21.5t-38 47.5q-21 -32 -55 -50.5t-72 -18.5q-32 0 -59.5 12t-48.5 33t-33 48.5t-12 59.5q0 31 12 59t32.5 49t48.5 33.5t60 12.5
q31 0 58.5 -12.5t47.5 -34.5v47h48v-155q0 -15 3.5 -33t12 -34t21.5 -27t31 -11t31 11.5t21.5 28.5t12 35.5t3.5 33.5q0 59 -23.5 111t-63 91t-92.5 62t-111 23q-59 0 -111.5 -23t-92 -62.5t-62.5 -92.5t-23 -112t23 -111.5t63 -92t92.5 -62.5t111.5 -23q34 0 66 8t62 22
l28 -39q-72 -39 -157 -39q-70 0 -131.5 26.5t-107 72t-72 107t-26.5 131.5t26.5 131.5t72 107.5t107 72.5t131.5 26.5zM367 232q22 0 41 8t33.5 22.5t23 33.5t8.5 41q0 21 -8.5 40.5t-23 34t-34 23t-40.5 8.5q-22 0 -41 -8.5t-33.5 -23t-23 -34t-8.5 -40.5t8.5 -40.5
t23 -33.5t34 -22.5t40.5 -8.5z" />
    <glyph glyph-name="fraction" unicode="&#x2044;" horiz-adv-x="423" 
d="M30 -72l291 800h72l-291 -800h-72z" />
    <glyph glyph-name="breve" unicode="&#x2d8;" horiz-adv-x="354" 
d="M177 749q41 0 69.5 28.5t29.5 70.5h48q0 -30 -11.5 -57t-31.5 -47t-47 -31.5t-57 -11.5t-57 11.5t-47 31.5t-31.5 47t-11.5 57h48q0 -42 28.5 -70t70.5 -29z" />
    <glyph glyph-name="dotaccent" unicode="&#x2d9;" horiz-adv-x="145" 
d="M115 743q0 -17 -12.5 -29.5t-29.5 -12.5q-18 0 -30.5 12.5t-12.5 29.5q0 18 12.5 30t30.5 12q17 0 29.5 -12t12.5 -30z" />
    <glyph glyph-name="acute" unicode="&#xb4;" horiz-adv-x="213" 
d="M121 848h62l-91 -147h-62z" />
    <glyph glyph-name="hungarumlaut" unicode="&#x2dd;" horiz-adv-x="364" 
d="M121 848h63l-91 -147h-63zM271 848h63l-91 -147h-63z" />
    <glyph glyph-name="caron" unicode="&#x2c7;" horiz-adv-x="304" 
d="M274 848l-91 -147h-62l-91 147h62l60 -98l60 98h62z" />
    <glyph glyph-name="circumflex" unicode="&#x2c6;" horiz-adv-x="304" 
d="M30 701l91 147h62l91 -147h-62l-60 97l-60 -97h-62z" />
    <glyph glyph-name="ring" unicode="&#x2da;" horiz-adv-x="258" 
d="M129 879q-26 0 -43.5 -18t-17.5 -43q0 -26 17.5 -44t43.5 -18t43.5 18t17.5 44q0 25 -17.5 43t-43.5 18zM129 719q-20 0 -38 7.5t-31.5 21t-21.5 31.5t-8 39q0 20 8 38t21.5 31.5t31.5 21t38 7.5t38 -7.5t31.5 -21t21.5 -31.5t8 -38q0 -21 -8 -39t-21.5 -31.5t-31.5 -21
t-38 -7.5z" />
    <glyph glyph-name="grave" unicode="`" horiz-adv-x="213" 
d="M183 701h-62l-91 147h62z" />
    <glyph glyph-name="dotlessi" unicode="&#x131;" horiz-adv-x="341" 
d="M311 0h-68v397h-213v68h281v-465z" />
    <glyph glyph-name="less" unicode="&#x3c;" horiz-adv-x="398" 
d="M30 366l337 188v-78l-255 -140l256 -140v-78l-338 188v60z" />
    <glyph glyph-name="greater" unicode="&#x3e;" horiz-adv-x="398" 
d="M368 306l-338 -188v78l256 140l-256 140v78l338 -188v-60z" />
    <glyph glyph-name="asciicircum" unicode="^" horiz-adv-x="393" 
d="M363 436h-77l-90 156l-89 -156h-77l137 239h59z" />
    <glyph glyph-name="fi" unicode="&#xfb01;" horiz-adv-x="475" 
d="M445 389v-389h-67v322h-171v-322h-67v322h-110v67h110v54q0 48 18 90t49.5 73.5t73.5 50t90 18.5v-67q-33 0 -63 -13t-52.5 -35.5t-35.5 -52.5t-13 -64v-54h238z" />
    <glyph glyph-name="fl" unicode="&#xfb02;" horiz-adv-x="475" 
d="M445 675v-675h-67v608q-35 0 -66 -12.5t-54 -34.5t-37 -52t-14 -66v-54h110v-67h-110v-322h-67v322h-110v67h110v54q0 48 18 90t49.5 73.5t73.5 50t90 18.5h74z" />
    <glyph glyph-name="trademark" unicode="&#x2122;" horiz-adv-x="480" 
d="M450 675v-231h-28v176l-67 -100h-27l-66 100v-176h-29v231h28l81 -123l81 123h27zM206 675v-29h-74v-202h-28v202h-74v29h176z" />
    <glyph glyph-name="lslash" unicode="&#x142;" horiz-adv-x="477" 
d="M447 328l-175 -69v-258h-67v231l-175 -69v73l175 68v371h67v-344l175 69v-72z" />
    <glyph glyph-name="Lslash" unicode="&#x141;" horiz-adv-x="676" 
d="M225 67h421v-67h-489v213l-127 -51v73l127 50v390h68v-363l222 87v-72l-222 -88v-172z" />
    <glyph glyph-name="ogonek" unicode="&#x2db;" horiz-adv-x="379" 
d="M349 -179q-18 -14 -41 -27t-47.5 -23.5t-51 -17t-52.5 -6.5t-49.5 8t-40.5 23t-27 37t-10 50q0 34 13 68.5t35 66.5h71q-11 -12 -22.5 -27.5t-22 -33t-17 -36.5t-6.5 -37q0 -33 22.5 -49.5t53.5 -16.5q21 0 43 5.5t42.5 14t39 19.5t33.5 22z" />
    <glyph glyph-name="cedilla" unicode="&#xb8;" horiz-adv-x="353" 
d="M174 -21q30 -8 57.5 -22.5t47.5 -33.5t32 -42.5t12 -50.5q0 -42 -23 -71t-58.5 -47t-77.5 -26t-79 -8q-14 0 -27.5 1t-27.5 3l12 51q18 -3 43 -3q24 0 56 5t61 16.5t49 30.5t20 47q0 27 -18 46.5t-43.5 33.5t-54.5 22.5t-51 11.5l8 57h69z" />
    <glyph glyph-name="bullet" unicode="&#x2022;" horiz-adv-x="166" 
d="M136 338q0 -23 -15.5 -38.5t-37.5 -15.5q-23 0 -38 15.5t-15 38.5q0 22 15 37.5t38 15.5q22 0 37.5 -15.5t15.5 -37.5z" />
    <glyph glyph-name="florin" unicode="&#x192;" horiz-adv-x="401" 
d="M256 390h115v-67h-137v-377q0 -29 -3 -57q-4 -38 -21.5 -70.5t-44.5 -56.5t-61.5 -38t-73.5 -14v67q28 0 53 10.5t44 29.5t29.5 43.5t10.5 53.5v409h-137v67h137q0 25 2.5 47.5t7.5 44.5q6 36 23 66.5t43 53t58.5 35t69.5 12.5v-67q-29 0 -53.5 -11t-43.5 -30.5
t-29.5 -47t-10.5 -59.5z" />
    <glyph glyph-name="daggerdbl" unicode="&#x2021;" horiz-adv-x="382" 
d="M224 427v-179h128v-67h-128v-181h-67v181h-127v67h127v179h-127v67h127v181h67v-181h128v-67h-128z" />
    <glyph glyph-name="dagger" unicode="&#x2020;" horiz-adv-x="382" 
d="M352 427h-127v-427h-67v427h-128v67h128v181h67v-181h127v-67z" />
    <glyph glyph-name="perthousand" unicode="&#x2030;" horiz-adv-x="1433" 
d="M227 0l460 674h81l-460 -674h-81zM216 674q39 0 72.5 -14.5t59 -40t40 -59t14.5 -72.5t-14.5 -72.5t-40 -59t-59 -40t-72.5 -14.5t-72.5 14.5t-59 40t-40 59t-14.5 72.5t14.5 72.5t40 59t59 40t72.5 14.5zM216 369q25 0 46.5 9.5t37.5 25.5t25.5 37.5t9.5 46.5t-9.5 46.5
t-25.5 37.5t-37.5 25.5t-46.5 9.5t-46.5 -9.5t-37.5 -25.5t-25.5 -37.5t-9.5 -46.5t9.5 -46.5t25.5 -37.5t37.5 -25.5t46.5 -9.5zM779 372q39 0 72.5 -14.5t59 -40t40 -59t14.5 -72.5t-14.5 -72.5t-40 -59t-59 -40t-72.5 -14.5t-72.5 14.5t-59 40t-40 59t-14.5 72.5
t14.5 72.5t40 59t59 40t72.5 14.5zM779 67q25 0 46.5 9.5t37.5 25.5t25.5 37.5t9.5 46.5t-9.5 46.5t-25.5 37.5t-37.5 25.5t-46.5 9.5t-46.5 -9.5t-37.5 -25.5t-25.5 -37.5t-9.5 -46.5t9.5 -46.5t25.5 -37.5t37.5 -25.5t46.5 -9.5zM1217 372q38 0 72 -14.5t59.5 -40t40 -59
t14.5 -72.5t-14.5 -72.5t-40 -59t-59.5 -40t-72 -14.5q-39 0 -72.5 14.5t-59 40t-40 59t-14.5 72.5t14.5 72.5t40 59t59 40t72.5 14.5zM1217 67q24 0 45.5 9.5t37.5 25.5t25.5 37.5t9.5 46.5t-9.5 46.5t-25.5 37.5t-37.5 25.5t-45.5 9.5q-25 0 -46.5 -9.5t-37.5 -25.5
t-25.5 -37.5t-9.5 -46.5t9.5 -46.5t25.5 -37.5t37.5 -25.5t46.5 -9.5z" />
    <glyph glyph-name="questiondown" unicode="&#xbf;" horiz-adv-x="399" 
d="M231.986 1q-39.998 0 -76.4961 14.499q-36.4971 14.499 -64.4961 39.998q-27.998 25.498 -44.4971 60.4961t-16.499 75.9951q0 28.998 7.5 52.9971q7.49902 23.998 20.998 43.4971q13.5 19.499 30.998 35.498q17.499 15.999 37.498 29.998
q70.9961 47.9971 73.9951 141.991h62.9971q0 -49.9971 -12.5 -83.4951q-12.499 -33.498 -30.998 -56.4961q-18.499 -22.999 -39.9971 -39.498q-21.499 -16.499 -39.998 -33.498t-30.998 -37.9971q-12.499 -20.999 -12.499 -52.9971q0 -26.998 10.999 -50.4971
q11 -23.498 29.498 -40.4971q18.499 -16.999 42.998 -26.499q24.498 -9.49902 51.4971 -9.49902q24.998 0 48.9961 8.99902q23.999 9 42.998 25.999l44.9971 -46.9971q-27.998 -24.999 -63.4961 -38.498t-73.4951 -13.499zM270.983 635.961q0 -14.999 -10.999 -25.998
q-11 -10.999 -27.998 -10.999q-15 0 -26.499 10.999t-11.499 25.998q0 16.999 11.499 27.998q11.499 11 26.499 11q16.998 0 27.998 -11q10.999 -10.999 10.999 -27.998z" />
    <glyph glyph-name="guilsinglleft" unicode="&#x2039;" horiz-adv-x="398" 
d="M30 366l337 188v-78l-255 -140l256 -140v-78l-338 188v60z" />
    <glyph glyph-name="guilsinglright" unicode="&#x203a;" horiz-adv-x="398" 
d="M368 306l-338 -188v78l256 140l-256 140v78l338 -188v-60z" />
    <glyph glyph-name="registered" unicode="&#xae;" horiz-adv-x="270" 
d="M174 583q0 -11 -6 -20t-15 -14l21 -30h-23l-17 26h-19v-26h-19v101h40q16 0 27 -11t11 -26zM155 583q0 8 -5.5 13.5t-13.5 5.5h-21v-39h21q8 0 13.5 6t5.5 14zM135 675q22 0 41 -8.5t33 -22.5t22.5 -33t8.5 -41t-8.5 -41t-22.5 -33.5t-33 -22.5t-41 -8t-41 8t-33.5 22.5
t-22.5 33.5t-8 41t8 41t22.5 33t33.5 22.5t41 8.5zM135 484q18 0 33.5 6.5t27 18.5t18.5 27.5t7 33.5t-7 33.5t-18.5 27t-27 18t-33.5 6.5t-33.5 -6.5t-27 -18t-18.5 -27t-7 -33.5t7 -33.5t18.5 -27.5t27 -18.5t33.5 -6.5z" />
    <glyph glyph-name="copyright" unicode="&#xa9;" horiz-adv-x="735" 
d="M368 675q70 0 131 -26.5t107 -72.5t72.5 -107.5t26.5 -131.5t-26.5 -131.5t-72.5 -107t-107 -72t-131 -26.5t-131.5 26.5t-107.5 72t-72.5 107t-26.5 131.5t26.5 131.5t72.5 107.5t107.5 72.5t131.5 26.5zM368 52q58 0 110 22.5t90.5 61t61 90.5t22.5 111t-22.5 111
t-61 91t-90.5 61.5t-110 22.5q-59 0 -111 -22.5t-91 -61.5t-61.5 -91t-22.5 -111t22.5 -111t61.5 -90.5t91 -61t111 -22.5zM497 208q-26 -26 -59 -39.5t-70 -13.5q-38 0 -71.5 14t-58 39t-39 58t-14.5 71t14.5 71.5t39 58t58 39t71.5 14.5q37 0 70 -14t59 -40l-40 -40
q-17 17 -40.5 27t-48.5 10q-26 0 -49 -10t-40 -27t-27 -40t-10 -49t10 -49t27 -40t40 -27t49 -10q25 0 48.5 10t40.5 27z" />
    <glyph glyph-name="section" unicode="&#xa7;" horiz-adv-x="475" 
d="M89 534q0 -24 16.5 -42t40 -31t49 -20.5t44.5 -10.5q29 -4 64 -15.5t65.5 -31t51 -46t20.5 -60.5q0 -18 -6 -35.5t-17 -32.5q22 -30 22 -66q0 -39 -20.5 -66.5t-52 -44.5t-68 -24.5t-68.5 -7.5q-27 0 -55 7t-54.5 19t-50 29t-40.5 37l57 19q31 -28 71 -43.5t82 -15.5
q18 0 42.5 5t47 16t38.5 27.5t16 39.5q0 22 -17 40.5t-41 32t-50 22t-44 10.5q-29 4 -64 15.5t-65.5 31t-51 46t-20.5 60.5q0 38 23 67q-10 15 -16 31.5t-6 34.5q0 36 19.5 63t49 45t64.5 27t66 9q60 0 117 -25.5t97 -71.5l-56 -18q-32 30 -73 46t-85 16q-18 0 -42.5 -5
t-46.5 -15.5t-37.5 -27.5t-15.5 -40zM374 246q10 13 10 31q0 23 -17 40.5t-41 30t-50 20t-44 10.5q-34 6 -70 18.5t-65 32.5q-5 -8 -7.5 -15.5t-2.5 -16.5q0 -21 17.5 -39t41.5 -30.5t50 -20.5t43 -10q31 -5 70 -19.5t65 -31.5z" />
    <glyph glyph-name="Euro" unicode="&#x20ac;" horiz-adv-x="695" 
d="M665 99q-47 -47 -108.5 -73t-130.5 -26q-53 0 -101.5 16t-89.5 44.5t-73 68.5t-50 88h-82v62h65q-2 14 -4 29t-2 29q0 15 2 30t4 29h-65v62h82q18 48 50 88t73 68.5t89.5 44.5t101.5 16q69 0 130.5 -26t108.5 -74l-47 -46q-38 37 -87.5 58t-104.5 21q-38 0 -73.5 -11
t-66.5 -30.5t-55.5 -47t-40.5 -61.5h310v-62h-337q-6 -29 -6 -59t6 -58h337v-62h-310q16 -34 40.5 -61.5t55 -47t66 -30.5t74.5 -11q56 0 104.5 20.5t87.5 58.5z" />
    <glyph glyph-name="cent" unicode="&#xa2;" horiz-adv-x="448" 
d="M417 74q-28 -28 -62.5 -45.5t-74.5 -20.5v-40h-57v41q-41 6 -76.5 26t-61.5 50t-40.5 68t-14.5 80q0 43 14.5 81t40.5 68t61 50.5t77 26.5v43h57v-42q39 -3 75 -19.5t63 -43.5l-40 -41q-41 40 -98 46v-337q29 3 52.5 16.5t44.5 33.5zM87 233q0 -30 10.5 -57.5t28.5 -49.5
t43 -37t54 -21v331q-29 -6 -54 -21t-43 -37t-28.5 -49.5t-10.5 -58.5z" />
    <glyph glyph-name="asciitilde" unicode="~" horiz-adv-x="569" 
d="M539 360q-25 -34 -60 -57.5t-78 -28.5q-21 -1 -46 2q-24 4 -44.5 12t-40.5 16t-39 14.5t-40 6.5q-31 0 -57.5 -15t-45.5 -38l-58 36q25 35 60 58.5t78 28.5q11 1 20.5 1t20.5 -2q24 -3 46 -11.5t42 -17.5t40 -15.5t41 -6.5q30 0 56 14.5t46 37.5z" />
    <glyph glyph-name="sterling" unicode="&#xa3;" horiz-adv-x="564" 
d="M467 441q0 29 -11 54t-29.5 44t-44 29.5t-54.5 10.5t-54 -11t-43.5 -29.5t-29.5 -44t-11 -53.5v-115h174v-68h-174v-153q27 -1 50 -7t44.5 -13t42 -13t41.5 -6q35 0 61 17.5t44 46.5l60 -33q-28 -44 -68.5 -71.5t-93.5 -27.5q-26 0 -48 6t-43 13t-41 13t-41 6
q-35 0 -62 -17t-46 -46l-60 33q17 26 40 47t52 34v354q0 42 16.5 79.5t44.5 65.5t65.5 44.5t79.5 16.5t79.5 -16.5t65.5 -44.5t44.5 -65.5t16.5 -79.5h-67z" />
    <glyph glyph-name="tilde" unicode="&#x2dc;" horiz-adv-x="324" 
d="M113 721q-13 0 -27 -4t-24 -12l-32 41q35 24 75 27q5 0 9.5 -0.5t9.5 -0.5q23 -2 44 -10.5t44 -8.5q27 0 50 15q6 -7 16 -19.5t16 -20.5q-16 -12 -35.5 -18.5t-39.5 -8.5q-5 0 -9.5 0.5t-9.5 0.5q-23 2 -43.5 10.5t-43.5 8.5z" />
    <glyph glyph-name="macron" unicode="&#xaf;" horiz-adv-x="335" 
d="M305 703h-275v52h275v-52z" />
    <glyph glyph-name="degree" unicode="&#xb0;" horiz-adv-x="211" 
d="M106 675q31 0 53 -22t22 -54q0 -31 -22 -53t-53 -22q-32 0 -54 22t-22 53q0 32 22 54t54 22zM106 559q17 0 28.5 11.5t11.5 28.5t-11.5 29t-28.5 12t-29 -12t-12 -29t12 -28.5t29 -11.5z" />
    <glyph glyph-name="currency" unicode="&#xa4;" horiz-adv-x="386" 
d="M356 355q0 -46 -22 -83t-60 -58q21 -12 38 -29l-37 -28q-34 34 -82 34t-82 -34l-36 28q16 16 37 29q-37 21 -59.5 58t-22.5 83q0 45 22.5 82.5t59.5 57.5q-22 13 -37 30l36 27q17 -17 38 -26t44 -9t44 9t38 26l37 -27q-16 -17 -38 -30q38 -20 60 -57.5t22 -82.5zM193 237
q25 0 46.5 9t37.5 25t25 37.5t9 46.5q0 24 -9 45.5t-25 37.5t-37.5 25.5t-46.5 9.5q-24 0 -45.5 -9.5t-37.5 -25.5t-25.5 -37.5t-9.5 -45.5q0 -25 9.5 -46.5t25.5 -37.5t37.5 -25t45.5 -9z" />
    <glyph glyph-name="yen" unicode="&#xa5;" horiz-adv-x="566" 
d="M344 370h107v-62h-133v-123h133v-62h-133v-123h-67v123h-136v62h136v123h-136v62h109l-194 305h81l173 -273l172 273h80z" />
    <glyph glyph-name="underscore" unicode="_" horiz-adv-x="497" 
d="M467 0h-437v62h437v-62z" />
    <glyph glyph-name="plusminus" unicode="&#xb1;" horiz-adv-x="409" 
d="M379 307h-144v-143h-62v143h-143v62h143v144h62v-144h144v-62zM30 62h349v-62h-349v62z" />
    <glyph glyph-name="multiply" unicode="&#xd7;" horiz-adv-x="350" 
d="M276 192l-101 102l-101 -101l-44 44l102 100l-102 103l44 43l101 -102l102 102l43 -43l-101 -103l101 -100z" />
    <glyph glyph-name="divide" unicode="&#xf7;" horiz-adv-x="393" 
d="M154 446q0 18 12.5 30.5t29.5 12.5q20 0 31.5 -12.5t11.5 -30.5q0 -17 -11.5 -30t-31.5 -13q-17 0 -29.5 13t-12.5 30zM154 228q0 18 13 31t30 13q18 0 30.5 -13t12.5 -31q0 -16 -12.5 -28.5t-30.5 -12.5q-17 0 -30 12.5t-13 28.5zM363 306h-333v64h333v-64z" />
    <glyph glyph-name="Oslash" unicode="&#xd8;" horiz-adv-x="734" 
d="M628 548q36 -44 56 -98t20 -113q0 -70 -26.5 -131.5t-72 -107t-107 -72t-131.5 -26.5q-59 0 -113 20t-99 56l-55 -55l-49 50l55 55q-37 44 -56.5 98t-19.5 113q0 70 26.5 131t72 107t107 72.5t131.5 26.5q60 0 113.5 -20t98.5 -56l55 55l49 -50zM100 335q0 -43 14 -84.5
t40 -76.5l376 376q-74 57 -162 57q-56 0 -104.5 -21.5t-85 -58t-57.5 -86t-21 -106.5zM367 67q52 0 98.5 19.5t82 53t57.5 79t26 97.5q2 17 1.5 34t-3.5 34q-11 62 -49 116l-376 -375q35 -29 77 -43.5t86 -14.5z" />
    <glyph glyph-name="oslash" unicode="&#xf8;" horiz-adv-x="574" 
d="M473 369q22 -29 33.5 -64.5t11.5 -72.5q0 -48 -18 -90t-49.5 -73.5t-73.5 -49.5t-90 -18q-75 0 -137 45l-71 -71l-49 49l71 72q-22 29 -33.5 64t-11.5 71q0 48 18.5 90t50 73.5t73.5 49.5t90 18q37 0 71.5 -11.5t64.5 -32.5l70 72l50 -50zM123 230q0 -23 7.5 -44.5
t21.5 -38.5l220 220q-6 5 -13 9t-15 7q-34 13 -73 10q-31 -3 -58 -16.5t-47 -35.5t-31.5 -50.5t-11.5 -60.5zM452 233q0 49 -30 85l-220 -221q26 -20 58 -26q19 -4 38 -3q32 2 60 16t49 36.5t33 51.5t12 61z" />
    <glyph glyph-name="ae" unicode="&#xe6;" horiz-adv-x="922" 
d="M495 465v-465h-67v82q-29 -38 -72.5 -60t-93.5 -22q-48 0 -90.5 18t-74 49.5t-49.5 74t-18 90.5t18 90.5t49.5 74t74 50t90.5 18.5q50 0 93.5 -22t72.5 -60v82h67zM262 67q34 0 64.5 13t53 35.5t35.5 52.5t13 64t-13 64.5t-35.5 53t-53 35.5t-64.5 13t-64 -13
t-52.5 -35.5t-35.5 -53t-13 -64.5t13 -64t35.5 -52.5t52.5 -35.5t64 -13zM660 465q48 0 90 -18.5t73.5 -50.5t50 -74t18.5 -90q0 -17 -4 -32h-385q5 -29 19 -53t35 -41.5t47 -27.5t56 -10q33 0 63.5 12.5t53.5 35.5l48 -48q-33 -32 -75 -50t-90 -18t-90.5 18t-74 49.5
t-49.5 74t-18 90.5t18 90.5t49.5 74t74 50t90.5 18.5zM660 398q-29 0 -55.5 -10t-47.5 -28t-35.5 -42t-18.5 -52h314q-5 28 -19 52t-35 42t-47.5 28t-55.5 10z" />
    <glyph glyph-name="zcaron" unicode="&#x17e;" horiz-adv-x="485" 
d="M455 398l-328 -330h325v-67h-422v67l328 330h-324v67h421v-67zM364 648l-91 -147h-62l-91 147h62l60 -98l60 98h62z" />
    <glyph glyph-name="Zcaron" unicode="&#x17d;" horiz-adv-x="574" 
d="M544 68v-67h-514v67l428 540h-428v67h514v-67l-428 -540h428zM409 863l-91 -147h-62l-91 147h62l60 -98l60 98h62z" />
    <glyph glyph-name="scaron" unicode="&#x161;" horiz-adv-x="424" 
d="M216 266q27 -2 58 -11t58 -25.5t44.5 -41.5t17.5 -59q0 -33 -17.5 -57t-44 -40t-58.5 -23.5t-60 -7.5q-52 0 -101 21t-82 63l54 41q22 -30 59 -44t75 -14q13 0 31.5 3t35.5 10.5t29 19.5t12 30t-13 31t-31.5 21.5t-39 12.5t-35.5 4q-27 2 -58 11t-58 25.5t-44.5 41.5
t-17.5 59q0 33 17.5 57t44 40t58 23.5t60.5 7.5q52 0 100.5 -21t82.5 -63l-54 -42q-22 31 -59 45t-75 14q-13 0 -31.5 -3t-35.5 -10.5t-29 -19.5t-12 -30t13 -31t31.5 -21.5t39 -12.5t35.5 -4zM334 648l-91 -147h-62l-91 147h62l60 -98l60 98h62z" />
    <glyph glyph-name="Scaron" unicode="&#x160;" horiz-adv-x="535" 
d="M98 495q0 -27 18.5 -48.5t45.5 -37.5t56.5 -26t51.5 -14q35 -6 75.5 -20.5t74.5 -38.5t56.5 -56.5t22.5 -73.5q0 -44 -21 -77.5t-54 -56t-73.5 -33.5t-79.5 -11q-35 0 -69 7.5t-65.5 22t-58.5 36t-48 49.5l65 24q33 -35 79.5 -55t94.5 -20q23 0 51.5 7t54 21t43 34.5
t17.5 48.5t-18.5 50t-45 38t-56.5 26t-53 14q-35 6 -75.5 21t-75 39t-57 56.5t-22.5 73.5q0 44 21.5 77.5t55.5 56t74.5 34t79.5 11.5q70 0 134.5 -32.5t107.5 -88.5l-64 -23q-14 18 -35 32.5t-44.5 25t-48.5 16t-47 5.5q-24 0 -53.5 -7t-55 -21t-42.5 -35.5t-17 -50.5z
M388 863l-91 -147h-62l-91 147h62l60 -98l60 98h62z" />
    <glyph glyph-name="Agrave" unicode="&#xc0;" horiz-adv-x="625" 
d="M523 0l-50 138h-321l-50 -138h-72l247 675h72l246 -675h-72zM177 205h272l-136 372zM341 716h-62l-91 147h62z" />
    <glyph glyph-name="Aacute" unicode="&#xc1;" horiz-adv-x="625" 
d="M523 0l-50 138h-321l-50 -138h-72l247 675h72l246 -675h-72zM177 205h272l-136 372zM376 863h62l-91 -147h-62z" />
    <glyph glyph-name="Acircumflex" unicode="&#xc2;" horiz-adv-x="625" 
d="M523 0l-50 138h-321l-50 -138h-72l247 675h72l246 -675h-72zM177 205h272l-136 372zM191 716l91 147h62l91 -147h-62l-60 97l-60 -97h-62z" />
    <glyph glyph-name="Atilde" unicode="&#xc3;" horiz-adv-x="625" 
d="M523 0l-50 138h-321l-50 -138h-72l247 675h72l246 -675h-72zM177 205h272l-136 372zM263 736q-13 0 -27 -4t-24 -12l-32 41q35 24 75 27q5 0 9.5 -0.5t9.5 -0.5q23 -2 44 -10.5t44 -8.5q27 0 50 15q6 -7 16 -19.5t16 -20.5q-16 -12 -35.5 -18.5t-39.5 -8.5q-5 0 -9.5 0.5
t-9.5 0.5q-23 2 -43.5 10.5t-43.5 8.5z" />
    <glyph glyph-name="dieresis" unicode="&#xa8;" horiz-adv-x="273" 
d="M243 763q0 -18 -13 -31t-32 -13t-32 13t-13 31q0 20 13 33t32 13t32 -13t13 -33zM120 763q0 -18 -13 -31t-32 -13t-32 13t-13 31q0 20 13 33t32 13t32 -13t13 -33z" />
    <glyph glyph-name="Adieresis" unicode="&#xc4;" horiz-adv-x="625" 
d="M523 0l-50 138h-321l-50 -138h-72l247 675h72l246 -675h-72zM177 205h272l-136 372zM419 778q0 -18 -13 -31t-32 -13t-32 13t-13 31q0 20 13 33t32 13t32 -13t13 -33zM296 778q0 -18 -13 -31t-32 -13t-32 13t-13 31q0 20 13 33t32 13t32 -13t13 -33z" />
    <glyph glyph-name="Aring" unicode="&#xc5;" horiz-adv-x="625" 
d="M523 0l-50 138h-321l-50 -138h-72l247 675h72l246 -675h-72zM177 205h272l-136 372zM313 894q-26 0 -43.5 -18t-17.5 -43q0 -26 17.5 -44t43.5 -18t43.5 18t17.5 44q0 25 -17.5 43t-43.5 18zM313 734q-20 0 -38 7.5t-31.5 21t-21.5 31.5t-8 39q0 20 8 38t21.5 31.5
t31.5 21t38 7.5t38 -7.5t31.5 -21t21.5 -31.5t8 -38q0 -21 -8 -39t-21.5 -31.5t-31.5 -21t-38 -7.5z" />
    <glyph glyph-name="Egrave" unicode="&#xc8;" horiz-adv-x="546" 
d="M97 608v-211h315v-67h-315v-262h419v-68h-486v675h486v-67h-419zM343 716h-62l-91 147h62z" />
    <glyph glyph-name="Eacute" unicode="&#xc9;" horiz-adv-x="546" 
d="M97 608v-211h315v-67h-315v-262h419v-68h-486v675h486v-67h-419zM300 863h62l-91 -147h-62z" />
    <glyph glyph-name="Ecircumflex" unicode="&#xca;" horiz-adv-x="546" 
d="M97 608v-211h315v-67h-315v-262h419v-68h-486v675h486v-67h-419zM155 716l91 147h62l91 -147h-62l-60 97l-60 -97h-62z" />
    <glyph glyph-name="Edieresis" unicode="&#xcb;" horiz-adv-x="546" 
d="M97 608v-211h315v-67h-315v-262h419v-68h-486v675h486v-67h-419zM383 778q0 -18 -13 -31t-32 -13t-32 13t-13 31q0 20 13 33t32 13t32 -13t13 -33zM260 778q0 -18 -13 -31t-32 -13t-32 13t-13 31q0 20 13 33t32 13t32 -13t13 -33z" />
    <glyph glyph-name="Igrave" unicode="&#xcc;" horiz-adv-x="218" 
d="M188 0h-67v675h67v-675zM183 716h-62l-91 147h62z" />
    <glyph glyph-name="Iacute" unicode="&#xcd;" horiz-adv-x="214" 
d="M97 0h-67v675h67v-675zM122 863h62l-91 -147h-62z" />
    <glyph glyph-name="Icircumflex" unicode="&#xce;" horiz-adv-x="304" 
d="M186 0h-67v675h67v-675zM30 716l91 147h62l91 -147h-62l-60 97l-60 -97h-62z" />
    <glyph glyph-name="Idieresis" unicode="&#xcf;" horiz-adv-x="273" 
d="M170 0h-67v675h67v-675zM243 778q0 -18 -13 -31t-32 -13t-32 13t-13 31q0 20 13 33t32 13t32 -13t13 -33zM120 778q0 -18 -13 -31t-32 -13t-32 13t-13 31q0 20 13 33t32 13t32 -13t13 -33z" />
    <glyph glyph-name="Eth" unicode="&#xd0;" horiz-adv-x="749" 
d="M382 675q67 -1 128.5 -27t107.5 -71.5t73.5 -107t27.5 -132.5q0 -70 -26.5 -131.5t-72.5 -107t-107 -72t-131 -26.5h-223v306h-129v62h129v307h223zM382 67q55 0 104 21.5t86 58t58.5 85.5t21.5 105q0 55 -21.5 104.5t-58 86.5t-86 58.5t-104.5 21.5h-156v-240h129v-62
h-129v-239h156z" />
    <glyph glyph-name="eth" unicode="&#xf0;" horiz-adv-x="608" 
d="M578 517h-83v-517h-67v82q-29 -38 -72.5 -60t-93.5 -22q-48 0 -90.5 18t-74 49.5t-49.5 74t-18 90.5t18 90t49.5 73.5t74 50t90.5 18.5q50 0 93.5 -22t72.5 -60v135h-140v61h140v96h67v-96h83v-61zM262 67q34 0 64.5 13t53 35.5t35.5 52.5t13 64t-13 64t-35.5 52.5
t-53 35.5t-64.5 13t-64 -13t-52.5 -35.5t-35.5 -52.5t-13 -64t13 -64t35.5 -52.5t52.5 -35.5t64 -13z" />
    <glyph glyph-name="Ntilde" unicode="&#xd1;" horiz-adv-x="517" 
d="M418 0l-321 547v-547h-67v675h69l321 -547v547h67v-675h-69zM213 736q-13 0 -27 -4t-24 -12l-32 41q35 24 75 27q5 0 9.5 -0.5t9.5 -0.5q23 -2 44 -10.5t44 -8.5q27 0 50 15q6 -7 16 -19.5t16 -20.5q-16 -12 -35.5 -18.5t-39.5 -8.5q-5 0 -9.5 0.5t-9.5 0.5
q-23 2 -43.5 10.5t-43.5 8.5z" />
    <glyph glyph-name="Ograve" unicode="&#xd2;" horiz-adv-x="734" 
d="M367 675q70 0 131 -26.5t107 -72.5t72.5 -107t26.5 -131t-26.5 -131.5t-72.5 -107t-107 -72t-131 -26.5t-131.5 26.5t-107 72t-72 107t-26.5 131.5t26.5 131t72 107t107 72.5t131.5 26.5zM367 68q56 0 105 21t86 57.5t58 86t21 105.5q0 55 -21 104.5t-58 86t-86 58
t-105 21.5t-105 -21.5t-86 -58t-58 -86t-21 -104.5q0 -56 21 -105.5t58 -86t86 -57.5t105 -21zM403 716h-62l-91 147h62z" />
    <glyph glyph-name="Oacute" unicode="&#xd3;" horiz-adv-x="734" 
d="M367 675q70 0 131 -26.5t107 -72.5t72.5 -107t26.5 -131t-26.5 -131.5t-72.5 -107t-107 -72t-131 -26.5t-131.5 26.5t-107 72t-72 107t-26.5 131.5t26.5 131t72 107t107 72.5t131.5 26.5zM367 68q56 0 105 21t86 57.5t58 86t21 105.5q0 55 -21 104.5t-58 86t-86 58
t-105 21.5t-105 -21.5t-86 -58t-58 -86t-21 -104.5q0 -56 21 -105.5t58 -86t86 -57.5t105 -21zM415 863h62l-91 -147h-62z" />
    <glyph glyph-name="Ocircumflex" unicode="&#xd4;" horiz-adv-x="734" 
d="M367 675q70 0 131 -26.5t107 -72.5t72.5 -107t26.5 -131t-26.5 -131.5t-72.5 -107t-107 -72t-131 -26.5t-131.5 26.5t-107 72t-72 107t-26.5 131.5t26.5 131t72 107t107 72.5t131.5 26.5zM367 68q56 0 105 21t86 57.5t58 86t21 105.5q0 55 -21 104.5t-58 86t-86 58
t-105 21.5t-105 -21.5t-86 -58t-58 -86t-21 -104.5q0 -56 21 -105.5t58 -86t86 -57.5t105 -21zM245 716l91 147h62l91 -147h-62l-60 97l-60 -97h-62z" />
    <glyph glyph-name="Otilde" unicode="&#xd5;" horiz-adv-x="734" 
d="M367 675q70 0 131 -26.5t107 -72.5t72.5 -107t26.5 -131t-26.5 -131.5t-72.5 -107t-107 -72t-131 -26.5t-131.5 26.5t-107 72t-72 107t-26.5 131.5t26.5 131t72 107t107 72.5t131.5 26.5zM367 68q56 0 105 21t86 57.5t58 86t21 105.5q0 55 -21 104.5t-58 86t-86 58
t-105 21.5t-105 -21.5t-86 -58t-58 -86t-21 -104.5q0 -56 21 -105.5t58 -86t86 -57.5t105 -21zM319 736q-13 0 -27 -4t-24 -12l-32 41q35 24 75 27q5 0 9.5 -0.5t9.5 -0.5q23 -2 44 -10.5t44 -8.5q27 0 50 15q6 -7 16 -19.5t16 -20.5q-16 -12 -35.5 -18.5t-39.5 -8.5
q-5 0 -9.5 0.5t-9.5 0.5q-23 2 -43.5 10.5t-43.5 8.5z" />
    <glyph glyph-name="Odieresis" unicode="&#xd6;" horiz-adv-x="734" 
d="M367 675q70 0 131 -26.5t107 -72.5t72.5 -107t26.5 -131t-26.5 -131.5t-72.5 -107t-107 -72t-131 -26.5t-131.5 26.5t-107 72t-72 107t-26.5 131.5t26.5 131t72 107t107 72.5t131.5 26.5zM367 68q56 0 105 21t86 57.5t58 86t21 105.5q0 55 -21 104.5t-58 86t-86 58
t-105 21.5t-105 -21.5t-86 -58t-58 -86t-21 -104.5q0 -56 21 -105.5t58 -86t86 -57.5t105 -21zM474 778q0 -18 -13 -31t-32 -13t-32 13t-13 31q0 20 13 33t32 13t32 -13t13 -33zM351 778q0 -18 -13 -31t-32 -13t-32 13t-13 31q0 20 13 33t32 13t32 -13t13 -33z" />
    <glyph glyph-name="Ugrave" unicode="&#xd9;" horiz-adv-x="575" 
d="M545 675v-417q0 -53 -20.5 -100t-55.5 -82t-82 -55.5t-100 -20.5t-100 20.5t-82 55.5t-55 82t-20 100v417h67v-417q0 -39 15 -74t40.5 -61t60.5 -41t74 -15q40 0 74.5 15t60.5 41t41 61t15 74v417h67zM333 716h-62l-91 147h62z" />
    <glyph glyph-name="Uacute" unicode="&#xda;" horiz-adv-x="575" 
d="M545 675v-417q0 -53 -20.5 -100t-55.5 -82t-82 -55.5t-100 -20.5t-100 20.5t-82 55.5t-55 82t-20 100v417h67v-417q0 -39 15 -74t40.5 -61t60.5 -41t74 -15q40 0 74.5 15t60.5 41t41 61t15 74v417h67zM331 863h62l-91 -147h-62z" />
    <glyph glyph-name="Ucircumflex" unicode="&#xdb;" horiz-adv-x="575" 
d="M545 675v-417q0 -53 -20.5 -100t-55.5 -82t-82 -55.5t-100 -20.5t-100 20.5t-82 55.5t-55 82t-20 100v417h67v-417q0 -39 15 -74t40.5 -61t60.5 -41t74 -15q40 0 74.5 15t60.5 41t41 61t15 74v417h67zM165 716l91 147h62l91 -147h-62l-60 97l-60 -97h-62z" />
    <glyph glyph-name="Udieresis" unicode="&#xdc;" horiz-adv-x="575" 
d="M545 675v-417q0 -53 -20.5 -100t-55.5 -82t-82 -55.5t-100 -20.5t-100 20.5t-82 55.5t-55 82t-20 100v417h67v-417q0 -39 15 -74t40.5 -61t60.5 -41t74 -15q40 0 74.5 15t60.5 41t41 61t15 74v417h67zM394 778q0 -18 -13 -31t-32 -13t-32 13t-13 31q0 20 13 33t32 13
t32 -13t13 -33zM271 778q0 -18 -13 -31t-32 -13t-32 13t-13 31q0 20 13 33t32 13t32 -13t13 -33z" />
    <glyph glyph-name="Yacute" unicode="&#xdd;" horiz-adv-x="567" 
d="M318 329v-328h-67v328l-221 346h81l174 -273l171 273h81zM339 863h62l-91 -147h-62z" />
    <glyph glyph-name="agrave" unicode="&#xe0;" 
d="M495 465v-465h-67v82q-29 -38 -72.5 -60t-93.5 -22q-48 0 -90.5 18t-74 49.5t-49.5 74t-18 90.5t18 90.5t49.5 74t74 50t90.5 18.5q50 0 93.5 -22t72.5 -60v82h67zM262 67q34 0 64.5 13t53 35.5t35.5 52.5t13 64t-13 64.5t-35.5 53t-53 35.5t-64.5 13t-64 -13
t-52.5 -35.5t-35.5 -53t-13 -64.5t13 -64t35.5 -52.5t52.5 -35.5t64 -13zM301 501h-62l-91 147h62z" />
    <glyph glyph-name="aacute" unicode="&#xe1;" 
d="M495 465v-465h-67v82q-29 -38 -72.5 -60t-93.5 -22q-48 0 -90.5 18t-74 49.5t-49.5 74t-18 90.5t18 90.5t49.5 74t74 50t90.5 18.5q50 0 93.5 -22t72.5 -60v82h67zM262 67q34 0 64.5 13t53 35.5t35.5 52.5t13 64t-13 64.5t-35.5 53t-53 35.5t-64.5 13t-64 -13
t-52.5 -35.5t-35.5 -53t-13 -64.5t13 -64t35.5 -52.5t52.5 -35.5t64 -13zM315 648h62l-91 -147h-62z" />
    <glyph glyph-name="acircumflex" unicode="&#xe2;" 
d="M495 465v-465h-67v82q-29 -38 -72.5 -60t-93.5 -22q-48 0 -90.5 18t-74 49.5t-49.5 74t-18 90.5t18 90.5t49.5 74t74 50t90.5 18.5q50 0 93.5 -22t72.5 -60v82h67zM262 67q34 0 64.5 13t53 35.5t35.5 52.5t13 64t-13 64.5t-35.5 53t-53 35.5t-64.5 13t-64 -13
t-52.5 -35.5t-35.5 -53t-13 -64.5t13 -64t35.5 -52.5t52.5 -35.5t64 -13zM140 501l91 147h62l91 -147h-62l-60 97l-60 -97h-62z" />
    <glyph glyph-name="atilde" unicode="&#xe3;" 
d="M495 465v-465h-67v82q-29 -38 -72.5 -60t-93.5 -22q-48 0 -90.5 18t-74 49.5t-49.5 74t-18 90.5t18 90.5t49.5 74t74 50t90.5 18.5q50 0 93.5 -22t72.5 -60v82h67zM262 67q34 0 64.5 13t53 35.5t35.5 52.5t13 64t-13 64.5t-35.5 53t-53 35.5t-64.5 13t-64 -13
t-52.5 -35.5t-35.5 -53t-13 -64.5t13 -64t35.5 -52.5t52.5 -35.5t64 -13zM223 521q-13 0 -27 -4t-24 -12l-32 41q35 24 75 27q5 0 9.5 -0.5t9.5 -0.5q23 -2 44 -10.5t44 -8.5q27 0 50 15q6 -7 16 -19.5t16 -20.5q-16 -12 -35.5 -18.5t-39.5 -8.5q-5 0 -9.5 0.5t-9.5 0.5
q-23 2 -43.5 10.5t-43.5 8.5z" />
    <glyph glyph-name="adieresis" unicode="&#xe4;" 
d="M495 465v-465h-67v82q-29 -38 -72.5 -60t-93.5 -22q-48 0 -90.5 18t-74 49.5t-49.5 74t-18 90.5t18 90.5t49.5 74t74 50t90.5 18.5q50 0 93.5 -22t72.5 -60v82h67zM262 67q34 0 64.5 13t53 35.5t35.5 52.5t13 64t-13 64.5t-35.5 53t-53 35.5t-64.5 13t-64 -13
t-52.5 -35.5t-35.5 -53t-13 -64.5t13 -64t35.5 -52.5t52.5 -35.5t64 -13zM369 563q0 -18 -13 -31t-32 -13t-32 13t-13 31q0 20 13 33t32 13t32 -13t13 -33zM246 563q0 -18 -13 -31t-32 -13t-32 13t-13 31q0 20 13 33t32 13t32 -13t13 -33z" />
    <glyph glyph-name="aring" unicode="&#xe5;" 
d="M495 465v-465h-67v82q-29 -38 -72.5 -60t-93.5 -22q-48 0 -90.5 18t-74 49.5t-49.5 74t-18 90.5t18 90.5t49.5 74t74 50t90.5 18.5q50 0 93.5 -22t72.5 -60v82h67zM262 67q34 0 64.5 13t53 35.5t35.5 52.5t13 64t-13 64.5t-35.5 53t-53 35.5t-64.5 13t-64 -13
t-52.5 -35.5t-35.5 -53t-13 -64.5t13 -64t35.5 -52.5t52.5 -35.5t64 -13zM262 679q-26 0 -43.5 -18t-17.5 -43q0 -26 17.5 -44t43.5 -18t43.5 18t17.5 44q0 25 -17.5 43t-43.5 18zM262 519q-20 0 -38 7.5t-31.5 21t-21.5 31.5t-8 39q0 20 8 38t21.5 31.5t31.5 21t38 7.5
t38 -7.5t31.5 -21t21.5 -31.5t8 -38q0 -21 -8 -39t-21.5 -31.5t-31.5 -21t-38 -7.5z" />
    <glyph glyph-name="egrave" unicode="&#xe8;" horiz-adv-x="524" 
d="M262 465q48 0 90 -18.5t73.5 -50.5t50 -74t18.5 -90q0 -17 -4 -32h-385q5 -29 19 -53t35 -41.5t47 -27.5t56 -10q33 0 63.5 12.5t53.5 35.5l48 -48q-33 -32 -75 -50t-90 -18t-90.5 18t-74 49.5t-49.5 74t-18 90.5t18 90.5t49.5 74t74 50t90.5 18.5zM262 398
q-29 0 -55.5 -10t-47.5 -28t-35.5 -42t-18.5 -52h314q-5 28 -19 52t-35 42t-47.5 28t-55.5 10zM298 501h-62l-91 147h62z" />
    <glyph glyph-name="ecircumflex" unicode="&#xea;" horiz-adv-x="524" 
d="M262 465q48 0 90 -18.5t73.5 -50.5t50 -74t18.5 -90q0 -17 -4 -32h-385q5 -29 19 -53t35 -41.5t47 -27.5t56 -10q33 0 63.5 12.5t53.5 35.5l48 -48q-33 -32 -75 -50t-90 -18t-90.5 18t-74 49.5t-49.5 74t-18 90.5t18 90.5t49.5 74t74 50t90.5 18.5zM262 398
q-29 0 -55.5 -10t-47.5 -28t-35.5 -42t-18.5 -52h314q-5 28 -19 52t-35 42t-47.5 28t-55.5 10zM140 501l91 147h62l91 -147h-62l-60 97l-60 -97h-62z" />
    <glyph glyph-name="edieresis" unicode="&#xeb;" horiz-adv-x="524" 
d="M262 465q48 0 90 -18.5t73.5 -50.5t50 -74t18.5 -90q0 -17 -4 -32h-385q5 -29 19 -53t35 -41.5t47 -27.5t56 -10q33 0 63.5 12.5t53.5 35.5l48 -48q-33 -32 -75 -50t-90 -18t-90.5 18t-74 49.5t-49.5 74t-18 90.5t18 90.5t49.5 74t74 50t90.5 18.5zM262 398
q-29 0 -55.5 -10t-47.5 -28t-35.5 -42t-18.5 -52h314q-5 28 -19 52t-35 42t-47.5 28t-55.5 10zM368 563q0 -18 -13 -31t-32 -13t-32 13t-13 31q0 20 13 33t32 13t32 -13t13 -33zM245 563q0 -18 -13 -31t-32 -13t-32 13t-13 31q0 20 13 33t32 13t32 -13t13 -33z" />
    <glyph glyph-name="ydieresis" unicode="&#xff;" 
d="M495 464v-549q0 -48 -18.5 -90.5t-50 -74t-74 -50t-90.5 -18.5t-90.5 18.5t-74 50t-49.5 74t-18 90.5h67q0 -34 13 -64t35.5 -52.5t52.5 -35.5t64 -13t64 13t52.5 35.5t35.5 52.5t13 64v168q-28 -38 -71.5 -60t-93.5 -22q-48 0 -90.5 18t-74 49.5t-49.5 74t-18 90.5v231
h67v-231q0 -33 13 -63t35 -52.5t52 -36t65 -13.5q33 0 63 13t52.5 35t36 52t13.5 65v231h68zM369 563q0 -18 -13 -31t-32 -13t-32 13t-13 31q0 20 13 33t32 13t32 -13t13 -33zM246 563q0 -18 -13 -31t-32 -13t-32 13t-13 31q0 20 13 33t32 13t32 -13t13 -33z" />
    <glyph glyph-name="ntilde" unicode="&#xf1;" 
d="M262 465q48 0 90.5 -18.5t74 -50t50 -74t18.5 -90.5v-232h-68v232q0 33 -13 63t-35 52.5t-52.5 36t-64.5 13.5q-33 0 -63 -13t-52.5 -35.5t-36 -52.5t-13.5 -64v-232h-67v463h67v-80q29 38 72.5 60t92.5 22zM217 521q-13 0 -27 -4t-24 -12l-32 41q35 24 75 27
q5 0 9.5 -0.5t9.5 -0.5q23 -2 44 -10.5t44 -8.5q27 0 50 15q6 -7 16 -19.5t16 -20.5q-16 -12 -35.5 -18.5t-39.5 -8.5q-5 0 -9.5 0.5t-9.5 0.5q-23 2 -43.5 10.5t-43.5 8.5z" />
    <glyph glyph-name="ograve" unicode="&#xf2;" 
d="M262 465q48 0 90.5 -18.5t74 -50t50 -74t18.5 -90.5t-18.5 -90.5t-50 -74t-74 -49.5t-90.5 -18t-90.5 18t-74 49.5t-49.5 74t-18 90.5t18 90.5t49.5 74t74 50t90.5 18.5zM262 67q34 0 64.5 13t53 35.5t35.5 52.5t13 64t-13 64.5t-35.5 53t-53 35.5t-64.5 13t-64 -13
t-52.5 -35.5t-35.5 -53t-13 -64.5t13 -64t35.5 -52.5t52.5 -35.5t64 -13zM303 501h-62l-91 147h62z" />
    <glyph glyph-name="oacute" unicode="&#xf3;" 
d="M262 465q48 0 90.5 -18.5t74 -50t50 -74t18.5 -90.5t-18.5 -90.5t-50 -74t-74 -49.5t-90.5 -18t-90.5 18t-74 49.5t-49.5 74t-18 90.5t18 90.5t49.5 74t74 50t90.5 18.5zM262 67q34 0 64.5 13t53 35.5t35.5 52.5t13 64t-13 64.5t-35.5 53t-53 35.5t-64.5 13t-64 -13
t-52.5 -35.5t-35.5 -53t-13 -64.5t13 -64t35.5 -52.5t52.5 -35.5t64 -13zM316 648h62l-91 -147h-62z" />
    <glyph glyph-name="ocircumflex" unicode="&#xf4;" 
d="M262 465q48 0 90.5 -18.5t74 -50t50 -74t18.5 -90.5t-18.5 -90.5t-50 -74t-74 -49.5t-90.5 -18t-90.5 18t-74 49.5t-49.5 74t-18 90.5t18 90.5t49.5 74t74 50t90.5 18.5zM262 67q34 0 64.5 13t53 35.5t35.5 52.5t13 64t-13 64.5t-35.5 53t-53 35.5t-64.5 13t-64 -13
t-52.5 -35.5t-35.5 -53t-13 -64.5t13 -64t35.5 -52.5t52.5 -35.5t64 -13zM140 501l91 147h62l91 -147h-62l-60 97l-60 -97h-62z" />
    <glyph glyph-name="otilde" unicode="&#xf5;" 
d="M262 465q48 0 90.5 -18.5t74 -50t50 -74t18.5 -90.5t-18.5 -90.5t-50 -74t-74 -49.5t-90.5 -18t-90.5 18t-74 49.5t-49.5 74t-18 90.5t18 90.5t49.5 74t74 50t90.5 18.5zM262 67q34 0 64.5 13t53 35.5t35.5 52.5t13 64t-13 64.5t-35.5 53t-53 35.5t-64.5 13t-64 -13
t-52.5 -35.5t-35.5 -53t-13 -64.5t13 -64t35.5 -52.5t52.5 -35.5t64 -13zM215 521q-13 0 -27 -4t-24 -12l-32 41q35 24 75 27q5 0 9.5 -0.5t9.5 -0.5q23 -2 44 -10.5t44 -8.5q27 0 50 15q6 -7 16 -19.5t16 -20.5q-16 -12 -35.5 -18.5t-39.5 -8.5q-5 0 -9.5 0.5t-9.5 0.5
q-23 2 -43.5 10.5t-43.5 8.5z" />
    <glyph glyph-name="odieresis" unicode="&#xf6;" 
d="M262 465q48 0 90.5 -18.5t74 -50t50 -74t18.5 -90.5t-18.5 -90.5t-50 -74t-74 -49.5t-90.5 -18t-90.5 18t-74 49.5t-49.5 74t-18 90.5t18 90.5t49.5 74t74 50t90.5 18.5zM262 67q34 0 64.5 13t53 35.5t35.5 52.5t13 64t-13 64.5t-35.5 53t-53 35.5t-64.5 13t-64 -13
t-52.5 -35.5t-35.5 -53t-13 -64.5t13 -64t35.5 -52.5t52.5 -35.5t64 -13zM369 563q0 -18 -13 -31t-32 -13t-32 13t-13 31q0 20 13 33t32 13t32 -13t13 -33zM246 563q0 -18 -13 -31t-32 -13t-32 13t-13 31q0 20 13 33t32 13t32 -13t13 -33z" />
    <glyph glyph-name="ugrave" unicode="&#xf9;" 
d="M262 0q-48 0 -90.5 18.5t-74 50t-49.5 74t-18 90.5v232h67v-232q0 -33 13 -63t35 -53t52 -36.5t65 -13.5q33 0 63.5 13t53 35.5t36 52.5t13.5 65v232h67v-465h-67v82q-29 -38 -72.5 -60t-93.5 -22zM299 501h-62l-91 147h62z" />
    <glyph glyph-name="uacute" unicode="&#xfa;" 
d="M262 0q-48 0 -90.5 18.5t-74 50t-49.5 74t-18 90.5v232h67v-232q0 -33 13 -63t35 -53t52 -36.5t65 -13.5q33 0 63.5 13t53 35.5t36 52.5t13.5 65v232h67v-465h-67v82q-29 -38 -72.5 -60t-93.5 -22zM317 648h62l-91 -147h-62z" />
    <glyph glyph-name="ucircumflex" unicode="&#xfb;" 
d="M262 0q-48 0 -90.5 18.5t-74 50t-49.5 74t-18 90.5v232h67v-232q0 -33 13 -63t35 -53t52 -36.5t65 -13.5q33 0 63.5 13t53 35.5t36 52.5t13.5 65v232h67v-465h-67v82q-29 -38 -72.5 -60t-93.5 -22zM140 501l91 147h62l91 -147h-62l-60 97l-60 -97h-62z" />
    <glyph glyph-name="udieresis" unicode="&#xfc;" 
d="M262 0q-48 0 -90.5 18.5t-74 50t-49.5 74t-18 90.5v232h67v-232q0 -33 13 -63t35 -53t52 -36.5t65 -13.5q33 0 63.5 13t53 35.5t36 52.5t13.5 65v232h67v-465h-67v82q-29 -38 -72.5 -60t-93.5 -22zM369 563q0 -18 -13 -31t-32 -13t-32 13t-13 31q0 20 13 33t32 13t32 -13
t13 -33zM246 563q0 -18 -13 -31t-32 -13t-32 13t-13 31q0 20 13 33t32 13t32 -13t13 -33z" />
    <glyph glyph-name="yacute" unicode="&#xfd;" 
d="M495 464v-549q0 -48 -18.5 -90.5t-50 -74t-74 -50t-90.5 -18.5t-90.5 18.5t-74 50t-49.5 74t-18 90.5h67q0 -34 13 -64t35.5 -52.5t52.5 -35.5t64 -13t64 13t52.5 35.5t35.5 52.5t13 64v168q-28 -38 -71.5 -60t-93.5 -22q-48 0 -90.5 18t-74 49.5t-49.5 74t-18 90.5v231
h67v-231q0 -33 13 -63t35 -52.5t52 -36t65 -13.5q33 0 63 13t52.5 35t36 52t13.5 65v231h68zM316 648h62l-91 -147h-62z" />
    <glyph glyph-name="Ydieresis" unicode="&#x178;" horiz-adv-x="567" 
d="M318 329v-328h-67v328l-221 346h81l174 -273l171 273h81zM373 769q0 -18 -13 -31t-32 -13t-32 13t-13 31q0 20 13 33t32 13t32 -13t13 -33zM250 769q0 -18 -13 -31t-32 -13t-32 13t-13 31q0 20 13 33t32 13t32 -13t13 -33z" />
    <glyph glyph-name="Thorn" unicode="&#xde;" horiz-adv-x="576" 
d="M289 588q53 0 100 -19.5t82 -53.5t55 -80t20 -98t-20 -97.5t-55 -79.5t-82 -54t-100 -20h-189v-86h-70v675h70v-87h189zM289 153q37 0 70.5 14.5t59.5 39t41.5 58t15.5 72.5q0 38 -14.5 70.5t-39.5 57t-59 39.5t-74 17h-189v-368h189z" />
    <glyph glyph-name="thorn" unicode="&#xfe;" horiz-adv-x="530" 
d="M265 569q49 0 92 -18.5t74.5 -50t50 -73.5t18.5 -90t-18.5 -90t-50 -73.5t-74.5 -50t-92 -18.5q-50 0 -93 21.5t-72 59.5v-186h-70v675h70v-187q29 38 72 59.5t93 21.5zM265 172q35 0 65 13.5t52.5 36t35 52.5t12.5 63q0 34 -12.5 64t-35 52.5t-52.5 35.5t-65 13t-65 -13
t-52 -35.5t-35 -52.5t-13 -64t13 -64t35 -52.5t52 -35.5t65 -13z" />
    <glyph glyph-name="germandbls" unicode="&#xdf;" horiz-adv-x="498" 
d="M331 412q27 -13 52 -32t43.5 -43t30 -52.5t11.5 -60.5q0 -50 -22.5 -91t-59 -70.5t-84 -45.5t-98.5 -16v67q34 0 69 10.5t63.5 30.5t46.5 49t18 66q0 30 -14.5 56.5t-40.5 47t-62 33t-80 14.5v67q22 0 44.5 4.5t40.5 14t29.5 25.5t11.5 39q0 19 -11 34t-29 25.5t-40 16.5
t-44 6q-21 0 -40 -5.5t-33.5 -16t-24 -26t-10.5 -34.5v-525h-68v525q0 34 14.5 61.5t38.5 47t56 30t67 10.5q34 0 68.5 -10t62 -29.5t44.5 -47t17 -62.5q0 -38 -17.5 -66.5t-49.5 -46.5z" />
    <glyph glyph-name="endash" unicode="&#x2013;" horiz-adv-x="409" 
d="M379 308h-349v62h349v-62z" />
    <glyph glyph-name="mu" unicode="&#xb5;" 
d="M495 465v-465h-67v83q-28 -38 -71.5 -60t-94.5 -22t-94 22t-71 60v-310h-67v692h67v-232q0 -33 13 -63t35 -52.5t52 -36t65 -13.5q34 0 64.5 13t53 35t35.5 52t13 65v232h67z" />
    <glyph glyph-name="paragraph" unicode="&#xb6;" horiz-adv-x="729" 
d="M699 675v-68h-115v-607h-67v607h-155v-607h-68v207q-57 0 -105.5 18.5t-84 50t-55 74.5t-19.5 91t19.5 91t53 74.5t78 50t95.5 18.5h423z" />
    <glyph glyph-name="minus" unicode="&#x2212;" horiz-adv-x="409" 
d="M379 319h-349v62h349v-62z" />
    <glyph glyph-name="logicalnot" unicode="&#xac;" 
d="M495 464v-280h-67v213h-398v67h465z" />
    <glyph glyph-name="emdash" unicode="&#x2014;" horiz-adv-x="497" 
d="M467 308h-437v62h437v-62z" />
    <glyph glyph-name="brokenbar" unicode="&#xa6;" horiz-adv-x="122" 
d="M92 389h-62v238h62v-238zM92 56h-62v237h62v-237z" />
    <glyph glyph-name="guillemotleft" unicode="&#xab;" horiz-adv-x="737" 
d="M30 366l338 188v-78l-255 -140l256 -140v-78l-339 188v60zM369 366l338 188v-78l-256 -140l256 -140v-78l-338 188v60z" />
    <glyph glyph-name="guillemotright" unicode="&#xbb;" horiz-adv-x="736" 
d="M706 306l-337 -188v78l255 140l-256 140v78l338 -188v-60zM368 306l-338 -188v78l256 140l-256 140v78l338 -188v-60z" />
    <glyph glyph-name="zacute" unicode="&#x17a;" horiz-adv-x="485" 
d="M455 398l-328 -330h325v-67h-422v67l328 330h-324v67h421v-67zM306 648h62l-91 -147h-62z" />
    <glyph glyph-name="Zacute" unicode="&#x179;" horiz-adv-x="574" 
d="M544 68v-67h-514v67l428 540h-428v67h514v-67l-428 -540h428zM339 863h62l-91 -147h-62z" />
    <glyph glyph-name="tcaron" unicode="&#x165;" horiz-adv-x="508" 
d="M206 232q0 -34 13 -63.5t35 -51.5t52 -35.5t65 -14.5v-67q-48 0 -90.5 18t-74 49.5t-49.5 74t-18 90.5v189h-109v66h109v188h67v-188h165v-66h-165v-189zM478 636q-1 -5 -2.5 -11.5t-3.5 -16t-6 -25t-10 -38.5h-13v53q-17 0 -29 10.5t-12 27.5q0 16 11 27.5t27 11.5
t27 -11.5t11 -27.5z" />
    <glyph glyph-name="Tcaron" unicode="&#x164;" horiz-adv-x="573" 
d="M543 675v-67h-223v-608h-67v608h-223v67h513zM409 863l-91 -147h-62l-91 147h62l60 -98l60 98h62z" />
    <glyph glyph-name="sacute" unicode="&#x15b;" horiz-adv-x="424" 
d="M216 266q27 -2 58 -11t58 -25.5t44.5 -41.5t17.5 -59q0 -33 -17.5 -57t-44 -40t-58.5 -23.5t-60 -7.5q-52 0 -101 21t-82 63l54 41q22 -30 59 -44t75 -14q13 0 31.5 3t35.5 10.5t29 19.5t12 30t-13 31t-31.5 21.5t-39 12.5t-35.5 4q-27 2 -58 11t-58 25.5t-44.5 41.5
t-17.5 59q0 33 17.5 57t44 40t58 23.5t60.5 7.5q52 0 100.5 -21t82.5 -63l-54 -42q-22 31 -59 45t-75 14q-13 0 -31.5 -3t-35.5 -10.5t-29 -19.5t-12 -30t13 -31t31.5 -21.5t39 -12.5t35.5 -4zM265 648h62l-91 -147h-62z" />
    <glyph glyph-name="Sacute" unicode="&#x15a;" horiz-adv-x="535" 
d="M98 495q0 -27 18.5 -48.5t45.5 -37.5t56.5 -26t51.5 -14q35 -6 75.5 -20.5t74.5 -38.5t56.5 -56.5t22.5 -73.5q0 -44 -21 -77.5t-54 -56t-73.5 -33.5t-79.5 -11q-35 0 -69 7.5t-65.5 22t-58.5 36t-48 49.5l65 24q33 -35 79.5 -55t94.5 -20q23 0 51.5 7t54 21t43 34.5
t17.5 48.5t-18.5 50t-45 38t-56.5 26t-53 14q-35 6 -75.5 21t-75 39t-57 56.5t-22.5 73.5q0 44 21.5 77.5t55.5 56t74.5 34t79.5 11.5q70 0 134.5 -32.5t107.5 -88.5l-64 -23q-14 18 -35 32.5t-44.5 25t-48.5 16t-47 5.5q-24 0 -53.5 -7t-55 -21t-42.5 -35.5t-17 -50.5z
M319 863h62l-91 -147h-62z" />
    <glyph glyph-name="lcaron" unicode="&#x13e;" horiz-adv-x="263" 
d="M97 0h-67v675h67v-675zM233 636q-1 -5 -2.5 -11.5t-3.5 -16t-6 -25t-10 -38.5h-13v53q-17 0 -29 10.5t-12 27.5q0 16 11 27.5t27 11.5t27 -11.5t11 -27.5z" />
    <glyph glyph-name="zdotaccent" unicode="&#x17c;" horiz-adv-x="485" 
d="M455 398l-328 -330h325v-67h-422v67l328 330h-324v67h421v-67zM285 543q0 -17 -12.5 -29.5t-29.5 -12.5q-18 0 -30.5 12.5t-12.5 29.5q0 18 12.5 30t30.5 12q17 0 29.5 -12t12.5 -30z" />
    <glyph glyph-name="Zdotaccent" unicode="&#x17b;" horiz-adv-x="574" 
d="M544 68v-67h-514v67l428 540h-428v67h514v-67l-428 -540h428zM328 758q0 -17 -12.5 -29.5t-29.5 -12.5q-18 0 -30.5 12.5t-12.5 29.5q0 18 12.5 30t30.5 12q17 0 29.5 -12t12.5 -30z" />
    <glyph glyph-name="racute" unicode="&#x155;" horiz-adv-x="457" 
d="M262 465q49 0 91 -18.5t74 -50.5q-11 -12 -25 -25.5t-23 -21.5q-23 23 -53 35.5t-64 12.5t-64 -13t-52.5 -35.5t-35.5 -52.5t-13 -64v-232h-67v465h67v-82q28 37 71 59.5t94 22.5zM263 648h62l-91 -147h-62z" />
    <glyph glyph-name="Racute" unicode="&#x154;" horiz-adv-x="568" 
d="M538 423q0 -39 -12 -75.5t-33 -67.5t-51 -54.5t-66 -36.5l128 -189h-81l-117 174q-13 -1 -25.5 -1.5t-25.5 -0.5h-158v-172h-67v675h257q52 0 98 -20t80 -54t53.5 -80t19.5 -98zM97 239h190q38 0 71.5 14.5t58.5 39.5t39.5 58.5t14.5 71.5t-14.5 72t-39.5 59t-58.5 39.5
t-71.5 14.5h-190v-369zM295 863h62l-91 -147h-62z" />
    <glyph glyph-name="Abreve" unicode="&#x102;" horiz-adv-x="625" 
d="M523 0l-50 138h-321l-50 -138h-72l247 675h72l246 -675h-72zM177 205h272l-136 372zM312 764q41 0 69.5 28.5t29.5 70.5h48q0 -30 -11.5 -57t-31.5 -47t-47 -31.5t-57 -11.5t-57 11.5t-47 31.5t-31.5 47t-11.5 57h48q0 -42 28.5 -70t70.5 -29z" />
    <glyph glyph-name="abreve" unicode="&#x103;" 
d="M495 465v-465h-67v82q-29 -38 -72.5 -60t-93.5 -22q-48 0 -90.5 18t-74 49.5t-49.5 74t-18 90.5t18 90.5t49.5 74t74 50t90.5 18.5q50 0 93.5 -22t72.5 -60v82h67zM262 67q34 0 64.5 13t53 35.5t35.5 52.5t13 64t-13 64.5t-35.5 53t-53 35.5t-64.5 13t-64 -13
t-52.5 -35.5t-35.5 -53t-13 -64.5t13 -64t35.5 -52.5t52.5 -35.5t64 -13zM262 549q41 0 69.5 28.5t29.5 70.5h48q0 -30 -11.5 -57t-31.5 -47t-47 -31.5t-57 -11.5t-57 11.5t-47 31.5t-31.5 47t-11.5 57h48q0 -42 28.5 -70t70.5 -29z" />
    <glyph glyph-name="lacute" unicode="&#x13a;" horiz-adv-x="216" 
d="M97 0h-67v675h67v-675zM124 863h62l-91 -147h-62z" />
    <glyph glyph-name="Lacute" unicode="&#x139;" horiz-adv-x="549" 
d="M519 68v-67h-489v675h67v-608h422zM126 863h62l-91 -147h-62z" />
    <glyph glyph-name="cacute" unicode="&#x107;" horiz-adv-x="457" 
d="M427 68q-32 -32 -75.5 -50t-89.5 -18q-48 0 -90.5 18t-74 49.5t-49.5 74t-18 90.5t18 90.5t49.5 74t74 50t90.5 18.5q46 0 89.5 -18t75.5 -50l-48 -48q-23 23 -53.5 36t-63.5 13q-35 0 -65 -13t-52 -35.5t-35 -53t-13 -64.5t13 -64t35 -52.5t52 -35.5t65 -13
q32 0 63 12.5t54 35.5zM313 648h62l-91 -147h-62z" />
    <glyph glyph-name="Cacute" unicode="&#x106;" horiz-adv-x="636" 
d="M606 98q-46 -46 -107.5 -72t-131.5 -26t-131.5 26.5t-107 72t-72 107t-26.5 131.5t26.5 131.5t72 107.5t107 72.5t131.5 26.5t131.5 -26.5t107.5 -72.5l-48 -47q-37 36 -86.5 57.5t-104.5 21.5q-54 0 -102.5 -21.5t-86 -58t-59.5 -86t-22 -105.5q0 -54 21 -102.5
t57.5 -86t85.5 -59.5t106 -22q54 0 104 20.5t87 58.5zM422 863h62l-91 -147h-62z" />
    <glyph glyph-name="ccaron" unicode="&#x10d;" horiz-adv-x="457" 
d="M427 68q-32 -32 -75.5 -50t-89.5 -18q-48 0 -90.5 18t-74 49.5t-49.5 74t-18 90.5t18 90.5t49.5 74t74 50t90.5 18.5q46 0 89.5 -18t75.5 -50l-48 -48q-23 23 -53.5 36t-63.5 13q-35 0 -65 -13t-52 -35.5t-35 -53t-13 -64.5t13 -64t35 -52.5t52 -35.5t65 -13
q32 0 63 12.5t54 35.5zM380 648l-91 -147h-62l-91 147h62l60 -98l60 98h62z" />
    <glyph glyph-name="Ccaron" unicode="&#x10c;" horiz-adv-x="636" 
d="M606 98q-46 -46 -107.5 -72t-131.5 -26t-131.5 26.5t-107 72t-72 107t-26.5 131.5t26.5 131.5t72 107.5t107 72.5t131.5 26.5t131.5 -26.5t107.5 -72.5l-48 -47q-37 36 -86.5 57.5t-104.5 21.5q-54 0 -102.5 -21.5t-86 -58t-59.5 -86t-22 -105.5q0 -54 21 -102.5
t57.5 -86t85.5 -59.5t106 -22q54 0 104 20.5t87 58.5zM491 863l-91 -147h-62l-91 147h62l60 -98l60 98h62z" />
    <glyph glyph-name="Eogonek" unicode="&#x118;" horiz-adv-x="746" 
d="M97 608v-211h315v-67h-315v-262h419v-68h-486v675h486v-67h-419zM716 -179q-18 -14 -41 -27t-47.5 -23.5t-51 -17t-52.5 -6.5t-49.5 8t-40.5 23t-27 37t-10 50q0 34 13 68.5t35 66.5h71q-11 -12 -22.5 -27.5t-22 -33t-17 -36.5t-6.5 -37q0 -33 22.5 -49.5t53.5 -16.5
q21 0 43 5.5t42.5 14t39 19.5t33.5 22z" />
    <glyph glyph-name="ecaron" unicode="&#x11b;" horiz-adv-x="524" 
d="M262 465q48 0 90 -18.5t73.5 -50.5t50 -74t18.5 -90q0 -17 -4 -32h-385q5 -29 19 -53t35 -41.5t47 -27.5t56 -10q33 0 63.5 12.5t53.5 35.5l48 -48q-33 -32 -75 -50t-90 -18t-90.5 18t-74 49.5t-49.5 74t-18 90.5t18 90.5t49.5 74t74 50t90.5 18.5zM262 398
q-29 0 -55.5 -10t-47.5 -28t-35.5 -42t-18.5 -52h314q-5 28 -19 52t-35 42t-47.5 28t-55.5 10zM380 648l-91 -147h-62l-91 147h62l60 -98l60 98h62z" />
    <glyph glyph-name="Ecaron" unicode="&#x11a;" horiz-adv-x="546" 
d="M97 608v-211h315v-67h-315v-262h419v-68h-486v675h486v-67h-419zM408 863l-91 -147h-62l-91 147h62l60 -98l60 98h62z" />
    <glyph glyph-name="dcaron" unicode="&#x10f;" horiz-adv-x="660" 
d="M30 232q0 48 18 90t49.5 73.5t74 50t90.5 18.5q50 0 93.5 -22t72.5 -60v292h67v-674h-67v82q-29 -38 -72.5 -60t-93.5 -22q-48 0 -90.5 18t-74 49.5t-49.5 74t-18 90.5zM97 232q0 -34 13 -64t35.5 -52.5t52.5 -35.5t64 -13t64.5 13t53 35.5t35.5 52.5t13 64t-13 64.5
t-35.5 52.5t-53 35t-64.5 13t-64 -13t-52.5 -35t-35.5 -52.5t-13 -64.5zM630 636q-1 -5 -2.5 -11.5t-3.5 -16t-6 -25t-10 -38.5h-13v53q-17 0 -29 10.5t-12 27.5q0 16 11 27.5t27 11.5t27 -11.5t11 -27.5z" />
    <glyph glyph-name="Dcaron" unicode="&#x10e;" horiz-adv-x="620" 
d="M252 675q68 -1 129.5 -27t108 -71.5t73.5 -107t27 -132.5q0 -70 -26.5 -131.5t-72.5 -107t-107.5 -72t-131.5 -26.5h-222v675h222zM252 67q55 1 104 22t86 57.5t59 85.5t22 105t-21.5 105.5t-58 86t-86 58t-105.5 21.5h-155v-541h155zM370 863l-91 -147h-62l-91 147h62
l60 -98l60 98h62z" />
    <glyph glyph-name="Dcroat" unicode="&#x110;" horiz-adv-x="753" 
d="M386 675q67 -1 128.5 -27t107.5 -71.5t73.5 -107t27.5 -132.5q0 -70 -26.5 -131.5t-72.5 -107t-107 -72t-131 -26.5h-223v306h-133v62h133v307h223zM386 67q55 0 104 21.5t86 58t58.5 85.5t21.5 105q0 55 -21.5 104.5t-58 86.5t-86 58.5t-104.5 21.5h-156v-240h149v-62
h-149v-239h156z" />
    <glyph glyph-name="dcroat" unicode="&#x111;" horiz-adv-x="608" 
d="M578 516h-83v-516h-67v82q-29 -38 -72.5 -60t-93.5 -22q-48 0 -90.5 18t-74 49.5t-49.5 74t-18 90.5t18 90t49.5 73.5t74 50t90.5 18.5q50 0 93.5 -22t72.5 -60v134h-140v62h140v96h67v-96h83v-62zM262 67q34 0 64.5 13t53 35.5t35.5 52.5t13 64t-13 64t-35.5 52.5
t-53 35.5t-64.5 13t-64 -13t-52.5 -35.5t-35.5 -52.5t-13 -64t13 -64t35.5 -52.5t52.5 -35.5t64 -13z" />
    <glyph glyph-name="nacute" unicode="&#x144;" 
d="M262 465q48 0 90.5 -18.5t74 -50t50 -74t18.5 -90.5v-232h-68v232q0 33 -13 63t-35 52.5t-52.5 36t-64.5 13.5q-33 0 -63 -13t-52.5 -35.5t-36 -52.5t-13.5 -64v-232h-67v463h67v-80q29 38 72.5 60t92.5 22zM295 648h62l-91 -147h-62z" />
    <glyph glyph-name="Nacute" unicode="&#x143;" horiz-adv-x="517" 
d="M418 0l-321 547v-547h-67v675h69l321 -547v547h67v-675h-69zM308 863h62l-91 -147h-62z" />
    <glyph glyph-name="Ncaron" unicode="&#x147;" horiz-adv-x="517" 
d="M418 0l-321 547v-547h-67v675h69l321 -547v547h67v-675h-69zM380 863l-91 -147h-62l-91 147h62l60 -98l60 98h62z" />
    <glyph glyph-name="ncaron" unicode="&#x148;" 
d="M262 465q48 0 90.5 -18.5t74 -50t50 -74t18.5 -90.5v-232h-68v232q0 33 -13 63t-35 52.5t-52.5 36t-64.5 13.5q-33 0 -63 -13t-52.5 -35.5t-36 -52.5t-13.5 -64v-232h-67v463h67v-80q29 38 72.5 60t92.5 22zM384 648l-91 -147h-62l-91 147h62l60 -98l60 98h62z" />
    <glyph glyph-name="ohungarumlaut" unicode="&#x151;" 
d="M262 465q48 0 90.5 -18.5t74 -50t50 -74t18.5 -90.5t-18.5 -90.5t-50 -74t-74 -49.5t-90.5 -18t-90.5 18t-74 49.5t-49.5 74t-18 90.5t18 90.5t49.5 74t74 50t90.5 18.5zM262 67q34 0 64.5 13t53 35.5t35.5 52.5t13 64t-13 64.5t-35.5 53t-53 35.5t-64.5 13t-64 -13
t-52.5 -35.5t-35.5 -53t-13 -64.5t13 -64t35.5 -52.5t52.5 -35.5t64 -13zM241 648h63l-91 -147h-63zM391 648h63l-91 -147h-63z" />
    <glyph glyph-name="rcaron" unicode="&#x159;" horiz-adv-x="457" 
d="M262 465q49 0 91 -18.5t74 -50.5q-11 -12 -25 -25.5t-23 -21.5q-23 23 -53 35.5t-64 12.5t-64 -13t-52.5 -35.5t-35.5 -52.5t-13 -64v-232h-67v465h67v-82q28 37 71 59.5t94 22.5zM351 648l-91 -147h-62l-91 147h62l60 -98l60 98h62z" />
    <glyph glyph-name="Rcaron" unicode="&#x158;" horiz-adv-x="568" 
d="M538 423q0 -39 -12 -75.5t-33 -67.5t-51 -54.5t-66 -36.5l128 -189h-81l-117 174q-13 -1 -25.5 -1.5t-25.5 -0.5h-158v-172h-67v675h257q52 0 98 -20t80 -54t53.5 -80t19.5 -98zM97 239h190q38 0 71.5 14.5t58.5 39.5t39.5 58.5t14.5 71.5t-14.5 72t-39.5 59t-58.5 39.5
t-71.5 14.5h-190v-369zM379 863l-91 -147h-62l-91 147h62l60 -98l60 98h62z" />
    <glyph glyph-name="uring" unicode="&#x16f;" 
d="M262 0q-48 0 -90.5 18.5t-74 50t-49.5 74t-18 90.5v232h67v-232q0 -33 13 -63t35 -53t52 -36.5t65 -13.5q33 0 63.5 13t53 35.5t36 52.5t13.5 65v232h67v-465h-67v82q-29 -38 -72.5 -60t-93.5 -22zM262 679q-26 0 -43.5 -18t-17.5 -43q0 -26 17.5 -44t43.5 -18t43.5 18
t17.5 44q0 25 -17.5 43t-43.5 18zM262 519q-20 0 -38 7.5t-31.5 21t-21.5 31.5t-8 39q0 20 8 38t21.5 31.5t31.5 21t38 7.5t38 -7.5t31.5 -21t21.5 -31.5t8 -38q0 -21 -8 -39t-21.5 -31.5t-31.5 -21t-38 -7.5z" />
    <glyph glyph-name="Uring" unicode="&#x16e;" horiz-adv-x="575" 
d="M545 675v-417q0 -53 -20.5 -100t-55.5 -82t-82 -55.5t-100 -20.5t-100 20.5t-82 55.5t-55 82t-20 100v417h67v-417q0 -39 15 -74t40.5 -61t60.5 -41t74 -15q40 0 74.5 15t60.5 41t41 61t15 74v417h67zM287 894q-26 0 -43.5 -18t-17.5 -43q0 -26 17.5 -44t43.5 -18
t43.5 18t17.5 44q0 25 -17.5 43t-43.5 18zM287 734q-20 0 -38 7.5t-31.5 21t-21.5 31.5t-8 39q0 20 8 38t21.5 31.5t31.5 21t38 7.5t38 -7.5t31.5 -21t21.5 -31.5t8 -38q0 -21 -8 -39t-21.5 -31.5t-31.5 -21t-38 -7.5z" />
    <glyph glyph-name="uhungarumlaut" unicode="&#x171;" 
d="M262 0q-48 0 -90.5 18.5t-74 50t-49.5 74t-18 90.5v232h67v-232q0 -33 13 -63t35 -53t52 -36.5t65 -13.5q33 0 63.5 13t53 35.5t36 52.5t13.5 65v232h67v-465h-67v82q-29 -38 -72.5 -60t-93.5 -22zM230 648h63l-91 -147h-63zM380 648h63l-91 -147h-63z" />
    <glyph glyph-name="Uhungarumlaut" unicode="&#x170;" horiz-adv-x="575" 
d="M545 675v-417q0 -53 -20.5 -100t-55.5 -82t-82 -55.5t-100 -20.5t-100 20.5t-82 55.5t-55 82t-20 100v417h67v-417q0 -39 15 -74t40.5 -61t60.5 -41t74 -15q40 0 74.5 15t60.5 41t41 61t15 74v417h67zM256 863h63l-91 -147h-63zM406 863h63l-91 -147h-63z" />
    <glyph glyph-name="_0144" horiz-adv-x="136" 
d="M106 -115q-1 -5 -2.5 -11.5t-4 -16t-6.5 -25t-10 -38.5h-13v53q-17 0 -28.5 10.5t-11.5 27.5q0 16 10.5 27t26.5 11q17 0 28 -11t11 -27z" />
    <glyph glyph-name="uni00AD" unicode="&#xad;" horiz-adv-x="409" 
d="M379 309h-349v61h349v-61z" />
    <glyph glyph-name="b" unicode="b" 
d="M262 465q48 0 90.5 -18.5t74 -50t50 -74t18.5 -90.5t-18.5 -90.5t-50 -74t-74 -49.5t-90.5 -18q-49 0 -92.5 22t-72.5 60v-82h-67v675h67v-292q29 38 72.5 60t92.5 22zM262 67q34 0 64.5 13t53 35.5t35.5 52.5t13 64t-13 64.5t-35.5 53t-53 35.5t-64.5 13t-64 -13
t-52.5 -35.5t-35.5 -53t-13 -64.5t13 -64t35.5 -52.5t52.5 -35.5t64 -13z" />
    <glyph glyph-name="amacron" unicode="&#x101;" 
d="M495 465v-465h-67v82q-29 -38 -72.5 -60t-93.5 -22q-48 0 -90.5 18t-74 49.5t-49.5 74t-18 90.5t18 90.5t49.5 74t74 50t90.5 18.5q50 0 93.5 -22t72.5 -60v82h67zM262 67q34 0 64.5 13t53 35.5t35.5 52.5t13 64t-13 64.5t-35.5 53t-53 35.5t-64.5 13t-64 -13
t-52.5 -35.5t-35.5 -53t-13 -64.5t13 -64t35.5 -52.5t52.5 -35.5t64 -13zM400 503h-275v52h275v-52z" />
    <glyph glyph-name="Amacron" unicode="&#x100;" horiz-adv-x="625" 
d="M523 0l-50 138h-321l-50 -138h-72l247 675h72l246 -675h-72zM177 205h272l-136 372zM450 718h-275v52h275v-52z" />
    <glyph glyph-name="emacron" unicode="&#x113;" horiz-adv-x="524" 
d="M262 465q48 0 90 -18.5t73.5 -50.5t50 -74t18.5 -90q0 -17 -4 -32h-385q5 -29 19 -53t35 -41.5t47 -27.5t56 -10q33 0 63.5 12.5t53.5 35.5l48 -48q-33 -32 -75 -50t-90 -18t-90.5 18t-74 49.5t-49.5 74t-18 90.5t18 90.5t49.5 74t74 50t90.5 18.5zM262 398
q-29 0 -55.5 -10t-47.5 -28t-35.5 -42t-18.5 -52h314q-5 28 -19 52t-35 42t-47.5 28t-55.5 10zM399 503h-275v52h275v-52z" />
    <glyph glyph-name="Emacron" unicode="&#x112;" horiz-adv-x="546" 
d="M97 608v-211h315v-67h-315v-262h419v-68h-486v675h486v-67h-419zM424 718h-275v52h275v-52z" />
    <glyph glyph-name="edotaccent" unicode="&#x117;" horiz-adv-x="524" 
d="M262 465q48 0 90 -18.5t73.5 -50.5t50 -74t18.5 -90q0 -17 -4 -32h-385q5 -29 19 -53t35 -41.5t47 -27.5t56 -10q33 0 63.5 12.5t53.5 35.5l48 -48q-33 -32 -75 -50t-90 -18t-90.5 18t-74 49.5t-49.5 74t-18 90.5t18 90.5t49.5 74t74 50t90.5 18.5zM262 398
q-29 0 -55.5 -10t-47.5 -28t-35.5 -42t-18.5 -52h314q-5 28 -19 52t-35 42t-47.5 28t-55.5 10zM304 543q0 -17 -12.5 -29.5t-29.5 -12.5q-18 0 -30.5 12.5t-12.5 29.5q0 18 12.5 30t30.5 12q17 0 29.5 -12t12.5 -30z" />
    <glyph glyph-name="Edotaccent" unicode="&#x116;" horiz-adv-x="546" 
d="M97 608v-211h315v-67h-315v-262h419v-68h-486v675h486v-67h-419zM318 758q0 -17 -12.5 -29.5t-29.5 -12.5q-18 0 -30.5 12.5t-12.5 29.5q0 18 12.5 30t30.5 12q17 0 29.5 -12t12.5 -30z" />
    <glyph glyph-name="uni0123" unicode="&#x123;" horiz-adv-x="524" 
d="M494 465v-551q0 -48 -18.5 -90.5t-50 -74t-73.5 -49.5t-90 -18t-90.5 18t-74 49.5t-49.5 74t-18 90.5h67q0 -34 13 -64t35.5 -52.5t52.5 -35.5t64 -13t64 13t52.5 35.5t35.5 52.5t13 64v168q-29 -38 -72 -60t-93 -22q-48 0 -90.5 18t-74 49.5t-49.5 74t-18 90.5t18 90.5
t49.5 74t74 50t90.5 18.5q50 0 93 -22t72 -60v82h67zM262 68q34 0 64 13t52.5 35.5t35.5 52t13 63.5t-13 64.5t-35.5 53t-52.5 35.5t-64 13t-64 -13t-52.5 -35.5t-35.5 -53t-13 -64.5t13 -63.5t35.5 -52t52.5 -35.5t64 -13zM226 541q1 5 2 11.5t3.5 16.5t6.5 25t10 39h13
v-54q10 0 14 -2q11 -2 19 -13t8 -23q0 -16 -11 -27t-27 -11q-14 0 -26 10.5t-12 27.5z" />
    <glyph glyph-name="Imacron" unicode="&#x12a;" horiz-adv-x="335" 
d="M201 0h-67v675h67v-675zM305 718h-275v52h275v-52z" />
    <glyph glyph-name="uni013B" unicode="&#x13b;" horiz-adv-x="549" 
d="M519 67v-66h-489v674h67v-608h422zM307 -64q0 -20 -7.5 -43.5t-14.5 -48.5h-14v53q-16 0 -28 11t-12 28q0 16 11 27t27 11t27 -11t11 -27z" />
    <glyph glyph-name="uni013C" unicode="&#x13c;" horiz-adv-x="136" 
d="M102 0h-67v675h67v-675zM106 -64q0 16 -11 27t-27 11t-27 -11t-11 -27q0 -17 12 -28t28 -11v-53h14q7 25 14.5 48.5t7.5 43.5z" />
    <glyph glyph-name="omacron" unicode="&#x14d;" 
d="M262 465q48 0 90.5 -18.5t74 -50t50 -74t18.5 -90.5t-18.5 -90.5t-50 -74t-74 -49.5t-90.5 -18t-90.5 18t-74 49.5t-49.5 74t-18 90.5t18 90.5t49.5 74t74 50t90.5 18.5zM262 67q34 0 64.5 13t53 35.5t35.5 52.5t13 64t-13 64.5t-35.5 53t-53 35.5t-64.5 13t-64 -13
t-52.5 -35.5t-35.5 -53t-13 -64.5t13 -64t35.5 -52.5t52.5 -35.5t64 -13zM400 503h-275v52h275v-52z" />
    <glyph glyph-name="Omacron" unicode="&#x14c;" horiz-adv-x="734" 
d="M367 675q70 0 131 -26.5t107 -72.5t72.5 -107t26.5 -131t-26.5 -131.5t-72.5 -107t-107 -72t-131 -26.5t-131.5 26.5t-107 72t-72 107t-26.5 131.5t26.5 131t72 107t107 72.5t131.5 26.5zM367 68q56 0 105 21t86 57.5t58 86t21 105.5q0 55 -21 104.5t-58 86t-86 58
t-105 21.5t-105 -21.5t-86 -58t-58 -86t-21 -104.5q0 -56 21 -105.5t58 -86t86 -57.5t105 -21zM505 718h-275v52h275v-52z" />
    <glyph glyph-name="umacron" unicode="&#x16b;" 
d="M262 0q-48 0 -90.5 18.5t-74 50t-49.5 74t-18 90.5v232h67v-232q0 -33 13 -63t35 -53t52 -36.5t65 -13.5q33 0 63.5 13t53 35.5t36 52.5t13.5 65v232h67v-465h-67v82q-29 -38 -72.5 -60t-93.5 -22zM400 503h-275v52h275v-52z" />
    <glyph glyph-name="Umacron" unicode="&#x16a;" horiz-adv-x="575" 
d="M545 675v-417q0 -53 -20.5 -100t-55.5 -82t-82 -55.5t-100 -20.5t-100 20.5t-82 55.5t-55 82t-20 100v417h67v-417q0 -39 15 -74t40.5 -61t60.5 -41t74 -15q40 0 74.5 15t60.5 41t41 61t15 74v417h67zM425 718h-275v52h275v-52z" />
    <glyph glyph-name="gbreve" unicode="&#x11f;" horiz-adv-x="524" 
d="M494 465v-551q0 -48 -18.5 -90.5t-50 -74t-73.5 -49.5t-90 -18t-90.5 18t-74 49.5t-49.5 74t-18 90.5h67q0 -34 13 -64t35.5 -52.5t52.5 -35.5t64 -13t64 13t52.5 35.5t35.5 52.5t13 64v168q-29 -38 -72 -60t-93 -22q-48 0 -90.5 18t-74 49.5t-49.5 74t-18 90.5t18 90.5
t49.5 74t74 50t90.5 18.5q50 0 93 -22t72 -60v82h67zM262 68q34 0 64 13t52.5 35.5t35.5 52t13 63.5t-13 64.5t-35.5 53t-52.5 35.5t-64 13t-64 -13t-52.5 -35.5t-35.5 -53t-13 -64.5t13 -63.5t35.5 -52t52.5 -35.5t64 -13zM262 549q41 0 69.5 28.5t29.5 70.5h48
q0 -30 -11.5 -57t-31.5 -47t-47 -31.5t-57 -11.5t-57 11.5t-47 31.5t-31.5 47t-11.5 57h48q0 -42 28.5 -70t70.5 -29z" />
    <glyph glyph-name="Gbreve" unicode="&#x11e;" horiz-adv-x="644" 
d="M614 371v-370h-67v53q-40 -26 -85.5 -39.5t-94.5 -13.5q-70 0 -131.5 26.5t-107 72t-72 107t-26.5 131.5t26.5 131t72 107t107 72.5t131.5 26.5q69 0 130 -26t108 -73l-47 -47q-38 37 -87.5 58t-103.5 21q-56 0 -105 -21t-86 -58t-58 -86t-21 -105t21 -105t58 -86t86 -58
t105 -21q51 0 97 18t83 50v169h-192v66h259zM356 764q41 0 69.5 28.5t29.5 70.5h48q0 -30 -11.5 -57t-31.5 -47t-47 -31.5t-57 -11.5t-57 11.5t-47 31.5t-31.5 47t-11.5 57h48q0 -42 28.5 -70t70.5 -29z" />
    <glyph glyph-name="Idotaccent" unicode="&#x130;" horiz-adv-x="145" 
d="M106 0h-67v675h67v-675zM115 758q0 -17 -12.5 -29.5t-29.5 -12.5q-18 0 -30.5 12.5t-12.5 29.5q0 18 12.5 30t30.5 12q17 0 29.5 -12t12.5 -30z" />
    <glyph glyph-name="uni0410" unicode="&#x410;" horiz-adv-x="625" 
d="M523 0l-50 138h-321l-50 -138h-72l247 675h72l246 -675h-72zM449 205l-136 372l-136 -372h272z" />
    <glyph glyph-name="uni0430" unicode="&#x430;" 
d="M495 465v-465h-67v82q-29 -38 -72.5 -60t-93.5 -22q-48 0 -90.5 18t-74 49.5t-49.5 74t-18 90.5t18 90.5t49.5 74t74 50t90.5 18.5q50 0 93.5 -22t72.5 -60v82h67zM262 67q34 0 64.5 13t53 35.5t35.5 52.5t13 64t-13 64.5t-35.5 53t-53 35.5t-64.5 13t-64 -13
t-52.5 -35.5t-35.5 -53t-13 -64.5t13 -64t35.5 -52.5t52.5 -35.5t64 -13z" />
    <glyph glyph-name="uni0412" unicode="&#x412;" horiz-adv-x="532" 
d="M502 200q0 -41 -15.5 -77.5t-42.5 -63.5t-63.5 -43t-77.5 -16h-273v674h222q35 0 65.5 -13.5t53.5 -37t36 -54t13 -65.5q0 -36 -14 -66t-39 -51q59 -20 97 -70.5t38 -116.5zM97 608v-208h155q45 2 73 32t28 72q0 21 -7.5 40t-21.5 33t-33 22.5t-41 8.5h-153zM303 67
q29 1 53 12t41.5 29t27 42t9.5 51q0 60 -41.5 96t-108.5 36h-187v-266h206z" />
    <glyph glyph-name="uni0415" unicode="&#x415;" horiz-adv-x="547" 
d="M98 608v-211h315v-67h-315v-262h419v-68h-487v675h487v-67h-419z" />
    <glyph glyph-name="uni0435" unicode="&#x435;" 
d="M262 465q48 0 90 -18t74 -49.5t50.5 -73.5t18.5 -90q0 -8 -1 -17t-3 -17h-386q5 -29 19 -53t35 -41.5t47 -27.5t56 -10q68 0 118 48l47 -48q-32 -32 -74.5 -50t-90.5 -18t-90.5 18t-74 49.5t-49.5 74t-18 90.5t18 90.5t49.5 74t74 50t90.5 18.5zM262 398q-29 0 -55.5 -10
t-47.5 -28t-35 -42t-18 -52h314q-5 28 -19 52t-35 42t-47.5 28t-56.5 10z" />
    <glyph glyph-name="uni041A" unicode="&#x41a;" horiz-adv-x="549" 
d="M253 403l266 -403h-79l-231 348l-112 -141v-207h-67v674h67v-360l285 360h87z" />
    <glyph glyph-name="uni043A" unicode="&#x43a;" horiz-adv-x="454" 
d="M165 241l-68 -68v-173h-67v675h67v-407l199 198h94l-177 -177l211 -289h-83z" />
    <glyph glyph-name="uni041C" unicode="&#x41c;" horiz-adv-x="682" 
d="M652 675v-675h-67v555l-209 -334h-70l-209 334v-555h-67v675h69l242 -386l242 386h69z" />
    <glyph glyph-name="uni041D" unicode="&#x41d;" horiz-adv-x="519" 
d="M489 675v-675h-67v304h-325v-304h-67v675h67v-305h325v305h67z" />
    <glyph glyph-name="uni041E" unicode="&#x41e;" horiz-adv-x="734" 
d="M367 675q70 0 131 -26.5t107 -72.5t72.5 -107t26.5 -131t-26.5 -131.5t-72.5 -107t-107 -72t-131 -26.5t-131.5 26.5t-107 72t-72 107t-26.5 131.5t26.5 131t72 107t107 72.5t131.5 26.5zM367 68q56 0 105 21t86 57.5t58 86t21 105.5q0 55 -21 104.5t-58 86t-86 58
t-105 21.5t-105 -21.5t-86 -58t-58 -86t-21 -104.5q0 -56 21 -105.5t58 -86t86 -57.5t105 -21z" />
    <glyph glyph-name="uni043E" unicode="&#x43e;" 
d="M262 465q48 0 90.5 -18.5t74 -50t50 -74t18.5 -90.5t-18.5 -90.5t-50 -74t-74 -49.5t-90.5 -18t-90.5 18t-74 49.5t-49.5 74t-18 90.5t18 90.5t49.5 74t74 50t90.5 18.5zM262 67q34 0 64.5 13t53 35.5t35.5 52.5t13 64t-13 64.5t-35.5 53t-53 35.5t-64.5 13t-64 -13
t-52.5 -35.5t-35.5 -53t-13 -64.5t13 -64t35.5 -52.5t52.5 -35.5t64 -13z" />
    <glyph glyph-name="uni0420" unicode="&#x420;" horiz-adv-x="580" 
d="M292 675q53 0 100 -20t82 -54t55.5 -80t20.5 -98t-20.5 -98t-55.5 -80t-82 -53.5t-100 -19.5h-192v-172h-70v675h262zM292 239q39 0 73 14.5t59.5 39.5t40.5 58.5t15 71.5t-15 72t-40.5 59t-59.5 39.5t-73 14.5h-192v-369h192z" />
    <glyph glyph-name="uni0440" unicode="&#x440;" horiz-adv-x="534" 
d="M267 465q49 0 92 -18.5t75.5 -50t51 -73.5t18.5 -90t-18.5 -90.5t-51 -74t-75.5 -49.5t-92 -18q-51 0 -94.5 21.5t-72.5 59.5v-292h-70v675h70v-82q29 38 72.5 60t94.5 22zM267 68q35 0 65.5 13t53 35t35.5 52t13 65q0 34 -13 64t-35.5 52.5t-53 35.5t-65.5 13t-65 -13
t-53 -35.5t-36 -52.5t-13 -64t13 -64t36 -52.5t53 -35.5t65 -13z" />
    <glyph glyph-name="uni0441" unicode="&#x441;" horiz-adv-x="457" 
d="M427 68q-32 -32 -75 -50t-90 -18q-48 0 -90.5 18t-74 49.5t-49.5 74t-18 90.5t18 90.5t49.5 74t74 50t90.5 18.5q47 0 90 -18t75 -50l-48 -48q-23 23 -53.5 36t-63.5 13q-34 0 -64 -13t-52.5 -35.5t-35.5 -53t-13 -64.5t13 -64t35 -52.5t52 -35.5t65 -13q33 0 63.5 12.5
t53.5 35.5z" />
    <glyph glyph-name="uni0421" unicode="&#x421;" horiz-adv-x="636" 
d="M606 98q-47 -47 -108.5 -72.5t-130.5 -25.5q-70 0 -131.5 26.5t-107 72t-72 107t-26.5 131.5t26.5 131.5t72 107.5t107 72.5t131.5 26.5q69 0 130.5 -26t108.5 -73l-47 -47q-38 37 -88 58t-104 21q-56 0 -105 -21.5t-86 -58.5t-58 -86.5t-21 -104.5q0 -56 21 -105t58 -86
t86 -58t105 -21q54 0 104 20.5t88 58.5z" />
    <glyph glyph-name="uni0422" unicode="&#x422;" horiz-adv-x="573" 
d="M543 675v-67h-223v-608h-67v608h-223v67h513z" />
    <glyph glyph-name="uni0443" unicode="&#x443;" 
d="M495 465v-549q0 -48 -18.5 -90.5t-50 -74t-74 -50t-90.5 -18.5t-90.5 18.5t-74 50t-49.5 74t-18 90.5h67q0 -34 13 -64.5t35.5 -53t52.5 -35.5t64 -13t64 13t52.5 35.5t35.5 52.5t13 65v168q-28 -38 -71.5 -60t-93.5 -22q-48 0 -90.5 18t-74 49.5t-49.5 74t-18 90.5v231
h67v-231q0 -33 13 -63t35 -52.5t52 -36t65 -13.5q33 0 63 13t52.5 35t36 52t13.5 65v231h68z" />
    <glyph glyph-name="uni0445" unicode="&#x445;" horiz-adv-x="447" 
d="M183 232l-153 233h80l113 -171l114 171h80l-154 -233l154 -232h-80l-114 171l-113 -171h-80z" />
    <glyph glyph-name="uni0425" unicode="&#x425;" horiz-adv-x="564" 
d="M241 339l-211 336h79l172 -273l170 273h79l-210 -336l214 -339h-79l-174 276l-172 -276h-79z" />
    <glyph glyph-name="uni0401" unicode="&#x401;" horiz-adv-x="546" 
d="M97 608v-211h315v-67h-315v-262h419v-68h-486v675h486v-67h-419zM393 778q0 -18 -13 -31t-32 -13t-32 13t-13 31q0 20 13 33t32 13t32 -13t13 -33zM270 778q0 -18 -13 -31t-32 -13t-32 13t-13 31q0 20 13 33t32 13t32 -13t13 -33z" />
    <glyph glyph-name="uni0451" unicode="&#x451;" horiz-adv-x="524" 
d="M262 465q48 0 90 -18.5t73.5 -50.5t50 -74t18.5 -90q0 -17 -4 -32h-385q5 -29 19 -53t35 -41.5t47 -27.5t56 -10q33 0 63.5 12.5t53.5 35.5l48 -48q-33 -32 -75 -50t-90 -18t-90.5 18t-74 49.5t-49.5 74t-18 90.5t18 90.5t49.5 74t74 50t90.5 18.5zM262 398
q-29 0 -55.5 -10t-47.5 -28t-35.5 -42t-18.5 -52h314q-5 28 -19 52t-35 42t-47.5 28t-55.5 10zM368 563q0 -18 -13 -31t-32 -13t-32 13t-13 31q0 20 13 33t32 13t32 -13t13 -33zM245 563q0 -18 -13 -31t-32 -13t-32 13t-13 31q0 20 13 33t32 13t32 -13t13 -33z" />
    <glyph glyph-name="uni021A" unicode="&#x21a;" horiz-adv-x="573" 
d="M325 -65q-1 -5 -2.5 -11.5t-3.5 -16t-6 -25t-10 -38.5h-14v53q-16 0 -28 10.5t-12 27.5q0 16 11 27t27 11t27 -11t11 -27zM543 675v-67h-223v-608h-67v608h-223v67h513z" />
    <glyph glyph-name="uni021B" unicode="&#x21b;" horiz-adv-x="401" 
d="M315 -65q-1 -5 -2.5 -11.5t-3.5 -16t-6 -25t-10 -38.5h-14v53q-16 0 -28 10.5t-12 27.5q0 16 11 27t27 11t27 -11t11 -27zM206 232q0 -34 13 -63.5t35 -51.5t52 -35.5t65 -14.5v-67q-48 0 -90.5 18t-74 49.5t-49.5 74t-18 90.5v189h-109v66h109v188h67v-188h165v-66h-165
v-189z" />
    <glyph glyph-name="uni0219" unicode="&#x219;" horiz-adv-x="424" 
d="M97 334q0 -18 13 -31t32 -21t39.5 -12.5t34.5 -4.5q29 -2 60.5 -11.5t57.5 -26.5t43 -42t17 -57q0 -33 -17.5 -57.5t-44.5 -40t-58.5 -23t-59.5 -7.5q-53 0 -102 20.5t-81 63.5l54 40q23 -31 59 -44t74 -13q13 0 32 3t36 10.5t29 19.5t12 29q0 18 -13.5 31.5t-32 21.5
t-39 12t-34.5 4q-29 2 -60.5 11.5t-57.5 26.5t-43 42t-17 57q0 33 17.5 57.5t44.5 40.5t58.5 23.5t59.5 7.5q54 0 101.5 -20.5t81.5 -63.5l-54 -42q-23 32 -59.5 45.5t-74.5 13.5q-14 0 -32.5 -3.5t-35.5 -11t-28.5 -19.5t-11.5 -29zM250 -65q-1 -7 -4 -19.5t-6.5 -26
t-6.5 -26t-5 -19.5h-14v53q-17 0 -28.5 10.5t-11.5 27.5q0 16 11 27t27 11q14 0 26 -10.5t12 -27.5z" />
    <glyph glyph-name="uni0218" unicode="&#x218;" horiz-adv-x="535" 
d="M98 497q0 -28 18.5 -50t45 -38t56 -26t52.5 -14q35 -6 75.5 -20.5t75 -38.5t57 -56.5t22.5 -73.5q0 -44 -21.5 -77.5t-55 -56.5t-74.5 -34.5t-79 -11.5q-69 0 -133 31.5t-107 85.5l65 24q33 -35 78.5 -55t94.5 -20q23 0 52 6.5t54.5 20.5t43 35t17.5 50q0 27 -18.5 49
t-45.5 38.5t-57 26.5t-52 14q-35 6 -75.5 20.5t-74.5 38.5t-56.5 56.5t-22.5 73.5q0 44 21.5 77.5t55 56t74 34t79.5 11.5q71 0 135 -32.5t107 -88.5l-64 -23q-14 18 -35 32.5t-44.5 25t-48.5 16t-47 5.5q-24 0 -53 -7t-54.5 -20.5t-43 -35t-17.5 -49.5zM301 -63
q-1 -8 -4 -21t-6.5 -27t-7 -26.5t-4.5 -18.5h-14v53q-17 0 -28.5 10.5t-11.5 27.5q0 16 11 27t26 11q16 0 27.5 -10.5t11.5 -25.5z" />
    <glyph glyph-name="uni0411" unicode="&#x411;" horiz-adv-x="575" 
d="M334 424q43 0 81 -16.5t67 -45t46 -67t17 -82.5t-16.5 -82.5t-45 -67.5t-67 -46t-82.5 -17h-304v675h391v-67h-324v-184h237zM334 68q29 0 55 11.5t46 31t31.5 46t11.5 56.5q0 29 -11.5 55.5t-31 46t-45.5 31t-56 11.5h-237v-289h237z" />
    <glyph glyph-name="uni0431" unicode="&#x431;" horiz-adv-x="542" 
d="M270 480q49 0 93 -19t77 -51.5t52.5 -76.5t19.5 -93q0 -50 -19 -93.5t-51.5 -76t-76 -51.5t-93.5 -19q-42 0 -80.5 14t-69 38.5t-52.5 58.5t-31 74q-7 26 -7.5 51.5t-1.5 62.5q0 29 3 56q4 60 24 108.5t53 83.5t77.5 54.5t99.5 21.5q33 2 63 6.5t56 23.5l48 -49
q-13 -13 -26 -21.5t-30.5 -14t-41.5 -9t-59 -6.5q-65 -5 -116.5 -43t-72.5 -110q28 36 70.5 58t91.5 22zM272 68q34 0 65 13t55 36.5t38 55t14 67.5q0 34 -13.5 65t-36.5 54.5t-54.5 37.5t-67.5 14q-34 0 -65 -13.5t-54 -37t-37 -54.5t-14 -66q0 -38 14 -69.5t38 -54
t54.5 -35.5t63.5 -13z" />
    <glyph glyph-name="uni0432" unicode="&#x432;" horiz-adv-x="385" 
d="M265 264q39 -14 64.5 -48t25.5 -79q0 -29 -11 -53.5t-30 -43.5t-44 -29.5t-53 -10.5h-187v464h140q26 0 48.5 -10t39.5 -26.5t27 -39.5t10 -48q0 -46 -30 -76zM90 405v-130h75q28 0 49.5 17.5t21.5 47.5q0 27 -19 46t-47 19h-80zM217 60q32 0 55 22.5t23 54.5
q0 38 -26.5 58.5t-61.5 20.5h-117v-156h127z" />
    <glyph glyph-name="uni0433" unicode="&#x433;" horiz-adv-x="384" 
d="M354 465v-68h-256v-397h-68v465h324z" />
    <glyph glyph-name="uni0490" unicode="&#x490;" horiz-adv-x="427" 
d="M330 747h67v-140h-300v-607h-67v675h300v72z" />
    <glyph glyph-name="uni0491" unicode="&#x491;" horiz-adv-x="384" 
d="M354 541v-144h-256v-397h-68v465h256v76h68z" />
    <glyph glyph-name="uni0413" unicode="&#x413;" horiz-adv-x="427" 
d="M397 675v-67h-300v-608h-67v675h367z" />
    <glyph glyph-name="a" unicode="a" 
d="M495 465v-465h-67v82q-29 -38 -72.5 -60t-93.5 -22q-48 0 -90.5 18t-74 49.5t-49.5 74t-18 90.5t18 90.5t49.5 74t74 50t90.5 18.5q50 0 93.5 -22t72.5 -60v82h67zM262 67q34 0 64.5 13t53 35.5t35.5 52.5t13 64t-13 64.5t-35.5 53t-53 35.5t-64.5 13t-64 -13
t-52.5 -35.5t-35.5 -53t-13 -64.5t13 -64t35.5 -52.5t52.5 -35.5t64 -13z" />
    <glyph glyph-name="B" unicode="B" horiz-adv-x="532" 
d="M502 200q0 -41 -15.5 -77.5t-42.5 -63.5t-63.5 -43t-77.5 -16h-273v674h222q35 0 65.5 -13.5t53.5 -37t36 -54t13 -65.5q0 -36 -14 -66t-39 -51q59 -20 97 -70.5t38 -116.5zM97 608v-208h155q45 2 73 32t28 72q0 21 -7.5 40t-21.5 33t-33 22.5t-41 8.5h-153zM303 67
q29 0 53 11t41.5 29.5t27 42.5t9.5 51t-9.5 51t-27 42t-42 28.5t-53.5 10.5h-205v-266h206z" />
    <glyph glyph-name="A" unicode="A" horiz-adv-x="625" 
d="M523 0l-50 138h-321l-50 -138h-72l247 675h72l246 -675h-72zM177 205h272l-136 372z" />
    <glyph glyph-name="uni0414" unicode="&#x414;" horiz-adv-x="619" 
d="M589 67v-156h-67v89h-425v-89h-67v156h101v608h397v-608h61zM199 607v-540h261v540h-261z" />
    <glyph glyph-name="uni0434" unicode="&#x434;" horiz-adv-x="493" 
d="M402 66h61v-154h-67v88h-299v-88h-67v154h91v400h281v-400zM188 399v-333h147v333h-147z" />
    <glyph glyph-name="uni0416" unicode="&#x416;" horiz-adv-x="733" 
d="M213 337l-183 338h77l167 -301h59v300h67v-300h58l168 301h77l-183 -338l183 -337h-77l-168 301h-58v-301h-67v301h-58l-168 -301h-77z" />
    <glyph glyph-name="uni0436" unicode="&#x436;" horiz-adv-x="620" 
d="M157 232l-127 233h77q26 -48 53.5 -100t52.5 -100h64v200h67v-200h63l106 200h77l-127 -233l126 -232h-76l-106 198h-64v-198h-66v198h-64q-26 -47 -53 -99t-52 -99h-77z" />
    <glyph glyph-name="uni0437" unicode="&#x437;" horiz-adv-x="325" 
d="M231 266q29 -20 46.5 -52t17.5 -68q0 -30 -11.5 -56.5t-31 -46.5t-45.5 -31.5t-56 -11.5q-35 0 -66.5 17t-54.5 49l46 46q28 -49 75 -49q34 0 57 24.5t23 58.5q0 33 -24 58t-63 25v64q27 0 44 15.5t17 38.5t-16 38.5t-38 15.5q-37 0 -56 -41l-46 46q20 29 46.5 44
t55.5 15q24 0 45.5 -9.5t37.5 -25.5t25.5 -37.5t9.5 -45.5t-10.5 -45t-27.5 -36z" />
    <glyph glyph-name="uni0417" unicode="&#x417;" horiz-adv-x="422" 
d="M283 389q49 -26 79 -73.5t30 -106.5q0 -43 -16.5 -81t-44.5 -66.5t-66 -45t-81 -16.5q-46 0 -85.5 18.5t-68.5 50.5l47 47q20 -23 47.5 -35.5t59.5 -12.5q29 0 54.5 11t45 30t30.5 45t11 55t-11 54.5t-30.5 44.5t-45.5 30.5t-56 11.5v68q19 0 36.5 7t31 19.5t21.5 29.5
t8 38q0 19 -7.5 36.5t-20.5 30.5t-30.5 20.5t-36.5 7.5q-23 0 -43 -10.5t-32 -27.5l-48 48q22 27 54 42.5t69 15.5q33 0 62.5 -13t51.5 -35t35 -51.5t13 -63.5q0 -38 -17 -70.5t-46 -52.5z" />
    <glyph glyph-name="uni0418" unicode="&#x418;" horiz-adv-x="517" 
d="M30 675h67v-547l321 547h69v-675h-67v547l-322 -547h-68v675z" />
    <glyph glyph-name="uni0438" unicode="&#x438;" horiz-adv-x="406" 
d="M376 464v-464h-67v344l-206 -344h-73v464h67v-343l206 343h73z" />
    <glyph glyph-name="uni041B" unicode="&#x41b;" horiz-adv-x="690" 
d="M660 675v-675h-68v607h-303v-353q0 -54 -20.5 -100.5t-56 -81.5t-82.5 -55t-100 -21v68q40 0 74.5 15t60.5 40.5t41 60t15 74.5v421h439z" />
    <glyph glyph-name="uni043B" unicode="&#x43b;" horiz-adv-x="576" 
d="M546 464v-464h-68v396h-243v-140q0 -47 -15.5 -89.5t-43.5 -77t-65.5 -58.5t-80.5 -33v70q30 8 54.5 26.5t42.5 43.5t28 55t12 63v208h379z" />
    <glyph glyph-name="uni0419" unicode="&#x419;" horiz-adv-x="517" 
d="M30 675h67v-547l321 547h69v-675h-67v547l-322 -547h-68v675zM262 764q41 0 69.5 28.5t29.5 70.5h48q0 -30 -11.5 -57t-31.5 -47t-47 -31.5t-57 -11.5t-57 11.5t-47 31.5t-31.5 47t-11.5 57h48q0 -42 28.5 -70t70.5 -29z" />
    <glyph glyph-name="uni0439" unicode="&#x439;" horiz-adv-x="406" 
d="M376 463v-464h-67v344l-206 -344h-73v464h67v-343l206 343h73zM202 549q41 0 69.5 28.5t29.5 70.5h48q0 -30 -11.5 -57t-31.5 -47t-47 -31.5t-57 -11.5t-57 11.5t-47 31.5t-31.5 47t-11.5 57h48q0 -42 28.5 -70t70.5 -29z" />
    <glyph glyph-name="uni043C" unicode="&#x43c;" horiz-adv-x="629" 
d="M599 465v-465h-67v338l-187 -338h-61l-186 338v-338h-68v465h73l212 -382l211 382h73z" />
    <glyph glyph-name="uni043D" unicode="&#x43d;" horiz-adv-x="467" 
d="M437 465v-465h-68v197h-271v-197h-68v465h68v-200h271v200h68z" />
    <glyph glyph-name="uni041F" unicode="&#x41f;" horiz-adv-x="560" 
d="M530 675v-675h-67v607h-365v-607h-68v675h500z" />
    <glyph glyph-name="uni043F" unicode="&#x43f;" horiz-adv-x="460" 
d="M430 465v-465h-67v397h-266v-397h-67v465h400z" />
    <glyph glyph-name="uni0442" unicode="&#x442;" horiz-adv-x="515" 
d="M485 465v-68h-194v-397h-67v397h-194v68h455z" />
    <glyph glyph-name="uni0423" unicode="&#x423;" horiz-adv-x="565" 
d="M245 241l-215 434h75l177 -358l178 358h75l-335 -675h-75z" />
    <glyph glyph-name="uni0424" unicode="&#x424;" horiz-adv-x="614" 
d="M584 337q0 -53 -18.5 -100t-51.5 -84t-77.5 -60.5t-96.5 -29.5v-63h-66v63q-52 6 -96.5 29.5t-77.5 60.5t-51.5 84t-18.5 100t18.5 100t51.5 84t77.5 60.5t96.5 29.5v64h66v-64q52 -6 96.5 -29.5t77.5 -60.5t51.5 -84t18.5 -100zM97 337q0 -38 13.5 -73t37.5 -62.5
t56 -45.5t70 -23v409q-38 -6 -70.5 -24t-56 -45t-37 -62t-13.5 -74zM340 133q37 5 69.5 23t56.5 46t37.5 62.5t13.5 72.5q0 39 -13.5 74t-37.5 62t-56.5 45t-69.5 24v-409z" />
    <glyph glyph-name="uni0444" unicode="&#x444;" horiz-adv-x="660" 
d="M463 548q39 0 69.5 -18.5t52.5 -48.5t33.5 -68t11.5 -76t-11.5 -76t-33.5 -68t-52.5 -48.5t-69.5 -18.5q-31 0 -57 16.5t-43 39.5v-182h-66v182q-17 -23 -43 -39.5t-57 -16.5q-39 0 -69.5 18.5t-52.5 48.5t-33.5 68t-11.5 76t11.5 76t33.5 68t52.5 48.5t69.5 18.5
q32 0 57 -16t43 -39v182h66v-182q17 23 43 39t57 16zM197 193q23 0 41.5 13.5t31.5 34.5t20 46.5t7 49.5q0 25 -7 50.5t-19.5 46.5t-31 34t-42.5 13t-42.5 -13t-31.5 -34t-19.5 -46.5t-6.5 -50.5q0 -24 7 -49.5t19.5 -46.5t31 -34.5t42.5 -13.5zM463 193q24 0 42.5 13t31 34
t19.5 46.5t7 50.5t-6.5 50.5t-19.5 46.5t-31.5 34t-42.5 13t-42.5 -13t-31 -34t-19.5 -46.5t-7 -50.5q0 -24 7 -49.5t20 -46.5t31.5 -34.5t41.5 -13.5z" />
    <glyph glyph-name="uni0426" unicode="&#x426;" horiz-adv-x="623" 
d="M593 68v-157h-68v89h-495v676h68v-608h365v608h68v-608h62z" />
    <glyph glyph-name="uni0446" unicode="&#x446;" horiz-adv-x="522" 
d="M492 67v-156h-67v89h-395v464h67v-397h266v398h68v-398h61z" />
    <glyph glyph-name="uni0427" unicode="&#x427;" horiz-adv-x="497" 
d="M400 675h67v-675h-67v263q-27 -6 -55 -6q-65 0 -122 25t-100 67.5t-68 100t-25 122.5v103h68v-103q0 -51 19.5 -96t53 -78.5t78.5 -53t96 -19.5q28 0 55 6v344z" />
    <glyph glyph-name="uni0447" unicode="&#x447;" horiz-adv-x="397" 
d="M300 465h67v-465h-67v194q-16 -6 -32.5 -9.5t-34.5 -3.5q-42 0 -79 16t-64.5 43.5t-43.5 64.5t-16 79v81h67v-81q0 -28 10.5 -53t29 -43.5t43.5 -29t53 -10.5q19 0 35.5 5t31.5 13v199z" />
    <glyph glyph-name="uni0428" unicode="&#x428;" horiz-adv-x="662" 
d="M565 675h67v-675h-602v675h67v-607h201v607h67v-607h200v607z" />
    <glyph glyph-name="uni0448" unicode="&#x448;" horiz-adv-x="635" 
d="M538 465h67v-464h-575v464h67v-397h187v397h67v-397h187v397z" />
    <glyph glyph-name="uni0429" unicode="&#x429;" horiz-adv-x="669" 
d="M639 68v-157h-68v89h-541v675h68v-608h172v608h67v-608h172v608h68v-607h62z" />
    <glyph glyph-name="uni0449" unicode="&#x449;" horiz-adv-x="640" 
d="M610 67v-156h-67v89h-513v466h67v-398h159v398h67v-398h159v398h67v-399h61z" />
    <glyph glyph-name="uni042A" unicode="&#x42a;" horiz-adv-x="694" 
d="M452 424q43 0 81.5 -16.5t67.5 -45.5t46 -67.5t17 -81.5q0 -44 -16.5 -82.5t-45.5 -67.5t-67.5 -46t-82.5 -17h-304v608h-118v67h185v-251h237zM452 68q29 0 55 11.5t46 31t32 46t12 56.5q0 29 -11.5 55.5t-31 46t-46 31t-56.5 11.5h-237v-289h237z" />
    <glyph glyph-name="uni044A" unicode="&#x44a;" horiz-adv-x="551" 
d="M335 372q39 0 72.5 -14.5t59 -40t40 -59t14.5 -72.5t-14.5 -72.5t-40 -59t-59 -40t-72.5 -14.5h-186v398h-119v67h186v-93h119zM335 67q24 0 45.5 9.5t38 25.5t26 37.5t9.5 46.5q0 24 -9.5 45.5t-25.5 38t-37.5 26t-46.5 9.5h-119v-238h119z" />
    <glyph glyph-name="uni042E" unicode="&#x42e;" horiz-adv-x="704" 
d="M445 675q55 0 98 -31t72 -80t44 -109t15 -118t-15 -118t-44 -108.5t-72 -79.5t-98 -31q-51 0 -91.5 28t-69 71.5t-45 97.5t-20.5 107h-122v-304h-67v674h67v-303h122q4 52 20.5 106.5t45 98t69 71.5t91.5 28zM445 67q39 0 69.5 25.5t51 65.5t31 87.5t10.5 91.5
t-10.5 91.5t-31 87.5t-51 65.5t-69.5 25.5t-68.5 -26t-50 -65.5t-31 -87.5t-10.5 -91q0 -44 10.5 -91.5t31 -87t50 -65.5t68.5 -26z" />
    <glyph glyph-name="uni044E" unicode="&#x44e;" horiz-adv-x="578" 
d="M367 463q42 0 75.5 -20t57 -53t36 -74.5t12.5 -83.5q0 -43 -12.5 -84.5t-36 -74.5t-57 -53t-75.5 -20q-38 0 -69 17t-54 45t-37.5 63.5t-18.5 73.5h-91v-198h-67v464h67v-199h92q4 37 18 72.5t37 63t54 44.5t69 17zM367 66q27 0 48 15t36 39t23 53.5t8 58.5q0 28 -8 57.5
t-23 53.5t-36 39t-48 15t-48 -15t-36 -39t-23 -53.5t-8 -57.5q0 -29 8 -58.5t23 -53.5t36 -39t48 -15z" />
    <glyph glyph-name="uni042C" unicode="&#x42c;" horiz-adv-x="576" 
d="M334 423q44 0 82.5 -16.5t67.5 -45.5t45.5 -67.5t16.5 -81.5q0 -44 -16.5 -82.5t-45.5 -67.5t-67.5 -45.5t-82.5 -16.5h-304v674h67v-251h237zM334 67q29 0 55 11.5t46 31t32 46t12 56.5q0 29 -11.5 55.5t-31 46t-46 31t-56.5 11.5h-237v-289h237z" />
    <glyph glyph-name="uni044C" unicode="&#x44c;" horiz-adv-x="433" 
d="M216 372q39 0 73 -14.5t59.5 -40t40 -59t14.5 -72.5t-14.5 -72.5t-40 -59t-59.5 -40t-73 -14.5h-186v465h68v-93h118zM216 67q24 0 45.5 9.5t38 25.5t26.5 37.5t10 46.5q0 24 -9.5 46t-25.5 38t-38 25.5t-47 9.5h-118v-238h118z" />
    <glyph glyph-name="uni042B" unicode="&#x42b;" horiz-adv-x="720" 
d="M334 423q43 0 81.5 -16.5t67.5 -45t46 -67t17 -82.5t-16.5 -82.5t-45.5 -67.5t-67.5 -45.5t-82.5 -16.5h-304v674h67v-251h237zM334 67q29 0 55 11.5t46 31t32 46t12 56.5q0 29 -11.5 55.5t-31 46t-46 31t-56.5 11.5h-237v-289h237zM690 0h-67v675h67v-675z" />
    <glyph glyph-name="uni044B" unicode="&#x44b;" horiz-adv-x="571" 
d="M216 372q39 0 72.5 -14.5t59 -40t40 -59t14.5 -72.5t-14.5 -72.5t-40 -59t-59 -40t-72.5 -14.5h-186v465h67v-93h119zM216 67q24 0 45.5 9.5t38 25.5t26 37.5t9.5 46.5q0 24 -9.5 45.5t-25.5 38t-37.5 26t-46.5 9.5h-119v-238h119zM541 465v-465h-67v465h67z" />
    <glyph glyph-name="uni040F" unicode="&#x40f;" horiz-adv-x="561" 
d="M531 0h-217v-89h-67v89h-217v674h68v-606h365v606h68v-674z" />
    <glyph glyph-name="uni045F" unicode="&#x45f;" horiz-adv-x="461" 
d="M431 0h-166v-89h-68v89h-167v465h68v-398h266v398h67v-465z" />
    <glyph glyph-name="uni040B" unicode="&#x40b;" horiz-adv-x="630" 
d="M367 465q48 0 90.5 -18.5t74 -50t50 -74t18.5 -90.5v-232h-67v232q0 33 -13 63.5t-35.5 53t-53 36t-64.5 13.5t-64 -13t-52.5 -35.5t-35.5 -53t-13 -64.5v-232h-67v608h-105v67h333v-67h-161v-226q28 38 71 60.5t94 22.5z" />
    <glyph glyph-name="uni045B" unicode="&#x45b;" horiz-adv-x="630" 
d="M135 0v506h-105v67h105v102h67v-102h161v-67h-161v-124q29 38 72 60.5t93 22.5q48 0 90.5 -18.5t74 -50t50 -74t18.5 -90.5v-232h-67v214q0 36 -11.5 69t-32.5 58.5t-52 41t-70 15.5q-38 0 -68 -15t-52 -40t-33.5 -58.5t-11.5 -70.5v-214h-67z" />
    <glyph glyph-name="uni042D" unicode="&#x42d;" horiz-adv-x="600" 
d="M254 675q67 0 125 -27.5t100.5 -74t66.5 -107.5t24 -129t-24 -129t-66.5 -107.5t-100.5 -73.5t-125 -27q-65 0 -122.5 26t-100.5 73l46 48q34 -37 80 -58.5t97 -21.5q49 0 92 19t75 51t52.5 75.5t26.5 91.5h-292v67h292q-6 48 -26.5 91t-53 75.5t-75 51.5t-91.5 19
q-22 0 -47.5 -6t-50.5 -16.5t-46 -26t-34 -33.5l-46 49q44 47 101 73.5t123 26.5z" />
    <glyph glyph-name="uni044D" unicode="&#x44d;" horiz-adv-x="457" 
d="M194 465q48 0 90.5 -18.5t74 -50t50 -74t18.5 -90.5t-18.5 -90.5t-50 -74t-74 -49.5t-90.5 -18q-47 0 -89.5 18t-74.5 50l47 47q23 -23 54 -36t63 -13q30 0 57 10t48 28t35 42t19 53h-154v68h153q-5 28 -19 52t-35 41.5t-47.5 27.5t-56.5 10q-33 0 -63 -13t-54 -36
l-47 47q32 33 74.5 51t89.5 18z" />
    <glyph glyph-name="uni042F" unicode="&#x42f;" horiz-adv-x="568" 
d="M30 423q0 52 20 98t54 80t79.5 54t97.5 20h257v-675h-67v172h-159q-12 0 -24.5 0.5t-25.5 1.5l-117 -174h-81l128 189q-36 13 -66 36.5t-51 54.5t-33 67.5t-12 75.5zM471 608h-190q-38 0 -71.5 -14.5t-58.5 -39.5t-39.5 -59t-14.5 -72t14.5 -71.5t39.5 -58.5t58.5 -39.5
t71.5 -14.5h190v369z" />
    <glyph glyph-name="uni044F" unicode="&#x44f;" horiz-adv-x="422" 
d="M392 465v-465h-67v75h-85q-22 0 -41 3l-54 -78h-81l69 100q-47 23 -75 68.5t-28 101.5q0 40 15.5 75.5t41.5 62t61.5 42t76.5 15.5h167zM325 142v255h-100q-26 0 -49 -10t-40.5 -27t-28 -40t-10.5 -50q0 -26 10 -49t27.5 -40.5t40.5 -27.5t50 -11h100z" />
    <glyph glyph-name="uni0455" unicode="&#x455;" horiz-adv-x="424" 
d="M97 334q0 -18 13 -31t32 -21t39.5 -12.5t34.5 -4.5q27 -2 58 -11t58 -25.5t44.5 -41.5t17.5 -59q0 -33 -17.5 -57.5t-44.5 -40t-58.5 -23t-59.5 -7.5q-53 0 -102 20.5t-81 63.5l54 40q23 -31 59.5 -44.5t74.5 -13.5q13 0 32 3.5t35.5 11t28.5 19.5t12 29q0 18 -13.5 31.5
t-32 21.5t-39 12t-34.5 4q-27 2 -58 11.5t-58 26t-44.5 41.5t-17.5 58t17.5 57.5t44.5 40.5t58.5 23.5t59.5 7.5q54 0 101.5 -20.5t81.5 -63.5l-54 -42q-23 32 -59.5 45.5t-74.5 13.5q-14 0 -32.5 -3.5t-35 -11t-28.5 -19.5t-12 -29z" />
    <glyph glyph-name="uni0405" unicode="&#x405;" horiz-adv-x="535" 
d="M98 495q0 -27 18.5 -48.5t45.5 -37.5t56.5 -26t51.5 -14q35 -6 75.5 -20.5t75 -38.5t57 -56.5t22.5 -73.5q0 -44 -21.5 -77.5t-55 -56.5t-74.5 -34.5t-79 -11.5q-69 0 -133 31.5t-107 85.5l65 24q33 -35 78.5 -55.5t94.5 -20.5q23 0 52 7t54.5 21t43 35t17.5 49t-18.5 50
t-45 38t-56.5 26t-53 14q-35 6 -75.5 20.5t-74.5 38.5t-56.5 57t-22.5 74q0 44 21.5 77.5t55 56t74 34t79.5 11.5q71 0 135 -32.5t107 -88.5l-64 -23q-14 18 -35 32.5t-44.5 25t-48.5 16t-47 5.5q-24 0 -53.5 -6.5t-55 -20.5t-42.5 -35.5t-17 -51.5z" />
    <glyph glyph-name="uni0458" unicode="&#x458;" horiz-adv-x="524" 
d="M262 -251q42 0 73 16t51.5 43.5t31 63t10.5 74.5v520h66v-552q0 -48 -18.5 -90.5t-50 -74t-73.5 -49.5t-90 -18t-90.5 18t-74 49.5t-49.5 74t-18 90.5h68q0 -34 13 -64t35 -52.5t52 -35.5t64 -13zM461 525q-14 0 -23.5 9.5t-9.5 23.5t9.5 24t23.5 10t23.5 -10t9.5 -24
t-9.5 -23.5t-23.5 -9.5z" />
    <glyph glyph-name="uni0454" unicode="&#x454;" horiz-adv-x="457" 
d="M263 465q47 0 89.5 -18t74.5 -51l-47 -47q-23 23 -53 36t-64 13q-30 0 -56 -10t-47 -27.5t-35.5 -41.5t-19.5 -52h153v-68h-153q5 -29 19 -53t35 -42t47.5 -28t56.5 -10q33 0 63.5 13t53.5 36l47 -47q-32 -32 -74.5 -50t-89.5 -18q-48 0 -90.5 18t-74 49.5t-50 74
t-18.5 90.5t18.5 90.5t50 74t74 50t90.5 18.5z" />
    <glyph glyph-name="uni0404" unicode="&#x404;" horiz-adv-x="600" 
d="M346 675q66 0 123 -26.5t101 -73.5l-46 -49q-37 38 -80.5 60t-97.5 22q-49 0 -91.5 -19t-75 -51.5t-53 -75.5t-26.5 -91h292v-67h-292q6 -48 26.5 -91.5t52.5 -75.5t74.5 -51t92.5 -19q54 0 97.5 21.5t80.5 59.5l45 -49q-43 -47 -100.5 -73t-122.5 -26q-67 0 -125 27
t-100.5 73.5t-66.5 107.5t-24 129t24 129t66.5 107.5t100 74t125.5 27.5z" />
    <glyph glyph-name="uni0408" unicode="&#x408;" horiz-adv-x="575" 
d="M545 675v-421q0 -53 -20.5 -99.5t-55.5 -81t-82 -54t-99 -19.5q-54 0 -101.5 20t-82 55t-54.5 82t-20 101h67q0 -40 15 -75t40.5 -60.5t60.5 -40.5t75 -15q39 0 73.5 14.5t60.5 39.5t41 59.5t15 73.5v354h-189v67h256z" />
    <glyph glyph-name="uni0403" unicode="&#x403;" horiz-adv-x="427" 
d="M397 675v-67h-300v-608h-67v675h367zM265 863h62l-91 -147h-62z" />
    <glyph glyph-name="uni0453" unicode="&#x453;" horiz-adv-x="384" 
d="M354 465v-68h-256v-397h-68v465h324zM247 648h62l-91 -147h-62z" />
    <glyph glyph-name="uni0452" unicode="&#x452;" horiz-adv-x="630" 
d="M367 465q48 0 90.5 -18.5t74 -50t50 -74t18.5 -90.5v-320q0 -49 -18.5 -91t-50.5 -73t-74 -49.5t-90 -19.5v67q34 0 64.5 13t53 35.5t35.5 52.5t13 65v320q0 34 -13.5 64t-36 52.5t-52.5 36t-64 13.5q-33 0 -63 -13.5t-52.5 -36t-36 -53t-13.5 -63.5v-232h-67v506h-105
v67h105v102h67v-102h161v-67h-161v-124q29 38 72 60.5t93 22.5z" />
    <glyph glyph-name="uni0402" unicode="&#x402;" horiz-adv-x="630" 
d="M202 383q32 42 75 61.5t89 19.5t88 -17t74.5 -48t52 -73.5t19.5 -94.5q0 -47 -18 -88.5t-49.5 -72.5t-74 -49.5t-91.5 -20.5v67q33 0 63 12.5t53 35t36.5 52.5t13.5 65q0 33 -13 63t-35.5 53t-53 36.5t-64.5 13.5q-39 0 -70 -15.5t-52 -41.5t-32 -60.5t-11 -71.5v-209
h-67v608h-105v67h333v-67h-161v-225v0z" />
    <glyph glyph-name="uni040A" unicode="&#x40a;" horiz-adv-x="830" 
d="M615 370q38 0 72 -14.5t59 -39.5t39.5 -59t14.5 -72t-14.5 -72t-39.5 -59t-59 -39.5t-72 -14.5h-193v304h-325v-304h-67v675h67v-305h325v305h67v-305h126zM615 67q24 0 45 9.5t37.5 25.5t26 37.5t9.5 45.5t-9.5 45.5t-25.5 37.5t-37.5 25.5t-45.5 9.5h-126v-236h126z
" />
    <glyph glyph-name="uni045A" unicode="&#x45a;" horiz-adv-x="585" 
d="M423 264q27 0 51 -10t42 -28t28.5 -42t10.5 -52q0 -27 -10.5 -51t-28.5 -42t-42 -28.5t-51 -10.5h-142v196h-183v-196h-68v464h68v-200h183v200h68v-200h74zM417 68q27 0 48.5 17.5t21.5 46.5q0 30 -21.5 47t-48.5 17h-68v-128h68z" />
    <glyph glyph-name="uni0409" unicode="&#x409;" horiz-adv-x="964" 
d="M748 372q39 0 72.5 -14.5t59 -40t40 -59.5t14.5 -72q0 -39 -14.5 -72.5t-40 -59t-59 -40t-72.5 -14.5h-157v607h-302v-353q0 -54 -20.5 -100.5t-56 -81.5t-82.5 -55t-100 -21v68q40 0 74.5 14.5t60.5 40t41 60.5t15 75v421h438v-303h89zM748 67q24 0 46 9.5t38 25.5
t25.5 38t9.5 46t-9.5 45.5t-25.5 37.5t-38 25.5t-46 9.5h-89v-237h89z" />
    <glyph glyph-name="uni0459" unicode="&#x459;" horiz-adv-x="723" 
d="M561 264q27 0 51 -10.5t42 -28.5t28.5 -42t10.5 -51t-10.5 -51t-28.5 -42t-42 -28.5t-51 -10.5h-121v396h-205v-104q0 -17 -1 -32.5t-3 -31.5q-5 -41 -21.5 -79t-43 -68.5t-61.5 -52t-75 -30.5v70q30 8 54.5 26.5t42.5 43.5t28 55t12 63v208h341v-200h53zM554 68
q28 0 49.5 17t21.5 47q0 29 -21.5 46.5t-49.5 17.5h-46v-128h46z" />
    <glyph glyph-name="uni2116" unicode="&#x2116;" horiz-adv-x="935" 
d="M404 0l-308 533v-533h-66v677h61l307 -533v533h66v-677h-60zM710 608q41 0 76.5 -15.5t62 -42t41.5 -62t15 -76.5t-15 -76.5t-41.5 -61.5t-62 -41t-76.5 -15t-76.5 15t-62 41t-41.5 61.5t-15 76.5t15 76.5t41.5 62t62 42t76.5 15.5zM710 284q27 0 50.5 10t41 27.5
t27.5 40.5t10 50t-10 50.5t-27.5 41t-41 27.5t-50.5 10t-50 -10t-40.5 -27.5t-27.5 -41t-10 -50.5t10 -50t27.5 -40.5t40.5 -27.5t50 -10zM857 98h-294v66h294v-66z" />
    <glyph glyph-name="uni045C" unicode="&#x45c;" horiz-adv-x="454" 
d="M165 241l-68 -68v-173h-67v675h67v-407l199 198h94l-177 -177l211 -289h-83zM290 648h62l-91 -147h-62z" />
    <glyph glyph-name="uni040C" unicode="&#x40c;" horiz-adv-x="549" 
d="M253 403l266 -403h-79l-231 348l-112 -141v-207h-67v674h67v-360l285 360h87zM277 862h62l-91 -147h-62z" />
    <glyph glyph-name="uni0406" unicode="&#x406;" horiz-adv-x="127" 
d="M97 0h-67v675h67v-675z" />
    <glyph glyph-name="uni0456" unicode="&#x456;" horiz-adv-x="128" 
d="M63 525q-14 0 -23.5 10t-9.5 24t9.5 23.5t23.5 9.5t24 -9.5t10 -23.5t-10 -24t-24 -10zM98 0h-68v465h68v-465z" />
    <glyph glyph-name="uni0457" unicode="&#x457;" horiz-adv-x="273" 
d="M169 0h-67v465h67v-465zM243 563q0 -18 -13 -31t-32 -13t-32 13t-13 31q0 20 13 33t32 13t32 -13t13 -33zM120 563q0 -18 -13 -31t-32 -13t-32 13t-13 31q0 20 13 33t32 13t32 -13t13 -33z" />
    <glyph glyph-name="uni0407" unicode="&#x407;" horiz-adv-x="273" 
d="M170 0h-67v675h67v-675zM243 778q0 -18 -13 -31t-32 -13t-32 13t-13 31q0 20 13 33t32 13t32 -13t13 -33zM120 778q0 -18 -13 -31t-32 -13t-32 13t-13 31q0 20 13 33t32 13t32 -13t13 -33z" />
    <glyph glyph-name="uni045E" unicode="&#x45e;" 
d="M495 465v-549q0 -48 -18.5 -90.5t-50 -74t-74 -50t-90.5 -18.5t-90.5 18.5t-74 50t-49.5 74t-18 90.5h67q0 -34 13 -64.5t35.5 -53t52.5 -35.5t64 -13t64 13t52.5 35.5t35.5 52.5t13 65v168q-28 -38 -71.5 -60t-93.5 -22q-48 0 -90.5 18t-74 49.5t-49.5 74t-18 90.5v231
h67v-231q0 -33 13 -63t35 -52.5t52 -36t65 -13.5q33 0 63 13t52.5 35t36 52t13.5 65v231h68zM263 549q41 0 69.5 28.5t29.5 70.5h48q0 -30 -11.5 -57t-31.5 -47t-47 -31.5t-57 -11.5t-57 11.5t-47 31.5t-31.5 47t-11.5 57h48q0 -42 28.5 -70t70.5 -29z" />
    <glyph glyph-name="uni040E" unicode="&#x40e;" horiz-adv-x="565" 
d="M245 241l-215 434h75l177 -358l178 358h75l-335 -675h-75zM284 764q41 0 69.5 28.5t29.5 70.5h48q0 -30 -11.5 -57t-31.5 -47t-47 -31.5t-57 -11.5t-57 11.5t-47 31.5t-31.5 47t-11.5 57h48q0 -42 28.5 -70t70.5 -29z" />
    <glyph glyph-name="periodcentered" unicode="&#xb7;" horiz-adv-x="162" 
d="M132 322q0 -21 -15 -36t-36 -15q-22 0 -36.5 15t-14.5 36t14.5 36t36.5 15q21 0 36 -15t15 -36z" />
    <glyph glyph-name="Aogonek" unicode="&#x104;" horiz-adv-x="822" 
d="M792 -179q-40 -29 -92.5 -51.5t-102.5 -22.5q-26 0 -49 8t-40 23.5t-26.5 37t-9.5 48.5q0 37 15 72t36 64h72q-11 -12 -24 -28t-23.5 -34t-17.5 -36.5t-7 -36.5q0 -34 23 -49.5t54 -15.5q41 0 83 19t74 42zM523 0l-50 138h-321l-50 -138h-72l247 675h72l246 -675h-72z
M177 205h272l-136 372z" />
    <glyph glyph-name="Lcaron" unicode="&#x13d;" horiz-adv-x="651" 
d="M621 67v-67h-489v675h67v-608h422zM274 848l-91 -147h-62l-91 147h62l60 -98l60 98h62z" />
    <glyph glyph-name="uni0163" unicode="&#x163;" horiz-adv-x="511" 
d="M206 232q0 -34 13 -63.5t35 -51.5t52 -35.5t65 -14.5v-67q-48 0 -90.5 18t-74 49.5t-49.5 74t-18 90.5v189h-109v66h109v188h67v-188h165v-66h-165v-189zM361 -23q23 -12 45 -26.5t38.5 -32.5t26.5 -39.5t10 -48.5q0 -42 -23 -71t-58.5 -47t-77.5 -26t-79 -8
q-14 0 -27.5 1t-27.5 3l12 51q18 -3 43 -3q24 0 56 5t61 16.5t49 30.5t20 47q0 27 -14.5 47.5t-36.5 35t-47.5 23.5t-47.5 12l22 70l66 -17z" />
    <glyph glyph-name="slash" unicode="/" horiz-adv-x="422" 
d="M30 -70l290 798h72l-291 -798h-71z" />
    <glyph glyph-name="ellipsis" unicode="&#x2026;" horiz-adv-x="387" 
d="M30 39q0 15 11 26t27 11t27 -11t11 -26q0 -17 -11 -28t-27 -11t-27 11t-11 28zM280 39q0 15 11.5 26t27.5 11t27 -11t11 -26q0 -17 -11 -28t-27 -11t-27.5 11t-11.5 28zM155 39q0 15 11 26t27 11t27 -11t11 -26q0 -17 -11 -28t-27 -11t-27 11t-11 28z" />
    <glyph glyph-name="Ccedilla" unicode="&#xc7;" horiz-adv-x="636" 
d="M392 -21q30 -8 57.5 -22.5t47.5 -33.5t32 -42.5t12 -50.5q0 -42 -23 -71t-58.5 -47t-77.5 -26t-79 -8q-14 0 -27.5 1t-27.5 3l12 51q18 -3 43 -3q24 0 56 5t61 16.5t49 30.5t20 47q0 27 -18 46.5t-43.5 33.5t-54.5 22.5t-51 11.5l9 61h69zM606 98q-46 -46 -107.5 -72
t-131.5 -26t-131.5 26.5t-107 72t-72 107t-26.5 131.5t26.5 131.5t72 107.5t107 72.5t131.5 26.5t131.5 -26.5t107.5 -72.5l-48 -47q-37 36 -86.5 57.5t-104.5 21.5q-54 0 -102.5 -21.5t-86 -58t-59.5 -86t-22 -105.5q0 -54 21 -102.5t57.5 -86t85.5 -59.5t106 -22
q54 0 104 20.5t87 58.5z" />
    <glyph glyph-name="ccedilla" unicode="&#xe7;" horiz-adv-x="464" 
d="M284 -21q31 -8 58 -22.5t47.5 -33.5t32.5 -42.5t12 -50.5q0 -42 -23.5 -71t-58.5 -47t-77 -26t-79 -8q-14 0 -28 1t-28 3l12 51q19 -3 43 -3t56 5t61 16.5t49 30.5t20 47q0 27 -18 46.5t-43.5 33.5t-54 22.5t-50.5 11.5l8 63l71 4zM427 68q-32 -32 -75.5 -50t-89.5 -18
q-48 0 -90.5 18t-74 49.5t-49.5 74t-18 90.5t18 90.5t49.5 74t74 50t90.5 18.5q46 0 89.5 -18t75.5 -50l-48 -48q-23 23 -53.5 36t-63.5 13q-35 0 -65 -13t-52 -35.5t-35 -53t-13 -64.5t13 -64t35 -52.5t52 -35.5t65 -13q32 0 63 12.5t54 35.5z" />
    <glyph glyph-name="AE" unicode="&#xc6;" horiz-adv-x="827" 
d="M367 138h-216l-50 -138h-71l247 675h71zM351 205l-39 372l-136 -372h175zM378 608v-211h315v-67h-315v-262h419v-67h-486v674h486v-67h-419z" />
    <glyph glyph-name="igrave" unicode="&#xec;" horiz-adv-x="213" 
d="M183 465h-68v-465h68v465zM183 501h-62l-91 147h62z" />
    <glyph glyph-name="iacute" unicode="&#xed;" horiz-adv-x="213" 
d="M98 0h-68v465h68v-465zM121 648h62l-91 -147h-62z" />
    <glyph glyph-name="icircumflex" unicode="&#xee;" horiz-adv-x="304" 
d="M190 0h-68v465h68v-465zM30 501l91 147h62l91 -147h-62l-60 97l-60 -97h-62z" />
    <glyph glyph-name="idieresis" unicode="&#xef;" horiz-adv-x="273" 
d="M168 0h-68v465h68v-465zM243 563q0 -18 -13 -31t-32 -13t-32 13t-13 31q0 20 13 33t32 13t32 -13t13 -33zM120 563q0 -18 -13 -31t-32 -13t-32 13t-13 31q0 20 13 33t32 13t32 -13t13 -33z" />
    <glyph glyph-name="Scedilla" unicode="&#x15e;" horiz-adv-x="535" 
d="M293 -21q31 -8 58 -22.5t47.5 -33.5t32.5 -42.5t12 -50.5q0 -42 -23.5 -71t-58.5 -47t-77 -26t-79 -8q-14 0 -28 1t-27 3l11 51q19 -3 43 -3t56 5t61.5 16.5t49.5 30.5t20 47q0 27 -18 46.5t-44 33.5t-54.5 22.5t-50.5 11.5l9 64h71zM98 495q0 -27 18.5 -48.5t45.5 -37.5
t56.5 -26t51.5 -14q35 -6 75.5 -20.5t74.5 -38.5t56.5 -56.5t22.5 -73.5q0 -44 -21 -77.5t-54 -56t-73.5 -33.5t-79.5 -11q-35 0 -69 7.5t-65.5 22t-58.5 36t-48 49.5l65 24q33 -35 79.5 -55t94.5 -20q23 0 51.5 7t54 21t43 34.5t17.5 48.5t-18.5 50t-45 38t-56.5 26t-53 14
q-35 6 -75.5 21t-75 39t-57 56.5t-22.5 73.5q0 44 21.5 77.5t55.5 56t74.5 34t79.5 11.5q70 0 134.5 -32.5t107.5 -88.5l-64 -23q-14 18 -35 32.5t-44.5 25t-48.5 16t-47 5.5q-24 0 -53.5 -7t-55 -21t-42.5 -35.5t-17 -50.5z" />
    <glyph glyph-name="aogonek" unicode="&#x105;" horiz-adv-x="722" 
d="M692 -179q-40 -29 -92.5 -51.5t-102.5 -22.5q-26 0 -49 8t-40 23.5t-26.5 37t-9.5 48.5q0 37 17.5 72t38.5 64h67q-11 -12 -24 -28t-23.5 -34t-17.5 -36.5t-7 -36.5q0 -34 23 -49.5t54 -15.5q41 0 83 19t74 42zM495 465v-465h-67v82q-29 -38 -72.5 -60t-93.5 -22
q-48 0 -90.5 18t-74 49.5t-49.5 74t-18 90.5t18 90.5t49.5 74t74 50t90.5 18.5q50 0 93.5 -22t72.5 -60v82h67zM262 67q34 0 64.5 13t53 35.5t35.5 52.5t13 64t-13 64.5t-35.5 53t-53 35.5t-64.5 13t-64 -13t-52.5 -35.5t-35.5 -53t-13 -64.5t13 -64t35.5 -52.5t52.5 -35.5
t64 -13z" />
    <glyph glyph-name="scedilla" unicode="&#x15f;" horiz-adv-x="424" 
d="M242 -21q31 -8 58 -22.5t47.5 -34t32.5 -43t12 -49.5q0 -42 -23 -71t-58 -47t-76.5 -26.5t-78.5 -8.5q-15 0 -29 1t-28 4l11 51q19 -3 43 -3t56 5t61.5 16.5t49.5 30.5t20 47q0 27 -18 46.5t-44 33.5t-54.5 22.5t-50.5 11.5l8 65h72zM216 266q27 -2 58 -11t58 -25.5
t44.5 -41.5t17.5 -59q0 -33 -17.5 -57t-44 -40t-58.5 -23.5t-60 -7.5q-52 0 -101 21t-82 63l54 41q22 -30 59 -44t75 -14q13 0 31.5 3t35.5 10.5t29 19.5t12 30t-13 31t-31.5 21.5t-39 12.5t-35.5 4q-27 2 -58 11t-58 25.5t-44.5 41.5t-17.5 59q0 33 17.5 57t44 40t58 23.5
t60.5 7.5q52 0 100.5 -21t82.5 -63l-54 -42q-22 31 -59 45t-75 14q-13 0 -31.5 -3t-35.5 -10.5t-29 -19.5t-12 -30t13 -31t31.5 -21.5t39 -12.5t35.5 -4z" />
    <glyph glyph-name="eogonek" unicode="&#x119;" horiz-adv-x="591" 
d="M561 -179q-20 -14 -43.5 -27.5t-49 -24t-51.5 -16.5t-50 -6q-56 0 -92 34t-36 91q0 18 5 39t14 41t20.5 38t25.5 30l105 48q-15 -16 -35.5 -41t-38.5 -52.5t-31 -56t-13 -50.5q0 -32 24 -50t54 -18q41 0 83.5 19t74.5 42zM262 465q48 0 90 -18.5t73.5 -50.5t50 -74
t18.5 -90q0 -17 -4 -32h-385q5 -29 19 -53t35 -41.5t47 -27.5t56 -10q33 0 63.5 12.5t53.5 35.5l48 -48q-33 -32 -75 -50t-90 -18t-90.5 18t-74 49.5t-49.5 74t-18 90.5t18 90.5t49.5 74t74 50t90.5 18.5zM262 398q-29 0 -55.5 -10t-47.5 -28t-35.5 -42t-18.5 -52h314
q-5 28 -19 52t-35 42t-47.5 28t-55.5 10z" />
    <glyph glyph-name="uni0162" unicode="&#x162;" horiz-adv-x="573" 
d="M543 608h-223v-608h-67v608h-223v67h513v-67zM315 -21q30 -8 57.5 -22.5t47.5 -33.5t32 -42.5t12 -50.5q0 -42 -23 -71t-58.5 -47t-77.5 -26t-79 -8q-14 0 -28 1t-27 3l12 51q18 -3 43 -3q24 0 56 5t61 16.5t49 30.5t20 47q0 27 -18 46.5t-43.5 33.5t-54.5 22.5t-51 11.5
l8 57h67z" />
    <glyph glyph-name="Iogonek" unicode="&#x12e;" horiz-adv-x="380" 
d="M315 -139q-32 -23 -74 -42t-83 -19q-31 0 -54 15.5t-23 49.5q0 18 7 36.5t17.5 36.5t23.5 34t24 28h-67q-21 -29 -38.5 -64t-17.5 -72q0 -27 9.5 -48.5t26.5 -37t40 -23.5t49 -8q50 0 102.5 22.5t92.5 51.5zM153 0h-67v675h67v-675z" />
    <glyph glyph-name="iogonek" unicode="&#x12f;" horiz-adv-x="380" 
d="M350 -179q-40 -29 -92.5 -51.5t-102.5 -22.5q-26 0 -49 8t-40 23.5t-26.5 37t-9.5 48.5q0 37 17 72t38 64h68q-11 -12 -24 -28t-23.5 -34t-17.5 -36.5t-7 -36.5q0 -34 23 -49.5t54 -15.5q41 0 83 19t74 42zM118 525q-14 0 -23.5 10t-9.5 24t9.5 23.5t23.5 9.5t24 -9.5
t10 -23.5t-10 -24t-24 -10zM153 0h-68v465h68v-465z" />
    <glyph glyph-name="uni0156" unicode="&#x156;" horiz-adv-x="568" 
d="M538 423q0 -39 -12 -75.5t-33.5 -67.5t-51 -54.5t-65.5 -36.5l128 -189h-81l-118 174q-12 -1 -24.5 -1.5t-25.5 -0.5h-158v-172h-67v675h257q52 0 97.5 -20t79.5 -54t54 -80t20 -98zM97 239h190q38 0 71.5 14.5t58 39.5t39 58.5t14.5 71.5t-14.5 72t-39 59t-58 39.5
t-71.5 14.5h-190v-369zM285 -65q0 -10 -5 -28t-17 -63h-14v53q-17 0 -28.5 10.5t-11.5 27.5q0 16 11 27t27 11t27 -11t11 -27z" />
    <glyph glyph-name="uni0157" unicode="&#x157;" horiz-adv-x="461" 
d="M266 465q49 0 91 -18.5t74 -50.5q-11 -12 -25 -25.5t-23 -21.5q-23 23 -53 35.5t-64 12.5q-38 0 -68.5 -14.5t-52 -39.5t-33 -58t-11.5 -69v-216h-67v465h67v-82q28 37 71 59.5t94 22.5zM106 -65q-3 -15 -5 -24t-4.5 -17.5t-5.5 -19.5t-8 -30h-13v53q-17 0 -28.5 10.5
t-11.5 27.5q0 16 10.5 27t26.5 11q17 0 28 -11t11 -27z" />
    <glyph glyph-name="uni0122" unicode="&#x122;" horiz-adv-x="644" 
d="M614 371v-370h-67v53q-40 -26 -85.5 -39.5t-94.5 -13.5q-70 0 -131.5 26.5t-107 72t-72 107t-26.5 131.5t26.5 131t72 107t107 72.5t131.5 26.5q69 0 130 -26t108 -73l-47 -47q-38 37 -87.5 58t-103.5 21q-56 0 -105 -21t-86 -58t-58 -86t-21 -105t21 -105t58 -86t86 -58
t105 -21q51 0 97 18t83 50v169h-192v66h259zM405 -65q-1 -5 -2.5 -11.5t-3.5 -16t-6 -25t-10 -38.5h-14v53q-17 0 -28.5 10.5t-11.5 27.5q0 16 11 27t27 11q14 0 26 -10.5t12 -27.5z" />
    <glyph glyph-name="uni0136" unicode="&#x136;" horiz-adv-x="549" 
d="M253 403l266 -403h-79l-231 348l-112 -141v-207h-67v674h67v-360l285 360h87zM287 -65q-1 -5 -2.5 -11.5t-3.5 -16t-6 -25t-10 -38.5h-14v53q-16 0 -28 10.5t-12 27.5q0 16 11 27t27 11t27 -11t11 -27z" />
    <glyph glyph-name="uni0137" unicode="&#x137;" horiz-adv-x="454" 
d="M165 241l-67 -68v-173h-68v675h68v-407l198 198h95l-177 -177l210 -289h-83zM248 -65q-1 -5 -2.5 -11.5t-3.5 -16t-6 -25t-10 -38.5h-14v53q-17 0 -28.5 10.5t-11.5 27.5q0 16 11 27t26 11q17 0 28 -11t11 -27z" />
    <glyph glyph-name="imacron" unicode="&#x12b;" horiz-adv-x="335" 
d="M135 465h67v-465h-67v465zM305 503h-275v52h275v-52z" />
    <glyph glyph-name="uni0145" unicode="&#x145;" horiz-adv-x="517" 
d="M418 0l-321 547v-547h-67v675h69l321 -547v547h67v-675h-69zM287 -65q-1 -5 -2.5 -11.5t-3.5 -16t-6 -25t-10 -38.5h-14v53q-16 0 -28 10.5t-12 27.5q0 16 11 27t27 11t27 -11t11 -27z" />
    <glyph glyph-name="uni0146" unicode="&#x146;" horiz-adv-x="524" 
d="M262 465q48 0 90.5 -18.5t74 -50t49.5 -74t18 -90.5v-232h-67v214q0 39 -12 72t-34 58t-52 39t-67 14q-39 0 -69.5 -15t-51.5 -40t-32.5 -58.5t-11.5 -69.5v-214h-67v463h67v-80q28 37 71 59.5t94 22.5zM295 -65q-1 -5 -2.5 -11.5t-3.5 -16t-6 -25t-10 -38.5h-14v53
q-16 0 -28 10.5t-12 27.5q0 16 11 27t27 11t27 -11t11 -27z" />
    <glyph glyph-name="Uogonek" unicode="&#x172;" horiz-adv-x="575" 
d="M523 -179q-19 -15 -42.5 -28t-48.5 -23.5t-51 -16.5t-50 -6q-54 0 -90.5 31t-36.5 88q0 38 14.5 73t35.5 66l75 2q-11 -13 -24 -30t-24 -36t-18.5 -38.5t-7.5 -38.5q0 -33 23 -48.5t53 -15.5q18 0 40 5.5t44 14t41.5 19.5t32.5 22zM545 675v-417q0 -53 -20.5 -100
t-55.5 -82t-82 -55.5t-100 -20.5t-100 20.5t-82 55.5t-55 82t-20 100v417h67v-417q0 -39 15 -74t40.5 -61t60.5 -41t74 -15q40 0 74.5 15t60.5 41t41 61t15 74v417h67z" />
    <glyph glyph-name="uogonek" unicode="&#x173;" horiz-adv-x="722" 
d="M692 -179q-40 -29 -92.5 -51.5t-102.5 -22.5q-26 0 -49 8t-40 23.5t-26.5 37t-9.5 48.5q0 37 17.5 72t38.5 64h67q-11 -12 -24 -28t-23.5 -34t-17.5 -36.5t-7 -36.5q0 -34 23 -49.5t54 -15.5q41 0 83 19t74 42zM262 0q-48 0 -90.5 18.5t-74 50t-49.5 74t-18 90.5v232h67
v-232q0 -33 13 -63t35 -53t52 -36.5t65 -13.5q33 0 63.5 13t53 35.5t36 52.5t13.5 65v232h67v-465h-67v82q-29 -38 -72.5 -60t-93.5 -22z" />
    <glyph glyph-name="Ohungarumlaut" unicode="&#x150;" horiz-adv-x="734" 
d="M367 675q70 0 131 -26.5t107 -72.5t72.5 -107t26.5 -131t-26.5 -131.5t-72.5 -107t-107 -72t-131 -26.5t-131.5 26.5t-107 72t-72 107t-26.5 131.5t26.5 131t72 107t107 72.5t131.5 26.5zM367 68q56 0 105 21t86 57.5t58 86t21 105.5q0 55 -21 104.5t-58 86t-86 58
t-105 21.5t-105 -21.5t-86 -58t-58 -86t-21 -104.5q0 -56 21 -105.5t58 -86t86 -57.5t105 -21zM356 863h63l-91 -147h-63zM506 863h63l-91 -147h-63z" />
    <glyph glyph-name="eacute" unicode="&#xe9;" horiz-adv-x="524" 
d="M262 465q48 0 90 -18.5t73.5 -50.5t50 -74t18.5 -90q0 -17 -4 -32h-385q5 -29 19 -53t35 -41.5t47 -27.5t56 -10q33 0 63.5 12.5t53.5 35.5l48 -48q-33 -32 -75 -50t-90 -18t-90.5 18t-74 49.5t-49.5 74t-18 90.5t18 90.5t49.5 74t74 50t90.5 18.5zM262 398
q-29 0 -55.5 -10t-47.5 -28t-35.5 -42t-18.5 -52h314q-5 28 -19 52t-35 42t-47.5 28t-55.5 10zM311 648h62l-91 -147h-62z" />
    <glyph glyph-name="OE" unicode="&#x152;" horiz-adv-x="1153" 
d="M367 675q70 0 131 -26.5t107 -72.5t72.5 -107t26.5 -131t-26.5 -131.5t-72.5 -107t-107 -72t-131 -26.5t-131.5 26.5t-107 72t-72 107t-26.5 131.5t26.5 131t72 107t107 72.5t131.5 26.5zM367 68q56 0 105 21t86 57.5t58 86t21 105.5q0 55 -21 104.5t-58 86t-86 58
t-105 21.5t-105 -21.5t-86 -58t-58 -86t-21 -104.5q0 -56 21 -105.5t58 -86t86 -57.5t105 -21zM704 608v-211h315v-67h-315v-262h419v-68h-486v675h486v-67h-419z" />
    <glyph glyph-name="oe" unicode="&#x153;" horiz-adv-x="925" 
d="M262 465q48 0 90.5 -18.5t74 -50t50 -74t18.5 -90.5t-18.5 -90.5t-50 -74t-74 -49.5t-90.5 -18t-90.5 18t-74 49.5t-49.5 74t-18 90.5t18 90.5t49.5 74t74 50t90.5 18.5zM262 67q34 0 64.5 13t53 35.5t35.5 52.5t13 64t-13 64.5t-35.5 53t-53 35.5t-64.5 13t-64 -13
t-52.5 -35.5t-35.5 -53t-13 -64.5t13 -64t35.5 -52.5t52.5 -35.5t64 -13zM663 465q48 0 90 -18.5t73.5 -50.5t50 -74t18.5 -90q0 -17 -4 -32h-385q5 -29 19 -53t35 -41.5t47 -27.5t56 -10q33 0 63.5 12.5t53.5 35.5l48 -48q-33 -32 -75 -50t-90 -18t-90.5 18t-74 49.5
t-49.5 74t-18 90.5t18 90.5t49.5 74t74 50t90.5 18.5zM663 398q-29 0 -55.5 -10t-47.5 -28t-35.5 -42t-18.5 -52h314q-5 28 -19 52t-35 42t-47.5 28t-55.5 10z" />
    <glyph glyph-name="exclamdown" unicode="&#xa1;" horiz-adv-x="137" 
d="M100 495.97h-62v-495.97h62v495.97zM30 635.961q0 16.999 11 27.998q11 11 28 11q15 0 26.5 -11q11.5 -10.999 11.5 -27.998q0 -14.999 -11.5 -25.998t-26.5 -10.999q-17 0 -28 10.999t-11 25.998z" />
    </font>
</defs>
</svg>
